<svg width="109.000000" height="30.000000" viewBox="0 0 109 30" fill="none" xmlns="http://www.w3.org/2000/svg" xmlns:xlink="http://www.w3.org/1999/xlink">
	<desc>
			Created with Pixso.
	</desc>
	<defs/>
	<path id="Vector" d="M45.19 5.42C45.25 5.41 45.31 5.42 45.38 5.43C45.45 5.43 45.52 5.47 45.57 5.52C45.62 5.57 45.65 5.64 45.66 5.71C45.67 5.78 45.68 5.85 45.67 5.92L45.67 14L46.39 14L46.39 5.98C46.39 5.88 46.38 5.77 46.37 5.67C46.35 5.56 46.33 5.46 46.29 5.35C46.25 5.25 46.18 5.15 46.1 5.06C46.03 4.98 45.95 4.92 45.85 4.88C45.77 4.84 45.68 4.81 45.59 4.8C45.5 4.79 45.41 4.78 45.33 4.78L40.14 4.78C40.06 4.78 39.97 4.79 39.88 4.8C39.79 4.81 39.7 4.84 39.62 4.88C39.52 4.92 39.44 4.98 39.37 5.06C39.29 5.15 39.22 5.25 39.18 5.35C39.14 5.46 39.11 5.56 39.1 5.67C39.09 5.77 39.09 5.88 39.09 5.98L39.09 14L39.8 14L39.8 5.92C39.8 5.85 39.8 5.78 39.81 5.71C39.82 5.64 39.86 5.57 39.91 5.52C39.96 5.47 40.03 5.43 40.1 5.43C40.16 5.42 40.23 5.41 40.29 5.42L45.19 5.42Z" fill="#595959" fill-opacity="1.000000" fill-rule="nonzero"/>
	<path id="Vector" d="M46.91 14L47.68 14L51.15 5.61C51.17 5.57 51.18 5.53 51.2 5.48C51.22 5.43 51.25 5.39 51.28 5.36C51.32 5.33 51.37 5.31 51.43 5.31C51.48 5.31 51.53 5.33 51.57 5.36C51.61 5.39 51.64 5.43 51.65 5.48C51.67 5.53 51.69 5.57 51.7 5.61L55.18 14L55.94 14L52.36 5.48C52.29 5.3 52.2 5.12 52.08 4.96C52 4.86 51.89 4.78 51.77 4.73C51.55 4.66 51.31 4.66 51.08 4.73C50.96 4.78 50.86 4.86 50.78 4.96C50.66 5.12 50.56 5.3 50.49 5.48L46.91 14Z" fill="#595959" fill-opacity="1.000000" fill-rule="nonzero"/>
	<path id="Vector" d="M55.94 14L56.71 14L57.82 11.32L63.17 11.32L64.29 14L65.05 14L61.52 5.65C61.46 5.49 61.38 5.33 61.29 5.18C61.2 5.04 61.09 4.92 60.96 4.82C60.83 4.72 60.66 4.67 60.5 4.68C60.33 4.67 60.17 4.72 60.03 4.82C59.9 4.91 59.79 5.03 59.71 5.17C59.61 5.33 59.53 5.48 59.47 5.65L55.94 14ZM60.11 5.86C60.14 5.8 60.17 5.73 60.2 5.64C60.24 5.57 60.28 5.5 60.33 5.43C60.35 5.4 60.37 5.38 60.4 5.36C60.43 5.35 60.46 5.34 60.49 5.34C60.53 5.34 60.56 5.35 60.59 5.36C60.62 5.38 60.64 5.4 60.66 5.43C60.71 5.5 60.75 5.57 60.78 5.64C60.82 5.73 60.85 5.8 60.87 5.86L62.89 10.68L58.1 10.68L60.12 5.86L60.11 5.86Z" fill="#595959" fill-opacity="1.000000" fill-rule="nonzero"/>
	<path id="Vector" d="M72.81 14L72.81 13.37L69.24 13.37C68.9 13.37 68.56 13.33 68.24 13.25C67.98 13.19 67.73 13.09 67.5 12.97C67.32 12.86 67.15 12.74 66.99 12.6C66.88 12.49 66.77 12.37 66.68 12.24C66.5 11.99 66.36 11.71 66.28 11.41C66.19 11.11 66.14 10.8 66.12 10.49C66.09 10.18 66.08 9.86 66.08 9.54C66.08 9.2 66.09 8.84 66.12 8.48C66.14 8.12 66.21 7.76 66.31 7.41C66.4 7.08 66.56 6.77 66.77 6.49C66.94 6.26 67.16 6.06 67.41 5.9C67.63 5.76 67.88 5.66 68.13 5.58C68.36 5.52 68.6 5.47 68.84 5.45C69.04 5.43 69.24 5.42 69.44 5.42L72.66 5.42L72.66 4.78L69.14 4.78C68.77 4.78 68.4 4.83 68.05 4.91C67.76 4.98 67.48 5.09 67.22 5.22C67.02 5.32 66.83 5.45 66.65 5.59C66.52 5.69 66.41 5.79 66.3 5.9C66.08 6.14 65.9 6.41 65.77 6.7C65.64 6.99 65.54 7.29 65.47 7.6C65.41 7.92 65.36 8.24 65.34 8.56C65.32 8.89 65.31 9.21 65.31 9.52C65.31 9.99 65.34 10.46 65.4 10.92C65.46 11.32 65.57 11.7 65.72 12.06C65.87 12.39 66.08 12.7 66.34 12.95C66.46 13.08 66.59 13.19 66.73 13.29C66.91 13.42 67.1 13.53 67.31 13.63C67.56 13.74 67.82 13.83 68.09 13.89C68.42 13.96 68.75 14 69.09 14L72.81 14Z" fill="#595959" fill-opacity="1.000000" fill-rule="nonzero"/>
	<path id="Vector" d="M77.64 14L77.64 5.42L81.5 5.42L81.5 4.78L73.07 4.78L73.07 5.42L76.93 5.42L76.93 14L77.64 14Z" fill="#595959" fill-opacity="1.000000" fill-rule="nonzero"/>
	<path id="Vector" d="M89.9 14L89.9 5.82C89.9 5.75 89.9 5.68 89.89 5.61C89.89 5.52 89.87 5.42 89.85 5.32C89.82 5.21 89.78 5.11 89.72 5.02C89.67 4.92 89.59 4.84 89.49 4.78C89.37 4.71 89.24 4.68 89.11 4.68C88.94 4.68 88.77 4.72 88.63 4.8C88.49 4.89 88.38 5.01 88.29 5.14C88.18 5.29 88.07 5.46 87.95 5.65L83.28 13.09C83.26 13.12 83.23 13.16 83.21 13.2C83.19 13.24 83.16 13.27 83.13 13.31C83.1 13.33 83.07 13.35 83.03 13.35C83 13.36 82.98 13.35 82.95 13.34C82.93 13.33 82.91 13.31 82.9 13.29C82.88 13.25 82.87 13.19 82.87 13.14C82.87 13.08 82.87 13.02 82.87 12.96L82.87 4.78L82.15 4.78L82.15 13.04C82.15 13.15 82.16 13.25 82.17 13.36C82.18 13.48 82.22 13.6 82.27 13.71C82.32 13.83 82.4 13.93 82.5 14C82.63 14.08 82.78 14.12 82.94 14.12C83.1 14.12 83.26 14.08 83.4 14C83.52 13.92 83.63 13.82 83.71 13.7C83.8 13.58 83.89 13.45 83.98 13.31L88.73 5.82C88.76 5.76 88.79 5.71 88.83 5.65C88.86 5.6 88.9 5.55 88.94 5.5C88.96 5.48 88.97 5.47 88.99 5.46C89.02 5.45 89.04 5.44 89.06 5.44C89.08 5.44 89.1 5.44 89.11 5.45C89.13 5.46 89.14 5.47 89.15 5.49C89.17 5.53 89.19 5.57 89.19 5.61C89.19 5.64 89.19 5.67 89.19 5.71L89.19 14.01L89.9 14Z" fill="#595959" fill-opacity="1.000000" fill-rule="nonzero"/>
	<path id="Vector" d="M91.75 14L92.47 14L92.47 4.78L91.75 4.78L91.75 14ZM99.47 14L94.36 10.08C94.27 10 94.16 9.92 94.06 9.84C93.96 9.76 93.87 9.67 93.79 9.57C93.72 9.49 93.68 9.39 93.67 9.28C93.68 9.21 93.7 9.14 93.74 9.08C93.79 9.01 93.84 8.95 93.9 8.89C93.97 8.83 94.03 8.78 94.09 8.73L94.25 8.61L98.97 4.79L97.95 4.79L93.63 8.26C93.52 8.35 93.42 8.44 93.32 8.54C93.22 8.65 93.14 8.76 93.07 8.89C93.01 9 92.97 9.13 92.97 9.26C92.97 9.4 93.01 9.53 93.07 9.65C93.15 9.79 93.24 9.93 93.35 10.05C93.48 10.19 93.62 10.32 93.78 10.43L98.4 14.01L99.47 14Z" fill="#595959" fill-opacity="1.000000" fill-rule="nonzero"/>
	<path id="Vector" d="M99.19 14L99.96 14L101.08 11.32L106.42 11.32L107.54 14L108.31 14L104.78 5.65C104.71 5.49 104.63 5.33 104.54 5.18C104.46 5.04 104.35 4.92 104.21 4.82C104.08 4.72 103.92 4.67 103.75 4.68C103.58 4.67 103.42 4.72 103.28 4.82C103.15 4.91 103.04 5.03 102.96 5.17C102.87 5.33 102.79 5.49 102.72 5.65L99.19 14L99.19 14ZM103.36 5.86C103.39 5.8 103.42 5.73 103.46 5.64C103.49 5.57 103.53 5.5 103.58 5.43C103.6 5.4 103.62 5.38 103.65 5.36C103.68 5.35 103.71 5.34 103.75 5.34C103.78 5.34 103.81 5.35 103.84 5.36C103.87 5.38 103.89 5.4 103.91 5.43C103.96 5.5 104 5.57 104.04 5.64C104.07 5.73 104.1 5.8 104.13 5.86L106.14 10.68L101.35 10.68L103.37 5.86L103.36 5.86Z" fill="#595959" fill-opacity="1.000000" fill-rule="nonzero"/>
	<path id="Vector" d="M42.84 18.43C42.6 18.43 42.35 18.43 42.08 18.45C41.81 18.46 41.54 18.5 41.28 18.56C41 18.62 40.73 18.71 40.48 18.83C40.21 18.96 39.97 19.13 39.76 19.34C39.53 19.57 39.35 19.84 39.21 20.13C39.07 20.42 38.97 20.72 38.91 21.02C38.85 21.32 38.81 21.62 38.79 21.92C38.77 22.21 38.76 22.48 38.77 22.73C38.77 22.97 38.77 23.24 38.79 23.53C38.81 23.83 38.85 24.13 38.91 24.43C38.97 24.74 39.07 25.04 39.21 25.32C39.35 25.62 39.53 25.88 39.76 26.11C39.97 26.32 40.21 26.49 40.48 26.62C40.73 26.74 41 26.84 41.28 26.9C41.54 26.95 41.81 26.99 42.08 27.01C42.35 27.02 42.6 27.03 42.84 27.03C43.07 27.03 43.33 27.03 43.59 27.01C43.87 26.99 44.14 26.95 44.4 26.9C44.68 26.84 44.95 26.74 45.2 26.62C45.47 26.49 45.71 26.32 45.92 26.11C46.15 25.88 46.33 25.62 46.47 25.32C46.61 25.04 46.71 24.74 46.77 24.43C46.83 24.13 46.87 23.83 46.89 23.53C46.91 23.24 46.91 22.97 46.91 22.73C46.91 22.48 46.91 22.21 46.89 21.92C46.87 21.62 46.83 21.32 46.77 21.02C46.71 20.72 46.61 20.42 46.47 20.13C46.33 19.84 46.15 19.57 45.92 19.34C45.71 19.13 45.47 18.96 45.2 18.83C44.95 18.71 44.68 18.62 44.4 18.56C44.14 18.5 43.87 18.46 43.59 18.45C43.33 18.43 43.08 18.42 42.84 18.43ZM39.46 22.73C39.46 22.48 39.46 22.23 39.48 21.97C39.49 21.71 39.52 21.45 39.56 21.19C39.61 20.94 39.68 20.69 39.78 20.46C39.88 20.22 40.01 20 40.18 19.81C40.36 19.62 40.56 19.46 40.79 19.34C41.01 19.23 41.24 19.15 41.48 19.1C41.71 19.06 41.95 19.03 42.19 19.01C42.42 19.01 42.64 19 42.84 19C43.04 19.01 43.26 19 43.49 19.01C43.73 19.03 43.97 19.06 44.2 19.1C44.44 19.15 44.67 19.23 44.89 19.34C45.12 19.46 45.32 19.62 45.49 19.81C45.66 20 45.8 20.22 45.9 20.46C46 20.69 46.07 20.94 46.12 21.19C46.16 21.45 46.19 21.71 46.2 21.97C46.21 22.23 46.22 22.48 46.21 22.73C46.21 22.97 46.21 23.22 46.2 23.48C46.19 23.74 46.16 24 46.12 24.26C46.07 24.51 46 24.76 45.9 25C45.8 25.23 45.66 25.45 45.49 25.65C45.32 25.84 45.12 25.99 44.89 26.11C44.67 26.22 44.44 26.3 44.2 26.35C43.97 26.4 43.73 26.43 43.49 26.44C43.26 26.45 43.04 26.45 42.84 26.45C42.63 26.45 42.42 26.45 42.19 26.44C41.95 26.43 41.71 26.4 41.48 26.35C41.24 26.3 41.01 26.22 40.79 26.11C40.56 25.99 40.36 25.84 40.18 25.65C40.01 25.45 39.88 25.23 39.78 25C39.68 24.76 39.61 24.51 39.56 24.26C39.52 24 39.49 23.74 39.48 23.48C39.47 23.22 39.46 22.97 39.46 22.73Z" fill="#595959" fill-opacity="1.000000" fill-rule="nonzero"/>
	<path id="Vector" d="M48.35 26.93L49 26.93L49 18.52L48.35 18.52L48.35 26.93ZM55.39 26.93L50.75 23.36C50.66 23.29 50.56 23.22 50.47 23.14C50.38 23.06 50.3 22.98 50.23 22.89C50.17 22.81 50.13 22.72 50.12 22.63C50.13 22.56 50.15 22.5 50.18 22.44C50.23 22.38 50.28 22.32 50.33 22.27C50.39 22.22 50.45 22.17 50.5 22.12L50.65 22.01L54.95 18.53L54.02 18.53L50.07 21.69C49.97 21.77 49.88 21.86 49.79 21.95C49.7 22.05 49.63 22.15 49.56 22.27C49.51 22.37 49.47 22.49 49.47 22.6C49.47 22.73 49.51 22.85 49.56 22.96C49.63 23.09 49.72 23.22 49.82 23.33C49.94 23.46 50.06 23.58 50.2 23.68L54.42 26.93L55.39 26.93Z" fill="#595959" fill-opacity="1.000000" fill-rule="nonzero"/>
	<path id="Vector" d="M59.23 18.43C58.99 18.43 58.74 18.43 58.48 18.45C58.2 18.46 57.93 18.5 57.67 18.56C57.39 18.62 57.12 18.71 56.87 18.83C56.6 18.96 56.36 19.13 56.15 19.34C55.93 19.57 55.74 19.84 55.6 20.13C55.46 20.42 55.36 20.71 55.3 21.02C55.24 21.32 55.2 21.62 55.18 21.92C55.16 22.21 55.16 22.48 55.16 22.73C55.16 22.97 55.16 23.24 55.18 23.53C55.2 23.83 55.24 24.13 55.3 24.43C55.36 24.74 55.46 25.04 55.6 25.32C55.74 25.61 55.93 25.88 56.15 26.11C56.36 26.32 56.6 26.49 56.87 26.62C57.12 26.74 57.39 26.84 57.67 26.89C57.93 26.95 58.2 26.99 58.48 27C58.74 27.02 58.99 27.03 59.23 27.03C59.47 27.03 59.72 27.03 59.99 27C60.26 26.99 60.53 26.95 60.8 26.89C61.07 26.84 61.34 26.74 61.59 26.62C61.86 26.49 62.1 26.32 62.31 26.11C62.54 25.88 62.73 25.62 62.86 25.32C63 25.04 63.1 24.74 63.16 24.43C63.22 24.14 63.26 23.84 63.28 23.54C63.3 23.24 63.3 22.98 63.3 22.73C63.3 22.48 63.3 22.21 63.28 21.92C63.26 21.62 63.22 21.32 63.16 21.03C63.1 20.72 63 20.42 62.86 20.14C62.72 19.84 62.53 19.57 62.31 19.34C62.1 19.13 61.86 18.96 61.59 18.83C61.34 18.71 61.07 18.62 60.79 18.56C60.53 18.5 60.26 18.47 59.98 18.45C59.72 18.43 59.46 18.43 59.23 18.43L59.23 18.43ZM55.85 22.73C55.85 22.48 55.85 22.23 55.87 21.97C55.88 21.71 55.91 21.45 55.95 21.19C56 20.94 56.07 20.69 56.17 20.46C56.27 20.22 56.41 20 56.57 19.81C56.75 19.62 56.95 19.46 57.18 19.34C57.4 19.23 57.63 19.15 57.87 19.1C58.1 19.05 58.34 19.03 58.58 19.01C58.81 19 59.03 19 59.23 19C59.43 19 59.65 19 59.88 19.01C60.12 19.03 60.36 19.05 60.59 19.1C60.83 19.15 61.06 19.23 61.28 19.34C61.51 19.46 61.71 19.62 61.89 19.81C62.06 20 62.19 20.22 62.29 20.46C62.39 20.69 62.46 20.94 62.51 21.19C62.55 21.45 62.58 21.71 62.59 21.97C62.6 22.23 62.61 22.48 62.61 22.73C62.6 22.97 62.6 23.22 62.59 23.48C62.58 23.74 62.55 24 62.51 24.26C62.46 24.51 62.39 24.76 62.29 25C62.19 25.23 62.06 25.45 61.89 25.65C61.71 25.84 61.51 25.99 61.28 26.11C61.06 26.22 60.83 26.3 60.59 26.35C60.36 26.4 60.12 26.43 59.88 26.44C59.65 26.45 59.43 26.45 59.23 26.45C59.03 26.45 58.81 26.45 58.58 26.44C58.34 26.43 58.1 26.4 57.87 26.35C57.63 26.3 57.4 26.22 57.18 26.11C56.95 25.99 56.75 25.84 56.57 25.65C56.41 25.45 56.27 25.23 56.17 25C56.07 24.76 56 24.51 55.95 24.26C55.91 24 55.88 23.74 55.87 23.48C55.86 23.22 55.85 22.97 55.85 22.73Z" fill="#595959" fill-opacity="1.000000" fill-rule="nonzero"/>
	<path id="Vector" d="M71.49 18.52L70.84 18.52L70.84 22.37L65.39 22.37L65.39 18.52L64.74 18.52L64.74 26.93L65.39 26.93L65.39 22.94L70.84 22.94L70.84 26.93L71.49 26.93L71.49 18.52Z" fill="#595959" fill-opacity="1.000000" fill-rule="nonzero"/>
	<path id="Vector" d="M-0.21 -0.46L19.46 -0.46C22.21 -0.46 24.83 0.63 26.77 2.57C28.71 4.51 29.8 7.14 29.81 9.88L29.81 22.25L22.53 22.25L22.53 9.88C22.52 9.07 22.2 8.29 21.62 7.72C21.05 7.15 20.27 6.82 19.46 6.82L-0.21 6.82L-0.21 -0.46Z" fill="#898989" fill-opacity="1.000000" fill-rule="nonzero"/>
	<path id="Vector" d="M29.81 29.54L10.09 29.54C7.52 29.53 5.03 28.57 3.13 26.83C1.23 25.1 0.04 22.72 -0.21 20.15L-0.21 6.82L7.03 6.82L7.03 19.19C7.03 20 7.36 20.78 7.93 21.35C8.5 21.93 9.28 22.25 10.09 22.25L29.81 22.25L29.81 29.54Z" fill="#33C5F3" fill-opacity="1.000000" fill-rule="nonzero"/>
</svg>
