<svg width="7.000000" height="10.000000" viewBox="0 0 7 10" fill="none" xmlns="http://www.w3.org/2000/svg" xmlns:xlink="http://www.w3.org/1999/xlink">
	<desc>
			Created with Pixso.
	</desc>
	<defs/>
	<path id="Vector" d="M3.17 -0.65C1.17 -0.65 -0.45 0.97 -0.45 2.97C-0.45 5.45 2.79 9.08 2.93 9.24C3.06 9.38 3.28 9.38 3.41 9.24C3.55 9.08 6.79 5.45 6.79 2.97C6.79 0.97 5.17 -0.65 3.17 -0.65ZM3.17 4.79C2.16 4.79 1.35 3.97 1.35 2.97C1.35 1.96 2.16 1.15 3.17 1.15C4.17 1.15 4.99 1.96 4.99 2.97C4.99 3.97 4.17 4.79 3.17 4.79Z" fill="#00171F" fill-opacity="1.000000" fill-rule="nonzero"/>
</svg>
