<svg width="20.000000" height="20.000000" viewBox="0 0 20 20" fill="none" xmlns="http://www.w3.org/2000/svg" xmlns:xlink="http://www.w3.org/1999/xlink">
	<desc>
			Created with Pixso.
	</desc>
	<defs>
		<clipPath id="clip2212_990">
			<rect id="shopping-cart" width="20.000000" height="20.000000" transform="translate(-0.205078 -0.318848)" fill="white" fill-opacity="0"/>
		</clipPath>
	</defs>
	<rect id="shopping-cart" width="20.000000" height="20.000000" transform="translate(-0.205078 -0.318848)" fill="#FFFFFF" fill-opacity="0"/>
	<g clip-path="url(#clip2212_990)">
		<path id="Vector" d="M19.78 7.41C19.78 7 19.54 6.77 19.12 6.77C18.52 6.77 17.91 6.76 17.31 6.77C17.19 6.77 17.1 6.74 17.03 6.64C16.39 5.84 15.76 5.06 15.13 4.27C14.31 3.24 13.48 2.22 12.66 1.2C12.5 0.99 12.29 0.88 12.02 0.95C11.58 1.07 11.45 1.55 11.75 1.93C12.99 3.48 14.24 5.03 15.48 6.57C15.52 6.63 15.56 6.68 15.61 6.75L3.95 6.75C3.99 6.69 4.02 6.65 4.05 6.61C4.41 6.16 4.78 5.71 5.14 5.26C6.02 4.16 6.91 3.05 7.8 1.95C7.93 1.78 8.02 1.61 7.97 1.4C7.92 1.15 7.77 0.99 7.53 0.94C7.27 0.88 7.07 0.99 6.91 1.19C5.46 2.99 4.01 4.8 2.56 6.61C2.47 6.72 2.38 6.77 2.23 6.76C1.68 6.75 1.13 6.77 0.57 6.75C0.21 6.75 -0.05 6.85 -0.21 7.19L-0.21 9.84C-0.05 10.18 0.21 10.3 0.58 10.27C0.75 10.25 0.93 10.26 1.1 10.26C1.13 10.34 1.15 10.4 1.16 10.46C1.88 12.94 2.59 15.42 3.3 17.91C3.41 18.29 3.59 18.43 3.99 18.43L15.59 18.43C15.98 18.43 16.16 18.29 16.27 17.9C16.9 15.73 17.52 13.56 18.15 11.39C18.26 11.01 18.37 10.64 18.48 10.26L19.12 10.26C19.56 10.26 19.79 10.03 19.79 9.6C19.78 8.88 19.78 8.14 19.78 7.41ZM15.24 17.26L4.33 17.26C3.67 14.94 3 12.62 2.33 10.28L17.24 10.28C16.58 12.61 15.91 14.93 15.24 17.26ZM18.6 9.09L0.97 9.09L0.97 7.95L18.6 7.95L18.6 9.09Z" fill="#00171F" fill-opacity="1.000000" fill-rule="nonzero"/>
		<path id="Vector" d="M9.8 15.93C10.16 15.92 10.41 15.68 10.41 15.32L10.41 12.17C10.41 11.8 10.16 11.55 9.79 11.55C9.42 11.55 9.16 11.8 9.16 12.17L9.16 15.32C9.16 15.68 9.43 15.93 9.8 15.93ZM7.3 15.98C7.65 15.88 7.83 15.57 7.73 15.2C7.59 14.66 7.44 14.12 7.3 13.58C7.16 13.05 7.02 12.52 6.87 11.98C6.77 11.61 6.46 11.42 6.1 11.51C5.74 11.61 5.56 11.93 5.66 12.3C5.95 13.37 6.24 14.45 6.53 15.52C6.62 15.89 6.95 16.08 7.3 15.98ZM12.29 15.93C12.64 16.02 12.96 15.84 13.05 15.47C13.2 14.94 13.34 14.39 13.49 13.86C13.63 13.32 13.77 12.79 13.91 12.26C14.02 11.88 13.84 11.56 13.48 11.46C13.12 11.37 12.81 11.56 12.71 11.93C12.42 13 12.13 14.08 11.85 15.15C11.75 15.51 11.93 15.84 12.29 15.93Z" fill="#00171F" fill-opacity="1.000000" fill-rule="nonzero"/>
	</g>
</svg>
