<svg width="10.000000" height="10.000000" viewBox="0 0 10 10" fill="none" xmlns="http://www.w3.org/2000/svg" xmlns:xlink="http://www.w3.org/1999/xlink">
	<desc>
			Created with Pixso.
	</desc>
	<defs>
		<clipPath id="clip2212_974">
			<rect id="geolocation" width="10.000000" height="10.000000" transform="translate(-0.825195 -0.648926)" fill="white" fill-opacity="0"/>
		</clipPath>
	</defs>
	<rect id="geolocation" width="10.000000" height="10.000000" transform="translate(-0.825195 -0.648926)" fill="#FFFFFF" fill-opacity="0"/>
	<g clip-path="url(#clip2212_974)">
		<path id="Vector" d="M4.17 -0.65C2.17 -0.65 0.55 0.97 0.55 2.97C0.55 5.45 3.79 9.08 3.93 9.24C4.06 9.38 4.28 9.38 4.41 9.24C4.55 9.08 7.79 5.45 7.79 2.97C7.79 0.97 6.17 -0.65 4.17 -0.65ZM4.17 4.79C3.16 4.79 2.35 3.97 2.35 2.97C2.35 1.96 3.16 1.15 4.17 1.15C5.17 1.15 5.99 1.96 5.99 2.97C5.99 3.97 5.17 4.79 4.17 4.79Z" fill="#00171F" fill-opacity="1.000000" fill-rule="nonzero"/>
	</g>
</svg>
