<svg width="20.000000" height="20.000000" viewBox="0 0 20 20" fill="none" xmlns="http://www.w3.org/2000/svg" xmlns:xlink="http://www.w3.org/1999/xlink">
	<desc>
			Created with Pixso.
	</desc>
	<defs>
		<clipPath id="clip2212_985">
			<rect id="tg-small" width="20.000000" height="20.000000" transform="translate(-0.205078 -0.318848)" fill="white" fill-opacity="0"/>
		</clipPath>
	</defs>
	<rect id="tg-small" width="20.000000" height="20.000000" transform="translate(-0.205078 -0.318848)" fill="#FFFFFF" fill-opacity="0"/>
	<g clip-path="url(#clip2212_985)">
		<path id="Vector" d="M9.79 18.18C14.48 18.18 18.29 14.37 18.29 9.68C18.29 4.98 14.48 1.18 9.79 1.18C5.1 1.18 1.29 4.98 1.29 9.68C1.29 14.37 5.1 18.18 9.79 18.18ZM19.79 9.68C19.79 15.2 15.31 19.68 9.79 19.68C4.27 19.68 -0.21 15.2 -0.21 9.68C-0.21 4.15 4.27 -0.32 9.79 -0.32C15.31 -0.32 19.79 4.15 19.79 9.68Z" fill="#00171F" fill-opacity="1.000000" fill-rule="nonzero"/>
		<path id="Vector" d="M4.31 9.57C7.23 8.3 9.17 7.46 10.14 7.05C12.91 5.9 13.5 5.7 13.87 5.69C13.95 5.69 14.14 5.7 14.26 5.8C14.36 5.89 14.39 6 14.4 6.08C14.42 6.16 14.44 6.34 14.42 6.47C14.27 8.05 13.62 11.89 13.29 13.66C13.15 14.41 12.87 14.66 12.6 14.68C12.02 14.73 11.58 14.3 11.02 13.93C10.14 13.36 9.65 13 8.79 12.43C7.8 11.78 8.44 11.42 9.01 10.84C9.16 10.69 11.71 8.36 11.76 8.15C11.77 8.13 11.77 8.03 11.71 7.98C11.66 7.93 11.57 7.94 11.51 7.96C11.41 7.98 10.02 8.91 7.29 10.75C6.89 11.03 6.54 11.16 6.21 11.15C5.85 11.14 5.17 10.95 4.65 10.78C4.03 10.58 3.53 10.48 3.57 10.13C3.6 9.94 3.85 9.76 4.31 9.57Z" fill="#00171F" fill-opacity="1.000000" fill-rule="nonzero"/>
	</g>
</svg>
