<svg width="20.000000" height="20.000000" viewBox="0 0 20 20" fill="none" xmlns="http://www.w3.org/2000/svg" xmlns:xlink="http://www.w3.org/1999/xlink">
	<desc>
			Created with Pixso.
	</desc>
	<defs/>
	<path id="Vector" d="M16.89 2.58C14.99 0.68 12.49 -0.32 9.79 -0.32C4.29 -0.32 -0.21 4.18 -0.21 9.68C-0.21 11.48 0.29 13.18 1.09 14.68L-0.21 19.68L5.09 18.28C6.59 19.08 8.19 19.48 9.89 19.48C15.39 19.48 19.89 14.98 19.89 9.48C19.79 6.98 18.79 4.48 16.89 2.58ZM9.79 17.88C8.29 17.88 6.89 17.48 5.59 16.68L5.29 16.48L2.19 17.28L2.99 14.18L2.79 13.98C1.99 12.68 1.59 11.18 1.59 9.58C1.59 4.98 5.29 1.28 9.89 1.28C12.09 1.28 14.19 2.18 15.79 3.68C17.39 5.28 18.19 7.28 18.19 9.58C18.09 14.18 14.39 17.88 9.79 17.88ZM14.39 11.68C14.19 11.58 12.89 10.98 12.69 10.88C12.49 10.78 12.29 10.78 12.09 10.98C11.89 11.18 11.49 11.78 11.29 11.98C11.19 12.18 10.99 12.18 10.79 12.08C10.59 11.98 9.69 11.68 8.79 10.78C8.09 10.08 7.59 9.28 7.39 9.08C7.29 8.78 7.39 8.68 7.49 8.58C7.59 8.48 7.79 8.28 7.89 8.08C7.99 7.98 8.09 7.88 8.09 7.68C8.19 7.48 8.09 7.38 8.09 7.28C8.09 7.18 7.59 5.88 7.39 5.38C7.19 4.98 6.89 4.98 6.79 4.98L6.29 4.98C6.09 4.98 5.89 5.08 5.59 5.28C5.29 5.48 4.79 6.18 4.79 7.38C4.79 8.58 5.69 9.78 5.79 9.98C5.89 10.18 7.59 12.68 10.09 13.78C10.69 14.08 11.19 14.18 11.49 14.28C12.09 14.48 12.59 14.48 13.09 14.38C13.59 14.28 14.59 13.78 14.79 13.18C14.99 12.58 14.99 12.08 14.89 11.98C14.79 11.88 14.59 11.78 14.39 11.68Z" fill="#00171F" fill-opacity="1.000000" fill-rule="evenodd"/>
</svg>
