<svg width="30.000000" height="30.000000" viewBox="0 0 30 30" fill="none" xmlns="http://www.w3.org/2000/svg" xmlns:xlink="http://www.w3.org/1999/xlink">
	<desc>
			Created with Pixso.
	</desc>
	<defs>
		<clipPath id="clip2212_927">
			<rect id="tg-round" width="30.000000" height="30.000000" transform="translate(-0.325195 -0.018555)" fill="white" fill-opacity="0"/>
		</clipPath>
	</defs>
	<rect id="tg-round" width="30.000000" height="30.000000" transform="translate(-0.325195 -0.018555)" fill="#FFFFFF" fill-opacity="0"/>
	<g clip-path="url(#clip2212_927)">
		<path id="Vector" d="M14.67 -0.02C6.37 -0.02 -0.33 6.68 -0.33 14.98C-0.33 23.28 6.37 29.98 14.67 29.98C22.97 29.98 29.67 23.28 29.67 14.98C29.67 6.68 22.97 -0.02 14.67 -0.02ZM21.57 10.18C21.37 12.58 20.37 18.28 19.87 20.98C19.67 22.08 19.27 22.48 18.87 22.48C17.97 22.58 17.37 21.88 16.47 21.38C15.17 20.48 14.37 19.98 13.17 19.18C11.67 18.18 12.67 17.68 13.47 16.78C13.67 16.58 17.57 13.08 17.57 12.78C17.57 12.78 17.57 12.58 17.47 12.48C17.37 12.38 17.27 12.48 17.17 12.48C17.07 12.48 14.97 13.88 10.87 16.68C10.27 17.08 9.77 17.28 9.27 17.28C8.77 17.28 7.67 16.98 6.97 16.78C6.07 16.48 5.27 16.28 5.37 15.78C5.37 15.48 5.77 15.28 6.47 14.98C10.87 13.08 13.77 11.78 15.17 11.18C19.37 9.48 20.17 9.18 20.77 9.18C20.87 9.18 21.17 9.18 21.37 9.38C21.47 9.48 21.57 9.68 21.57 9.78C21.57 9.68 21.67 9.98 21.57 10.18Z" fill="#FFFFFF" fill-opacity="1.000000" fill-rule="nonzero"/>
	</g>
</svg>
