<svg width="30.000000" height="30.000000" viewBox="0 0 30 30" fill="none" xmlns="http://www.w3.org/2000/svg" xmlns:xlink="http://www.w3.org/1999/xlink">
	<desc>
			Created with Pixso.
	</desc>
	<defs>
		<clipPath id="clip2212_924">
			<rect id="youtube" width="30.000000" height="30.000000" transform="translate(-0.765137 -0.018555)" fill="white" fill-opacity="0"/>
		</clipPath>
	</defs>
	<rect id="youtube" width="30.000000" height="30.000000" transform="translate(-0.765137 -0.018555)" fill="#FFFFFF" fill-opacity="0"/>
	<g clip-path="url(#clip2212_924)">
		<path id="Vector" d="M28.37 7.8C28.05 6.51 27.09 5.55 25.8 5.23C23.44 4.58 14.23 4.58 14.23 4.58C14.23 4.58 5.02 4.58 2.77 5.23C1.48 5.55 0.41 6.51 0.09 7.8C-0.45 10.16 -0.45 14.98 -0.45 14.98C-0.45 14.98 -0.45 19.8 0.19 22.16C0.52 23.44 1.48 24.41 2.77 24.73C5.02 25.37 14.23 25.37 14.23 25.37C14.23 25.37 23.44 25.37 25.69 24.73C26.98 24.41 27.94 23.33 28.27 22.16C28.91 19.8 28.91 14.98 28.91 14.98C28.91 14.98 29.02 10.16 28.37 7.8ZM11.23 19.37L11.23 10.58L18.94 14.98L11.23 19.37Z" fill="#FFFFFF" fill-opacity="1.000000" fill-rule="nonzero"/>
	</g>
</svg>
