<svg width="30.000000" height="29.000000" viewBox="0 0 30 29" fill="none" xmlns="http://www.w3.org/2000/svg" xmlns:xlink="http://www.w3.org/1999/xlink">
	<desc>
			Created with Pixso.
	</desc>
	<defs/>
	<path id="Vector" d="M11 24.46L10.63 23.24C10.6 23.26 10.53 23.33 10.45 23.4L7.81 26.03C7.71 26.13 7.6 26.21 7.48 26.27L1.59 28.53C0.78 28.83 -0.02 28.43 -0.17 27.62C-0.23 27.38 -0.19 27.1 -0.11 26.87C0.64 24.88 1.41 22.91 2.17 20.93C2.21 20.81 2.31 20.69 2.4 20.59L6.26 16.74C6.37 16.64 6.46 16.56 6.39 16.37C5.92 15.17 5.86 13.93 6.05 12.66L6.07 12.51L2.75 12.51C2.08 12.53 1.42 12.32 0.89 11.91C0.36 11.49 -0.01 10.91 -0.15 10.25C-0.42 8.83 0.29 7.56 1.69 6.98L1.81 6.93C1.64 6.16 1.63 5.4 1.86 4.64C2.43 2.73 3.7 1.53 5.65 1.2C7.69 0.86 9.3 1.66 10.45 3.37C10.58 3.57 10.68 3.62 10.92 3.57C11.65 3.42 12.42 3.49 13.11 3.78C13.8 4.07 14.39 4.56 14.8 5.18C14.92 5.36 15.04 5.41 15.23 5.44C15.8 5.53 16.38 5.63 16.94 5.76C17.14 5.8 17.24 5.77 17.38 5.64C19.14 3.87 20.9 2.11 22.67 0.36C23.33 -0.32 24.23 -0.72 25.17 -0.78C26.12 -0.83 27.06 -0.52 27.79 0.08C28.21 0.42 28.55 0.84 28.8 1.32C29.04 1.8 29.18 2.33 29.21 2.87C29.23 3.41 29.14 3.95 28.95 4.45C28.75 4.95 28.45 5.41 28.06 5.78C26.33 7.54 24.58 9.27 22.84 11C22.66 11.18 22.63 11.33 22.69 11.57C22.84 12.17 22.95 12.79 23.08 13.44L24 13.44L24 14.34C23.99 14.77 24.16 15.09 24.56 15.26C24.95 15.43 25.31 15.34 25.61 15.03C25.82 14.81 26.01 14.59 26.2 14.4L28.27 16.47C28.08 16.64 27.85 16.83 27.64 17.04C27.33 17.33 27.23 17.68 27.4 18.1C27.57 18.51 27.9 18.68 28.34 18.67L29.2 18.67L29.2 21.51L28.32 21.51C27.9 21.51 27.58 21.69 27.4 22.08C27.24 22.48 27.33 22.84 27.64 23.14L28.26 23.73L26.2 25.79C26.03 25.59 25.83 25.38 25.62 25.16C25.32 24.86 24.97 24.75 24.57 24.93C24.17 25.09 23.99 25.41 23.99 25.84L23.99 26.73L21.14 26.73L21.14 25.84C21.14 25.39 20.94 25.07 20.57 24.93C20.17 24.77 19.82 24.86 19.51 25.16L18.84 25.87L18.31 25.22C18.25 25.96 17.95 26.42 17.33 26.67C17.25 26.69 17.21 26.78 17.17 26.87C16.64 28 15.74 28.63 14.49 28.63C13.24 28.63 12.37 27.98 11.83 26.87C11.79 26.78 11.72 26.7 11.63 26.65C10.66 26.19 10.43 25.29 11 24.46ZM9.72 4.02L9.68 3.94C9.22 3.17 8.51 2.6 7.67 2.31C6.82 2.02 5.91 2.03 5.07 2.35C4.24 2.67 3.55 3.27 3.12 4.05C2.68 4.83 2.54 5.74 2.71 6.61C2.74 6.78 2.82 6.83 2.98 6.85C3.72 6.94 4.34 7.27 4.81 7.84C5.25 8.36 5.48 8.96 5.48 9.65L4.55 9.65L4.5 9.27C4.4 8.81 4.13 8.4 3.74 8.12C3.36 7.84 2.88 7.72 2.41 7.78C1.93 7.84 1.5 8.08 1.19 8.45C0.88 8.82 0.73 9.29 0.75 9.77C0.8 10.8 1.63 11.57 2.73 11.57L15.53 11.57C16.11 11.51 16.54 11.21 16.76 10.68C16.98 10.15 16.9 9.64 16.51 9.21C16.34 9 16.11 8.85 15.86 8.77C15.6 8.7 15.32 8.7 15.07 8.78C14.4 8.97 14.08 9.46 14.01 10.13L13.07 10.13C13.06 9.75 13.15 9.39 13.32 9.06C13.5 8.73 13.75 8.45 14.06 8.24C14.41 8.03 14.47 7.74 14.48 7.38C14.51 6.67 14.26 5.97 13.79 5.43C13.33 4.89 12.68 4.54 11.97 4.46C11.28 4.38 10.59 4.56 10.02 4.95C9.46 5.34 9.05 5.93 8.88 6.6C8.83 6.81 8.87 6.91 9.08 6.99C9.42 7.13 9.71 7.37 9.91 7.68C10.11 7.98 10.21 8.35 10.2 8.71L9.3 8.71C9.15 8.08 8.83 7.77 8.34 7.76C7.84 7.76 7.53 8.04 7.33 8.69L6.41 8.69C6.45 8 6.72 7.42 7.31 7.13C7.74 6.91 7.9 6.64 8.01 6.2C8.29 5.29 8.9 4.51 9.72 4.03L9.72 4.02ZM14.97 22.01C15.68 22.01 16.37 22.01 17.04 22C17.1 22 17.18 21.9 17.23 21.83C17.61 21.26 17.94 20.63 18.38 20.11C19 19.38 19.72 18.72 20.39 18.02C21.4 17.04 22 15.71 22.07 14.31C22.15 12.53 21.6 10.79 20.53 9.37C19.46 7.96 17.93 6.96 16.2 6.55C15.92 6.49 15.64 6.44 15.37 6.41L15.45 7.77C15.5 7.78 15.57 7.78 15.63 7.78C16.25 7.8 16.85 8.07 17.28 8.53C17.71 8.99 17.94 9.6 17.92 10.22C17.9 10.85 17.63 11.44 17.17 11.87C16.71 12.3 16.11 12.53 15.48 12.51C14.68 12.53 13.89 12.51 13.1 12.51C13.08 12.56 13.06 12.58 13.06 12.6L13.05 13.78C13.05 14.27 13.2 14.42 13.7 14.42L17.31 14.42C17.5 14.42 17.69 14.46 17.86 14.53C18.03 14.6 18.19 14.71 18.32 14.84C18.45 14.98 18.55 15.13 18.62 15.31C18.69 15.48 18.73 15.67 18.73 15.85C18.73 16.04 18.69 16.22 18.62 16.4C18.54 16.57 18.44 16.73 18.31 16.86C18.17 16.99 18.01 17.09 17.84 17.16C17.67 17.23 17.48 17.27 17.3 17.27L12.64 17.27C12.32 17.27 12.11 17.45 12.1 17.73C12.1 18.01 12.31 18.2 12.63 18.2C12.9 18.21 13.16 18.2 13.43 18.2C14.35 18.21 14.95 18.81 14.95 19.73C14.97 20.47 14.97 21.21 14.97 22.01ZM7.05 12.53C6.7 14.38 6.94 16.09 8.19 17.55C8.74 18.2 9.37 18.79 9.97 19.41C10.71 20.11 11.32 20.94 11.76 21.86C11.78 21.92 11.87 22 11.91 22L14 22.01C14 21.18 14.02 20.37 14 19.57C13.99 19.31 13.79 19.16 13.51 19.16C13.2 19.15 12.88 19.16 12.56 19.15C12.19 19.14 11.83 18.99 11.57 18.72C11.3 18.45 11.16 18.09 11.16 17.71C11.16 17.34 11.31 16.99 11.57 16.73C11.83 16.46 12.18 16.31 12.55 16.3L17.21 16.3C17.55 16.3 17.74 16.17 17.8 15.92C17.86 15.61 17.63 15.36 17.24 15.36C16.1 15.36 14.95 15.32 13.81 15.37C12.75 15.41 12.03 14.7 12.11 13.68C12.14 13.3 12.11 12.92 12.11 12.53L7.05 12.53ZM22.51 16.76C23.15 16.75 23.78 16.92 24.32 17.26C24.87 17.6 25.3 18.09 25.57 18.67C25.85 19.25 25.94 19.9 25.86 20.53C25.77 21.17 25.5 21.77 25.09 22.25C24.67 22.74 24.12 23.1 23.5 23.28C22.89 23.46 22.23 23.46 21.62 23.28C21 23.1 20.45 22.74 20.04 22.26C19.62 21.77 19.35 21.17 19.26 20.54C18.73 21.08 18.31 21.72 18.03 22.42C18 22.49 18.04 22.61 18.08 22.68C18.25 23 18.33 23.31 18.25 23.68C18.24 23.74 18.25 23.84 18.3 23.9L18.84 24.47C19.49 23.91 20.16 23.74 20.91 24.05C21.68 24.37 22.04 24.97 22.09 25.78L23.01 25.78C23.02 25.41 23.13 25.05 23.33 24.74C23.54 24.43 23.83 24.19 24.18 24.04C24.52 23.9 24.89 23.86 25.26 23.92C25.62 23.99 25.96 24.16 26.23 24.41L26.89 23.79C26.36 23.18 26.18 22.51 26.5 21.76C26.82 20.99 27.42 20.63 28.23 20.58L28.23 19.66C27.85 19.65 27.49 19.54 27.19 19.33C26.88 19.12 26.64 18.83 26.5 18.49C26.35 18.14 26.31 17.77 26.38 17.4C26.44 17.04 26.61 16.7 26.87 16.43C26.66 16.21 26.44 16 26.23 15.77C25.66 16.27 25.03 16.46 24.31 16.21C23.98 16.1 23.7 15.91 23.47 15.66C23.25 15.4 23.1 15.09 23.04 14.76C22.87 15.4 22.68 16.08 22.51 16.76ZM26.85 5.62C27.87 4.78 28.5 3.76 28.16 2.37C28.05 1.84 27.78 1.35 27.39 0.98C27.01 0.6 26.51 0.34 25.98 0.24C24.61 -0.06 23.61 0.58 22.8 1.57L26.85 5.62ZM2.81 21.97C2.81 21.97 2.79 21.98 2.78 22C2.41 22.97 2.04 23.93 1.68 24.9C1.64 24.98 1.7 25.13 1.76 25.2C2.25 25.7 2.75 26.18 3.24 26.68C3.36 26.81 3.46 26.8 3.61 26.74L4.96 26.23L6.48 25.64L2.81 21.97L2.81 21.97ZM4.97 22.66L8.4 19.23L6.94 17.52L3.4 21.07C3.91 21.6 4.45 22.15 4.97 22.66L4.97 22.66ZM7.37 25.03L10.68 21.7C10.21 21.13 9.72 20.53 9.25 19.97L5.77 23.45C6.3 23.97 6.85 24.51 7.36 25.03L7.37 25.03ZM22.54 22.47C23.17 22.46 23.76 22.19 24.2 21.73C24.63 21.28 24.86 20.67 24.84 20.04C24.83 19.42 24.56 18.82 24.1 18.39C23.65 17.96 23.04 17.73 22.41 17.74C22.14 17.75 21.89 17.85 21.67 18.01C21.21 18.43 20.82 18.91 20.41 19.38C20.33 19.47 20.27 19.59 20.24 19.7C20.18 20.04 20.2 20.39 20.29 20.72C20.37 21.05 20.53 21.36 20.75 21.62C20.97 21.88 21.24 22.1 21.55 22.24C21.86 22.39 22.2 22.47 22.54 22.47ZM20.67 3.77L18.23 6.21L20.14 7.49L22.28 5.37L20.67 3.77ZM23.04 6.12C22.33 6.83 21.62 7.54 20.9 8.24L22.21 10.2L24.67 7.74L23.04 6.12ZM21.4 2.99L25.4 6.99L26.08 6.36L22.07 2.35L21.4 3L21.4 2.99ZM14.53 22.95L12.24 22.95C11.87 22.95 11.65 23.13 11.65 23.43C11.65 23.72 11.87 23.9 12.24 23.9L16.75 23.9C17.13 23.9 17.34 23.72 17.34 23.43C17.34 23.13 17.13 22.96 16.75 22.96C16.01 22.94 15.27 22.96 14.53 22.96L14.53 22.95ZM14.5 24.84L12.22 24.84C11.87 24.84 11.66 25.02 11.65 25.31C11.65 25.61 11.87 25.8 12.23 25.8L16.77 25.8C17.12 25.8 17.33 25.61 17.34 25.33C17.34 25.03 17.13 24.84 16.76 24.84L14.5 24.84ZM12.83 26.76C13.28 27.41 13.84 27.71 14.56 27.69C14.88 27.68 15.2 27.59 15.47 27.43C15.75 27.27 15.98 27.04 16.15 26.76L12.83 26.76ZM1.21 26.07C1.07 26.46 0.9 26.85 0.77 27.26C0.68 27.51 0.91 27.76 1.16 27.67C1.57 27.54 1.98 27.37 2.37 27.21L1.21 26.07Z" fill="#FFFFFF" fill-opacity="1.000000" fill-rule="nonzero"/>
</svg>
