<svg width="30.000000" height="30.000000" viewBox="0 0 30 30" fill="none" xmlns="http://www.w3.org/2000/svg" xmlns:xlink="http://www.w3.org/1999/xlink">
	<desc>
			Created with Pixso.
	</desc>
	<defs>
		<clipPath id="clip2212_75">
			<rect id="doc-garant-3" width="30.000000" height="30.000000" transform="translate(-0.205078 -0.068848)" fill="white" fill-opacity="0"/>
		</clipPath>
	</defs>
	<rect id="doc-garant-3" width="30.000000" height="30.000000" transform="translate(-0.205078 -0.068848)" fill="#FFFFFF" fill-opacity="0"/>
	<g clip-path="url(#clip2212_75)">
		<path id="Vector" d="M-0.21 26.23C-0.04 25.99 0.2 25.92 0.49 25.93C1.47 25.94 2.44 25.93 3.42 25.93L3.78 25.93L3.78 2.63C3.78 1.38 4.39 0.44 5.45 0.08C5.72 -0.01 6.02 -0.07 6.31 -0.07L27.3 -0.07C27.95 -0.07 28.57 0.18 29.04 0.63C29.5 1.09 29.77 1.7 29.79 2.35L29.79 3.35C29.78 3.74 29.6 3.92 29.21 3.92L25.79 3.92L25.79 27.23C25.79 28.46 25.19 29.39 24.14 29.77C23.97 29.83 23.8 29.87 23.63 29.92L1.9 29.92L1.6 29.82C1.19 29.7 0.83 29.49 0.53 29.2C0.23 28.9 0.01 28.54 -0.11 28.14C-0.14 28.03 -0.17 27.92 -0.22 27.81L-0.21 26.23ZM4.78 25.93L21.03 25.93C21.68 25.93 21.79 26.04 21.79 26.7C21.79 27.02 21.78 27.35 21.82 27.66C21.85 27.86 21.92 28.05 22.03 28.22C22.14 28.39 22.28 28.54 22.44 28.66C22.61 28.77 22.79 28.85 22.99 28.89C23.19 28.93 23.39 28.93 23.59 28.89C24.34 28.73 24.8 28.14 24.8 27.29L24.8 3.83C24.8 2.85 24.62 1.83 25.28 0.92L6.51 0.92C5.39 0.92 4.79 1.52 4.79 2.63L4.79 25.56C4.78 25.68 4.78 25.78 4.78 25.92L4.78 25.93ZM0.82 26.94C0.66 28.19 1.3 28.92 2.51 28.92L21.28 28.92C20.89 28.34 20.71 27.64 20.77 26.94L0.82 26.94ZM28.76 2.91C28.88 2.11 28.63 1.49 28.06 1.14C27.81 0.99 27.52 0.92 27.23 0.94C26.93 0.95 26.65 1.05 26.42 1.23C26.17 1.42 25.98 1.68 25.88 1.98C25.77 2.28 25.77 2.6 25.85 2.91L28.76 2.91Z" fill="#FFFFFF" fill-opacity="1.000000" fill-rule="nonzero"/>
		<path id="Vector" d="M21.79 23.1L21.79 24.33C21.79 24.55 21.74 24.74 21.53 24.86C21.32 24.98 21.13 24.92 20.93 24.8C20.62 24.57 20.3 24.38 19.99 24.15C19.84 24.05 19.75 24.04 19.59 24.14C19.27 24.37 18.94 24.57 18.62 24.79C18.44 24.92 18.22 24.99 18.05 24.84C17.92 24.72 17.79 24.51 17.78 24.33C17.76 23.51 17.78 22.68 17.77 21.87C17.77 21.75 17.71 21.59 17.62 21.5C17.19 21.04 16.92 20.47 16.83 19.85C16.74 19.24 16.85 18.61 17.13 18.05C17.41 17.5 17.86 17.05 18.42 16.76C18.97 16.47 19.6 16.36 20.21 16.45C20.83 16.54 21.4 16.81 21.85 17.24C22.3 17.66 22.6 18.22 22.72 18.83C22.81 19.29 22.8 19.78 22.67 20.24C22.54 20.7 22.3 21.12 21.98 21.47C21.87 21.59 21.8 21.78 21.79 21.95C21.77 22.34 21.79 22.72 21.79 23.1ZM21.79 19.42C21.79 19.16 21.73 18.9 21.63 18.65C21.53 18.41 21.38 18.19 21.2 18.01C21.01 17.82 20.79 17.67 20.55 17.57C20.31 17.47 20.04 17.42 19.78 17.42C19.52 17.42 19.26 17.47 19.02 17.58C18.77 17.68 18.55 17.82 18.37 18.01C18.18 18.2 18.04 18.42 17.94 18.66C17.83 18.9 17.78 19.16 17.78 19.43C17.79 19.95 18.01 20.46 18.38 20.83C18.76 21.2 19.27 21.41 19.79 21.42C20.06 21.42 20.32 21.37 20.56 21.27C20.8 21.17 21.02 21.02 21.21 20.83C21.39 20.65 21.54 20.43 21.64 20.18C21.74 19.94 21.79 19.68 21.79 19.42ZM18.79 23.48L19.45 23.06C19.68 22.89 19.9 22.9 20.15 23.06L20.77 23.47L20.77 22.27C20.11 22.49 19.46 22.47 18.8 22.27C18.79 22.68 18.79 23.05 18.79 23.48ZM6.8 14.9L6.8 13.94L22.76 13.94L22.76 14.9L6.81 14.9L6.8 14.9ZM22.78 7.94L22.78 8.9L6.82 8.9L6.82 7.94L22.78 7.94ZM6.81 11.91L6.81 10.94L17.76 10.94L17.76 11.91L6.81 11.91ZM17.77 4.94L17.77 5.9L11.31 5.9L11.31 4.94L17.77 4.94L17.77 4.94ZM6.8 17.9L6.8 16.94L12.77 16.94L12.77 17.9L6.8 17.9ZM22.77 10.95L22.77 11.91L19.81 11.91L19.81 10.95L22.77 10.95ZM9.28 19.43L9.28 20.43L6.81 20.43L6.81 19.43L9.28 19.43L9.28 19.43ZM11.3 20.41L11.3 19.45L12.77 19.45L12.77 20.41L11.3 20.41Z" fill="#FFFFFF" fill-opacity="1.000000" fill-rule="nonzero"/>
	</g>
</svg>
