<svg width="30.000000" height="29.000000" viewBox="0 0 30 29" fill="none" xmlns="http://www.w3.org/2000/svg" xmlns:xlink="http://www.w3.org/1999/xlink">
	<desc>
			Created with Pixso.
	</desc>
	<defs/>
	<path id="Vector" d="M29.65 23.25C29.61 23.48 29.56 23.7 29.51 23.93C29.24 25.08 28.63 26.13 27.74 26.91C26.86 27.7 25.75 28.19 24.57 28.31C22.11 28.55 19.84 27.23 18.82 24.97L18.72 24.77C15.14 26.36 11.51 26.48 7.9 24.97C5.08 23.83 2.77 21.72 1.36 19.03C-1.44 13.84 -0.48 7.2 4.11 2.96C8.59 -1.17 16.12 -1.93 21.5 2.5C21.98 2.01 22.59 1.66 23.27 1.52C23.94 1.37 24.64 1.43 25.28 1.68C25.92 1.94 26.48 2.37 26.87 2.94C27.26 3.51 27.47 4.18 27.48 4.87C27.52 7.81 27.49 10.75 27.49 13.7C27.49 14.04 27.31 14.23 27.03 14.22C26.77 14.21 26.61 14.03 26.61 13.7L26.61 5.06C26.62 4.37 26.36 3.7 25.88 3.2C25.4 2.7 24.74 2.42 24.04 2.4C23.35 2.39 22.68 2.66 22.18 3.14C21.68 3.62 21.4 4.28 21.38 4.97C21.37 5.64 21.38 6.3 21.38 6.95L21.39 18.24C21.39 18.54 21.29 18.74 21.06 18.92C20.24 19.57 19.66 20.46 19.4 21.46C19.14 22.46 19.21 23.52 19.6 24.48C19.99 25.44 20.68 26.25 21.56 26.79C22.45 27.32 23.49 27.56 24.52 27.45C25.55 27.34 26.52 26.89 27.27 26.18C28.02 25.47 28.53 24.53 28.7 23.5C28.86 22.65 28.78 21.77 28.47 20.96C28.16 20.15 27.63 19.45 26.95 18.92C26.71 18.73 26.6 18.54 26.61 18.23C26.63 17.37 26.62 16.51 26.62 15.66C26.62 15.3 26.78 15.1 27.06 15.1C27.33 15.1 27.49 15.3 27.49 15.67C27.49 16.45 27.48 17.23 27.49 18C27.49 18.11 27.56 18.26 27.65 18.35C28.73 19.26 29.42 20.55 29.61 21.95C29.61 22.01 29.63 22.08 29.66 22.15L29.65 23.25ZM11.91 0.42L10.98 0.55C8.54 0.97 6.29 2.11 4.5 3.82C2.71 5.53 1.47 7.73 0.94 10.15C0.89 10.4 0.94 10.57 1.09 10.75C2.75 12.78 4.18 14.97 5.36 17.31C5.66 17.92 5.97 18.52 6.21 19.16C6.77 20.7 7.28 22.26 7.83 23.81C7.87 23.92 7.98 24.06 8.09 24.11C9.51 24.74 11.04 25.1 12.6 25.15C12.79 25.15 12.87 25.12 12.91 24.92C13.23 23.36 13.56 21.81 13.88 20.27C14.07 19.4 13.92 18.59 13.41 17.85C13.31 17.71 13.21 17.55 13.12 17.42C12.86 16.98 12.48 16.61 12.03 16.37C11.58 16.12 11.07 16 10.56 16.01L8.78 16.01C6.7 16.05 4.72 14.33 4.36 12.52C4.2 11.69 3.98 10.85 3.82 10.02C3.74 9.72 3.76 9.4 3.86 9.11C3.96 8.82 4.14 8.56 4.38 8.37C4.54 8.23 4.71 8.09 4.87 7.95C5.05 7.8 5.26 7.71 5.49 7.68C5.72 7.66 5.95 7.71 6.15 7.82C6.94 8.2 7.58 7.93 7.88 7.1C8.03 6.68 8.17 6.26 8.35 5.84C8.45 5.61 8.69 5.53 8.91 5.62C9.12 5.71 9.23 5.94 9.15 6.17C8.97 6.68 8.8 7.19 8.59 7.67C8.49 7.91 8.34 8.12 8.16 8.3C7.98 8.48 7.77 8.62 7.53 8.72C7.29 8.82 7.04 8.87 6.78 8.86C6.53 8.86 6.27 8.81 6.04 8.71C5.64 8.54 5.39 8.59 5.13 8.88C5.1 8.91 5.07 8.94 5.04 8.96C4.69 9.21 4.61 9.54 4.69 9.94L5.21 12.26C5.39 13.02 5.79 13.7 6.37 14.21C6.95 14.72 7.68 15.03 8.44 15.11C9.12 15.17 9.79 15.12 10.46 15.14C10.83 15.15 11.22 15.17 11.58 15.26C13.3 15.7 14.12 17.05 14.7 18.56C14.91 19.08 14.89 19.65 14.78 20.21C14.58 21.23 14.36 22.24 14.15 23.27L13.77 25.11L13.91 25.13C15.44 25.03 16.92 24.65 18.3 23.98C18.37 23.95 18.43 23.77 18.41 23.68C18.24 22.74 18.32 21.77 18.64 20.87C18.76 20.55 18.76 20.29 18.6 20C18.26 19.4 18.14 18.7 18.26 18.02C18.49 16.78 19.36 15.99 20.3 15.26C20.43 15.15 20.51 15.07 20.51 14.9L20.5 8.6C20.5 8.52 20.48 8.44 20.48 8.35C19.99 8.55 19.77 8.94 19.83 9.42C19.88 9.97 20.04 10.53 19.86 11.09C19.72 11.49 19.62 11.88 19.51 12.26C19.42 12.58 19.25 12.87 19.02 13.1C18.79 13.33 18.5 13.5 18.18 13.59C17.97 13.64 17.75 13.71 17.53 13.76C17.14 13.86 16.73 13.83 16.36 13.66C16.11 13.55 15.86 13.41 15.61 13.27C15.3 13.12 15.03 12.87 14.85 12.57C14.67 12.27 14.57 11.92 14.58 11.57C14.55 10.1 14.74 8.65 15.35 7.3C15.84 6.21 16.43 5.13 17.06 4.1C17.56 3.29 17.87 2.48 17.76 1.53C17.74 1.35 17.71 1.26 17.54 1.22C16.68 0.99 15.83 0.7 14.95 0.53C14.25 0.4 13.53 0.4 12.78 0.34C12.9 0.92 13.01 1.44 13.1 1.95C13.2 2.45 13.13 2.97 12.91 3.43C12.69 3.89 12.34 4.27 11.89 4.51C11.39 4.79 10.87 5.03 10.35 5.28C10.24 5.32 10.08 5.36 9.99 5.32C9.85 5.24 9.75 5.12 9.7 4.97C9.63 4.75 9.75 4.59 9.95 4.5C10.43 4.26 10.93 4.02 11.41 3.77C11.71 3.63 11.95 3.4 12.1 3.11C12.26 2.81 12.31 2.48 12.25 2.16C12.15 1.59 12.03 1.04 11.91 0.43L11.91 0.42ZM18.7 1.69L18.63 1.75L18.63 2.21C18.67 2.82 18.51 3.42 18.17 3.92C17.68 4.7 17.23 5.51 16.77 6.3C15.99 7.72 15.53 9.29 15.45 10.91C15.39 11.84 15.66 12.44 16.54 12.78C17.07 12.99 18.06 12.86 18.44 12.43C18.52 12.35 18.59 12.24 18.63 12.13C18.89 11.31 19.17 10.5 18.99 9.58C18.79 8.57 19.35 7.75 20.32 7.45C20.49 7.41 20.51 7.33 20.51 7.19L20.51 6.13C20.51 5.14 20.41 4.12 21 3.17C20.21 2.68 19.46 2.17 18.7 1.68L18.7 1.69ZM6.78 23.41C5.97 21.3 5.43 19.19 4.36 17.25C3.33 15.32 2.11 13.48 0.73 11.77C0.29 15.93 2.37 20.85 6.78 23.41ZM19.31 19.41L20.43 18.28C20.46 18.25 20.5 18.19 20.5 18.14L20.5 16.23L20.41 16.19C20.04 16.65 19.61 17.09 19.31 17.6C19.16 17.88 19.07 18.19 19.07 18.51C19.07 18.82 19.16 19.14 19.31 19.41L19.31 19.41Z" fill="#FFFFFF" fill-opacity="1.000000" fill-rule="nonzero"/>
</svg>
