<svg width="30.000000" height="29.000000" viewBox="0 0 30 29" fill="none" xmlns="http://www.w3.org/2000/svg" xmlns:xlink="http://www.w3.org/1999/xlink">
	<desc>
			Created with Pixso.
	</desc>
	<defs/>
	<path id="Vector" d="M29.79 15.61C29.67 16.52 29.15 17.24 28.7 18.01C27.35 20.29 26 22.58 24.67 24.86C24.43 25.3 24.1 25.67 23.7 25.95C23.3 26.23 22.84 26.41 22.35 26.48C22.09 26.52 21.83 26.52 21.56 26.52L18.29 26.52L18.29 27.02C18.29 27.34 18.29 27.66 18.28 27.98C18.28 28.21 18.17 28.4 17.94 28.48C17.7 28.56 17.5 28.48 17.35 28.28L17.26 28.16L12.51 21.98C12.19 21.56 12.2 21.4 12.55 21.02L17.06 16.06L17.36 15.74C17.52 15.55 17.72 15.47 17.96 15.56C18.19 15.65 18.27 15.86 18.27 16.08C18.28 16.52 18.27 16.98 18.27 17.42L18.27 17.99L22.89 17.99L22.74 17.69L20.93 14.42C20.68 13.97 20.73 13.75 21.19 13.48L26.87 10.16C27.32 9.9 27.56 9.97 27.79 10.43C28.3 11.45 28.82 12.46 29.32 13.49C29.51 13.9 29.62 14.34 29.78 14.77L29.79 15.61L29.79 15.61ZM13.43 21.55C14.71 23.21 15.97 24.84 17.27 26.54L17.29 26.32C17.3 25.63 17.41 25.52 18.1 25.52L21.79 25.52C22.69 25.52 23.36 25.12 23.81 24.35L26.75 19.31L26.91 19.01L17.97 19.01C17.45 19.01 17.31 18.87 17.3 18.35L17.3 17.41C17.28 17.4 17.26 17.39 17.24 17.38L13.43 21.55L13.43 21.55ZM27.09 11.23L21.97 14.21C22.66 15.47 23.33 16.67 24.01 17.88C24.05 17.96 24.19 18.01 24.29 18.01C25.3 18.02 26.3 18.02 27.31 18.01C27.41 18.01 27.55 17.93 27.61 17.86C27.89 17.44 28.15 17 28.41 16.57C28.82 15.87 28.95 15.12 28.63 14.38C28.15 13.31 27.61 12.29 27.09 11.23ZM24.41 4.17C25.09 3.83 25.75 3.5 26.4 3.16C26.65 3.04 26.89 2.96 27.13 3.17C27.37 3.4 27.28 3.65 27.16 3.91L23.74 10.96C23.56 11.33 23.43 11.39 23 11.35C20.68 11.08 18.35 10.82 16.01 10.57L15.78 10.54C15.53 10.51 15.36 10.4 15.3 10.13C15.26 9.89 15.36 9.71 15.58 9.57L17.62 8.35C16.86 6.9 16.1 5.46 15.34 4.01C15.26 4.12 15.2 4.21 15.16 4.3L13.33 7.57C13.03 8.09 12.83 8.15 12.32 7.84C10.62 6.76 8.92 5.66 7.21 4.58C6.71 4.27 6.67 4.07 6.98 3.56L8.35 1.34C8.65 0.8 9.09 0.34 9.63 0.02C10.17 -0.29 10.78 -0.46 11.41 -0.46C14.29 -0.47 17.15 -0.47 20.02 -0.43C21.11 -0.42 21.97 0.12 22.54 1.04C23.14 1.97 23.66 2.93 24.22 3.89C24.28 3.97 24.34 4.06 24.41 4.17ZM25.67 4.66L24.62 5.19C24.15 5.42 23.96 5.37 23.69 4.91C23.09 3.89 22.49 2.87 21.91 1.85C21.7 1.43 21.37 1.08 20.96 0.85C20.55 0.61 20.08 0.5 19.61 0.53C18.07 0.55 16.52 0.53 14.98 0.53L14.65 0.53L14.82 0.88L18.62 8.08C18.9 8.61 18.84 8.78 18.32 9.1C18.02 9.28 17.71 9.46 17.34 9.69L17.71 9.75C19.37 9.94 21.04 10.12 22.69 10.33C22.9 10.35 22.98 10.28 23.05 10.1L25.54 4.97L25.66 4.67L25.67 4.66ZM12.6 6.82C13.29 5.59 13.97 4.35 14.65 3.11C14.69 3.05 14.67 2.92 14.64 2.84C14.28 2.12 13.93 1.41 13.56 0.7C13.53 0.65 13.49 0.61 13.44 0.58C13.39 0.55 13.34 0.54 13.28 0.53C12.62 0.51 11.96 0.51 11.29 0.53C10.52 0.56 9.88 0.89 9.44 1.51C8.92 2.27 8.47 3.05 7.96 3.85L12.6 6.82L12.6 6.82ZM9.04 14.2L6.54 18.53L10.12 18.53C10.61 18.53 10.78 18.7 10.78 19.21L10.78 25.85C10.78 26.35 10.61 26.53 10.11 26.51C9.31 26.51 8.51 26.55 7.71 26.45C7.16 26.39 6.64 26.19 6.19 25.87C5.74 25.56 5.37 25.14 5.12 24.65C3.71 22.22 2.29 19.78 0.89 17.33C0.58 16.82 0.41 16.24 0.39 15.64C0.37 15.04 0.51 14.44 0.79 13.91C1.34 12.77 1.91 11.64 2.49 10.48L1.23 9.69L0.23 9.07C-0.02 8.92 -0.25 8.76 -0.19 8.41C-0.14 8.15 0.04 8.03 0.5 8C1.57 7.93 2.64 7.87 3.71 7.81L7.95 7.53C8.53 7.49 8.62 7.53 8.86 8.05L11.65 14.1C11.69 14.16 11.71 14.22 11.74 14.29C11.82 14.5 11.8 14.69 11.65 14.86C11.48 15.02 11.29 15.05 11.08 14.96C10.4 14.72 9.74 14.47 9.04 14.2ZM1.99 8.92L1.97 8.98L3.23 9.77C3.69 10.05 3.74 10.23 3.5 10.71L1.72 14.27C1.27 15.18 1.3 16.07 1.81 16.95C2.51 18.15 3.19 19.35 3.89 20.54L4.07 20.81L4.25 20.51L8.25 13.57C8.55 13.03 8.68 12.99 9.27 13.21C9.61 13.34 9.95 13.47 10.29 13.6L10.23 13.44L8.06 8.74C7.99 8.58 7.91 8.55 7.75 8.56L5.56 8.69L1.99 8.93L1.99 8.92ZM9.77 25.53L9.77 19.53C8.56 19.53 7.39 19.53 6.2 19.54C6.13 19.54 6.02 19.63 5.96 19.7C5.55 20.36 5.14 21.03 4.74 21.7C4.69 21.78 4.7 21.93 4.74 22.01L6.01 24.22C6.28 24.69 6.69 25.06 7.18 25.28C8.02 25.67 8.89 25.47 9.76 25.53L9.77 25.53Z" fill="#FFFFFF" fill-opacity="1.000000" fill-rule="nonzero"/>
</svg>
