<svg width="50.000000" height="50.000000" viewBox="0 0 50 50" fill="none" xmlns="http://www.w3.org/2000/svg" xmlns:xlink="http://www.w3.org/1999/xlink">
	<desc>
			Created with Pixso.
	</desc>
	<defs/>
	<path id="Vector" d="M24.84 -0.07C31.24 -0.07 37.64 2.4 42.48 7.28C44.8 9.6 46.65 12.35 47.9 15.39C49.16 18.42 49.8 21.67 49.79 24.96C49.8 28.24 49.15 31.49 47.9 34.53C46.64 37.56 44.8 40.32 42.48 42.64C40.15 44.96 37.4 46.79 34.36 48.04C31.33 49.3 28.07 49.94 24.79 49.93C21.51 49.94 18.25 49.3 15.22 48.04C12.18 46.79 9.43 44.96 7.1 42.64C4.78 40.32 2.94 37.56 1.68 34.53C0.43 31.49 -0.22 28.24 -0.21 24.96C-0.21 18.56 2.26 12.16 7.15 7.23C9.47 4.9 12.23 3.06 15.27 1.81C18.3 0.56 21.56 -0.08 24.84 -0.07ZM33.3 22.37L26.93 18.32L20.61 14.32C20.33 14.13 20.01 14.01 19.68 13.95C19.34 13.9 19 13.92 18.68 14.02C18.06 14.22 17.49 14.65 17.14 15.32C17.04 15.46 17 15.62 16.94 15.79L16.88 16C16.85 16.08 16.84 16.17 16.83 16.27C16.83 16.35 16.81 16.44 16.79 16.54L16.79 33.13C16.79 33.86 17.06 34.56 17.54 35.11C18.02 35.64 18.64 35.93 19.34 35.93C19.74 35.93 20.57 35.54 20.79 35.4L27.02 31.44L27.06 31.44L27.11 31.39L33.56 27.29C34.17 26.89 34.6 26.27 34.75 25.56C34.79 25.41 34.79 25.22 34.79 25.03C34.79 23.43 33.29 22.37 33.29 22.37L33.3 22.37Z" fill="#FFFFFF" fill-opacity="1.000000" fill-rule="evenodd"/>
</svg>
