<svg width="40.000000" height="70.000000" viewBox="0 0 40 70" fill="none" xmlns="http://www.w3.org/2000/svg" xmlns:xlink="http://www.w3.org/1999/xlink">
	<desc>
			Created with Pixso.
	</desc>
	<defs>
		<clipPath id="clip2212_455">
			<rect id="Centum3_opt.svg" width="40.000000" height="61.538460" transform="translate(-0.205078 4.082031)" fill="white" fill-opacity="0"/>
		</clipPath>
		<clipPath id="clip2212_454">
			<rect id="Centum3_opt.svg fill" width="40.000000" height="70.000000" transform="translate(-0.205078 -0.148438)" fill="white" fill-opacity="0"/>
		</clipPath>
		<clipPath id="clip2212_453">
			<rect id="Centum3_opt.svg" width="40.000000" height="70.000000" transform="translate(-0.205078 -0.148438)" fill="white" fill-opacity="0"/>
		</clipPath>
	</defs>
	<g clip-path="url(#clip2212_453)">
		<g clip-path="url(#clip2212_454)">
			<g clip-path="url(#clip2212_455)">
				<mask id="mask2212_464" mask-type="alpha" maskUnits="userSpaceOnUse" x="-0.205078" y="4.082031" width="40.000000" height="61.538574">
					<path id="Vector" d="M-0.21 4.08L39.79 4.08L39.79 65.62L-0.21 65.62L-0.21 4.08Z" fill="#000000" fill-opacity="1.000000" fill-rule="nonzero"/>
				</mask>
				<g mask="url(#mask2212_464)">
					<path id="Vector" d="M17.72 4.08L16.27 4.08L16.27 27.82L17.72 27.82L17.72 4.08ZM33.71 4.08L32.25 4.08L32.25 27.82L33.71 27.82L33.71 4.08ZM23.22 4.08L21.77 4.08L21.77 27.82L23.22 27.82L23.22 4.08ZM28.06 4.08L26.6 4.08L26.6 27.82L28.06 27.82L28.06 4.08Z" fill="#00171F" fill-opacity="1.000000" fill-rule="nonzero"/>
					<path id="Vector" d="M32.32 25.62L17.37 25.62L17.37 27.81L32.32 27.81L32.32 25.62Z" fill="#00171F" fill-opacity="1.000000" fill-rule="nonzero"/>
					<path id="Vector" d="M38.16 27.06L38.16 21.43L36.75 20.82L36.75 26.95L38.16 27.06ZM35.78 31.25L35.89 31.24L35.98 31.22L36.07 31.18L36.16 31.14L36.23 31.08L36.29 31.01L36.37 30.9L37.11 29.38L37.11 27.77L38.94 27.9L38.94 21.51L38.93 21.4L38.92 21.29L38.88 21.18L38.84 21.08L38.78 20.98L38.71 20.9L38.62 20.82L38.53 20.76L38.42 20.71L38.32 20.66L35.96 19.63L35.96 26.77L35.95 26.88L35.93 27L35.89 27.11L35.83 27.21L35.77 27.3L35.7 27.39L35.61 27.47L35.52 27.54L35.42 27.59L35.31 27.62L35.31 28.45L35.67 28.45L35.76 28.47L35.84 28.5L35.93 28.55L36 28.6L36.06 28.67L36.12 28.74L36.17 28.83L36.2 28.91L36.22 29.01L36.22 29.09L36.2 29.19L36.17 29.27L36.13 29.36L36.14 29.36L35.61 30.44L35.42 30.44L35.26 30.45L35.19 30.47L35.12 30.5L35.06 30.54L35.01 30.59L34.97 30.66L34.94 30.73L34.92 30.81L34.92 30.88L34.94 30.96L34.97 31.03L35.01 31.1L35.06 31.15L35.12 31.19L35.19 31.23L35.26 31.24L35.34 31.25L35.78 31.25ZM35.96 20.54L33.77 18.74L33.76 18.7L33.75 18.67L33.76 18.62L33.77 18.59L33.81 18.56L33.84 18.55L33.87 18.55L33.92 18.56L35.95 19.62L35.97 19.63L35.97 20.54L35.96 20.54ZM35.96 22.61L34.28 21.73L34.24 21.73L34.2 21.73L34.16 21.75L34.13 21.78L34.11 21.82L34.1 21.86L34.11 21.9L34.14 21.93L35.95 23.3L35.95 22.61L35.96 22.61Z" fill="#00171F" fill-opacity="1.000000" fill-rule="evenodd"/>
					<path id="Vector" d="M39.03 28.18L39.03 28.18L39.02 28.12L39 28.05L38.99 28.03L38.9 27.94L38.87 27.92L38.82 27.91L38.75 27.9L37.19 27.9C37.18 27.9 37.16 27.9 37.15 27.91L37.14 27.91L37.07 27.93L37.06 27.94L37.02 27.97L37 27.99L36.98 28.03L36.95 28.09L36.95 28.11C36.94 28.13 36.93 28.14 36.93 28.16L36.93 28.93C36.93 28.95 36.94 28.97 36.95 28.98L36.96 29.01L37 29.05L37.05 29.06C37.06 29.06 37.06 29.06 37.06 29.07C37.07 29.07 37.07 29.07 37.08 29.07L37.75 29.07C37.76 29.07 37.76 29.07 37.77 29.07L37.79 29.08L37.8 29.1C37.8 29.11 37.8 29.11 37.8 29.11L37.8 30.65C37.8 30.66 37.79 30.67 37.8 30.68L37.79 30.74L37.77 30.8L37.75 30.86L37.65 30.95L37.6 30.98L37.54 30.99L37.47 31C37.46 31 37.45 31.01 37.44 31.01L35.77 31.01L35.68 31C35.52 30.97 35.39 30.88 35.3 30.75C35.22 30.62 35.19 30.47 35.23 30.32L35.27 30.23L35.27 30.22L35.28 30.18L35.28 30.18L35.33 30.06L35.38 29.93L35.42 29.8L35.45 29.66L35.46 29.53L35.48 29.39L35.48 28.09C35.48 28.08 35.48 28.08 35.47 28.08L35.47 28.07L35.47 28.07L35.45 28.02L35.41 27.98L35.36 27.96L35.36 27.96L35.35 27.96C35.35 27.96 35.35 27.96 35.34 27.96L34.51 27.96C34.5 27.96 34.5 27.96 34.5 27.96L34.49 27.96L34.47 27.97L34.45 27.98L34.42 27.99L34.41 28.01L34.39 28.04L34.38 28.07L34.38 28.08C34.37 28.09 34.37 28.11 34.37 28.12L34.56 29.12L34.56 29.4C34.56 29.4 34.55 29.4 34.55 29.41L34.55 29.43L34.52 29.44C34.52 29.44 34.52 29.44 34.51 29.44L24.31 29.44C24.29 29.44 24.27 29.45 24.26 29.46L24.19 29.53L24.12 29.46C24.11 29.45 24.09 29.44 24.07 29.44L17.68 29.44L13.59 30.16C13.58 30.16 13.57 30.15 13.56 30.15L13.48 30.15C13.29 30.1 13.21 30.03 13.16 29.85L13.15 29.77L13.15 24.27C13.15 24.26 13.16 24.25 13.16 24.25L13.17 24.21L13.18 24.17L13.2 24.14L13.22 24.13L13.26 24.12L13.3 24.11C13.3 24.11 13.31 24.11 13.32 24.1L13.6 24.1C13.62 24.1 13.64 24.1 13.65 24.08L13.67 24.07L13.71 24.03L13.72 24.01C13.74 24 13.75 23.98 13.75 23.96L13.75 23C13.75 22.98 13.74 22.97 13.73 22.96L13.72 22.93L13.68 22.89L13.67 22.88L13.65 22.87C13.65 22.87 13.65 22.87 13.65 22.87C13.64 22.87 13.64 22.86 13.64 22.86L13.63 22.86L13.21 22.75L13.21 22.75C13.2 22.75 13.2 22.75 13.2 22.75L13.16 22.75L13.14 22.75L13.11 22.76L13.09 22.77L13.07 22.79L13.06 22.81C13.05 22.81 13.04 22.82 13.04 22.83C13.03 22.84 13.03 22.85 13.03 22.86L13.03 23.24C13.02 23.25 13.02 23.25 13.02 23.25L13.01 23.28L13.01 23.28L12.86 23.25L12.86 23.25C12.58 23.22 12.22 23.03 12.03 22.81L11.92 22.69L11.88 22.63L11.85 22.57L11.8 22.44L11.78 22.29C11.78 22.28 11.78 22.27 11.78 22.26L11.78 21.29L11.78 21.25L11.8 21.21L11.82 21.17L11.84 21.15L11.88 21.13L11.93 21.12C11.93 21.11 11.94 21.11 11.94 21.11L12.58 20.98L13 20.98L13.01 20.98L13.02 21C13.02 21.01 13.02 21.01 13.02 21.02L13.02 21.38C13.02 21.4 13.03 21.42 13.05 21.43L13.07 21.46L13.1 21.48L13.13 21.49L13.15 21.5L13.15 21.5C13.16 21.5 13.17 21.51 13.19 21.51C13.19 21.51 13.2 21.51 13.21 21.5L13.64 21.39C13.65 21.38 13.67 21.37 13.67 21.36L13.68 21.35L13.72 21.32L13.73 21.29C13.74 21.28 13.75 21.26 13.75 21.24L13.75 20.21C13.75 20.19 13.74 20.17 13.72 20.16L13.71 20.14L13.67 20.1L13.65 20.09C13.64 20.08 13.62 20.07 13.6 20.07L12.1 20.07C12.09 20.07 12.09 20.07 12.09 20.07L0.43 22.52L0.42 22.52L0.32 22.55L0.32 22.55C0.02 22.68 -0.16 22.9 -0.2 23.2L-0.21 23.3L-0.21 36.29L-0.2 36.39L-0.2 36.39C-0.16 36.69 0.02 36.91 0.31 37.04L0.42 37.07L0.43 37.07L7 38.45C7 38.45 7.01 38.45 7.01 38.46L7.08 38.47C7.21 38.52 7.26 38.63 7.28 38.72L7.29 38.78C7.29 38.78 7.29 38.79 7.3 38.8L7.3 42.04C7.3 42.06 7.3 42.08 7.31 42.09L7.32 42.1L7.34 42.16L7.34 42.17L7.37 42.21L7.39 42.23L7.44 42.25L7.49 42.28L7.52 42.28C7.53 42.29 7.54 42.3 7.56 42.3L8.26 42.3C8.27 42.3 8.28 42.3 8.29 42.29L8.31 42.29L8.33 42.28L8.36 42.26L8.38 42.25L8.41 42.22L8.45 42.17L8.47 42.13L8.48 42.11L8.49 42.07C8.49 42.06 8.49 42.06 8.49 42.05L8.49 40.64C8.49 40.63 8.5 40.62 8.5 40.61L8.51 40.5L8.54 40.46L8.57 40.42L8.6 40.39L8.64 40.37L8.7 40.35L8.76 40.35C8.76 40.35 8.77 40.34 8.78 40.34L11.35 40.34C11.36 40.34 11.36 40.34 11.36 40.34L11.41 40.37L11.45 40.4L11.48 40.44L11.5 40.48L11.52 40.54L11.52 42.03C11.52 42.04 11.53 42.06 11.54 42.07L11.54 42.08L11.56 42.14L11.57 42.16L11.59 42.19L11.61 42.21L11.66 42.24L11.72 42.26L11.73 42.26C11.74 42.28 11.76 42.3 11.79 42.3L12.05 42.29C12.93 42.31 13.78 42.67 14.4 43.26L14.58 43.45C14.59 43.46 14.6 43.46 14.61 43.47L14.65 43.5L14.66 43.51L14.74 43.55L14.82 43.6L14.83 43.61L14.92 43.63L15.01 43.65L15.07 43.66C15.08 43.67 15.1 43.67 15.11 43.67L22.97 43.67C22.97 43.67 22.98 43.67 22.99 43.67C23 43.66 23.01 43.66 23.01 43.65L23.04 43.64L23.08 43.6L23.09 43.58C23.1 43.56 23.11 43.55 23.11 43.53L23.11 42.84L23.12 42.82L23.14 42.82C23.14 42.81 23.15 42.81 23.15 42.81L23.76 42.81C23.78 42.81 23.8 42.8 23.81 42.79L23.83 42.78L23.87 42.74L23.88 42.72C23.89 42.7 23.9 42.69 23.9 42.67L23.9 42.04C23.9 42.02 23.9 42.01 23.88 42L23.87 41.97L23.83 41.92L23.81 41.91C23.79 41.9 23.78 41.89 23.76 41.89L23.28 41.89C23.27 41.89 23.26 41.88 23.26 41.88L23.21 41.88L23.17 41.86L23.15 41.83L23.13 41.8L23.13 41.77L23.13 41.71L23.13 41.69L23.77 39.38C23.78 39.38 23.78 39.37 23.79 39.36L23.82 39.28C23.89 39.13 24.04 39.01 24.2 38.98L24.29 38.98L26.05 38.98C26.06 38.98 26.08 38.97 26.09 38.97L26.25 38.87L26.41 38.97C26.42 38.97 26.43 38.98 26.45 38.98L28.21 38.98L28.29 38.98C28.46 39 28.61 39.12 28.68 39.27L28.71 39.36L29.38 41.73C29.38 41.73 29.38 41.74 29.38 41.74L29.38 41.78L29.37 41.81L29.35 41.84L29.32 41.86L29.29 41.88L29.24 41.88C29.24 41.88 29.23 41.89 29.22 41.89L28.74 41.89C28.73 41.89 28.72 41.89 28.72 41.9C28.71 41.9 28.7 41.91 28.69 41.91L28.67 41.92L28.63 41.96L28.62 41.99C28.61 42 28.6 42.02 28.6 42.03L28.6 42.66C28.6 42.68 28.6 42.69 28.62 42.71L28.63 42.73L28.67 42.77L28.69 42.78C28.71 42.79 28.72 42.8 28.74 42.8L29.34 42.8C29.34 42.81 29.35 42.81 29.35 42.81L29.37 42.81L29.38 42.84C29.38 42.84 29.38 42.84 29.39 42.85L29.39 43.52C29.39 43.54 29.39 43.55 29.41 43.57L29.42 43.59L29.46 43.63L29.48 43.64C29.5 43.65 29.52 43.66 29.53 43.66L32.42 43.66C32.43 43.66 32.44 43.67 32.44 43.67L32.48 43.68L32.52 43.69L32.54 43.7L32.56 43.73L32.57 43.77L32.58 43.81C32.58 43.81 32.58 43.82 32.58 43.83L32.58 48.55C32.58 48.56 32.59 48.58 32.6 48.59L32.61 48.62L32.64 48.65C32.65 48.66 32.65 48.67 32.66 48.68C32.67 48.68 32.68 48.69 32.69 48.69L33.13 48.81C33.13 48.81 33.14 48.81 33.15 48.81C33.16 48.81 33.17 48.81 33.18 48.8L33.18 48.8L33.22 48.79L33.25 48.77L33.25 48.76L33.27 48.75L33.29 48.72L33.29 48.71C33.3 48.7 33.31 48.68 33.31 48.67L33.31 48.29L33.31 48.28L33.34 48.27C33.34 48.27 33.34 48.27 33.34 48.27L33.45 48.28C33.81 48.34 34.11 48.51 34.36 48.79L34.42 48.87C34.42 48.88 34.42 48.89 34.43 48.9L34.49 48.99L34.52 49.08L34.55 49.18L34.55 49.28C34.55 49.29 34.56 49.3 34.56 49.31L34.56 50.37C34.56 50.38 34.56 50.39 34.56 50.39L34.55 50.45L34.53 50.5L34.5 50.53L34.46 50.55L34.42 50.57L34.37 50.58L33.35 50.58C33.35 50.58 33.34 50.58 33.34 50.58L33.31 50.57L33.31 50.56L33.31 50.19C33.31 50.18 33.3 50.16 33.29 50.15L33.29 50.14L33.27 50.11L33.25 50.09L33.25 50.09L33.22 50.07L33.18 50.06L33.14 50.06C33.14 50.06 33.13 50.06 33.13 50.06L33.13 50.06L32.69 50.18C32.68 50.18 32.66 50.19 32.66 50.2L32.65 50.2L32.62 50.24L32.61 50.27C32.6 50.28 32.59 50.29 32.59 50.31L32.59 51.35C32.59 51.37 32.6 51.39 32.61 51.4L32.62 51.42L32.66 51.46L32.69 51.47C32.7 51.48 32.72 51.49 32.74 51.49L38.18 51.49C38.2 51.49 38.21 51.49 38.22 51.48L38.31 51.47L38.32 51.47C38.67 51.42 38.97 51.13 39.02 50.78L39.03 50.68C39.04 50.67 39.04 50.66 39.04 50.64L39.04 28.19C39.03 28.19 39.03 28.18 39.03 28.18ZM30.7 42.44C30.7 42.44 30.69 42.44 30.68 42.44L30.64 42.43L30.6 42.42L30.59 42.4L30.57 42.37L30.56 42.34L30.55 42.3C30.55 42.29 30.54 42.29 30.54 42.28L30.54 41.78C30.54 41.77 30.54 41.75 30.53 41.74L30.53 41.74C30.53 41.73 30.53 41.72 30.53 41.71L29.6 38.34C29.59 38.32 29.58 38.31 29.57 38.3L29.55 38.25C29.46 38.06 29.27 37.91 29.07 37.88L29 37.87C28.98 37.86 28.97 37.86 28.96 37.86L27.55 37.86L27.52 37.84L27.5 37.81L27.5 37.3C27.5 37.29 27.5 37.27 27.49 37.26L27.49 37.22L27.47 37.14L27.46 37.13L27.43 37.06L27.41 37.04L27.31 36.93L27.29 36.92L27.21 36.89L27.2 36.88L27.13 36.86L27.08 36.86C27.07 36.85 27.06 36.84 27.04 36.84L26.71 36.84C26.7 36.84 26.7 36.84 26.7 36.85L26.69 36.85L26.64 36.86L26.6 36.9L26.58 36.96C26.58 36.96 26.58 36.97 26.58 36.98L26.58 37.81C26.57 37.82 26.57 37.82 26.57 37.83L26.56 37.85L26.54 37.86C26.54 37.86 26.53 37.86 26.53 37.86L25.97 37.86C25.96 37.86 25.96 37.86 25.95 37.86L25.93 37.85L25.92 37.83C25.92 37.82 25.92 37.82 25.92 37.81L25.92 36.98C25.92 36.96 25.91 36.95 25.89 36.93L25.89 36.91L25.85 36.87L25.79 36.85L25.79 36.85L25.79 36.85C25.78 36.85 25.78 36.85 25.78 36.85L25.45 36.85C25.44 36.85 25.43 36.85 25.41 36.86L25.37 36.86L25.29 36.88L25.28 36.89L25.21 36.92L25.19 36.94L25.08 37.04L25.07 37.06L25.03 37.13L25.03 37.14L25.01 37.22L25.01 37.26C25 37.27 24.99 37.29 24.99 37.3L24.99 37.82L24.98 37.83L24.96 37.85L24.95 37.86L23.53 37.86C23.51 37.86 23.5 37.87 23.49 37.87L23.42 37.88L23.42 37.88C23.21 37.91 23.02 38.06 22.94 38.25L22.91 38.31C22.91 38.32 22.9 38.33 22.9 38.34L21.95 41.71C21.95 41.72 21.95 41.73 21.95 41.74L21.95 41.75C21.95 41.76 21.94 41.77 21.94 41.78L21.94 42.28C21.94 42.29 21.94 42.3 21.94 42.3L21.93 42.34L21.91 42.38L21.9 42.41L21.88 42.42L21.84 42.43L21.8 42.44C21.79 42.44 21.78 42.44 21.78 42.45L18.89 42.45C18.88 42.44 18.88 42.44 18.87 42.44L18.83 42.43L18.79 42.42L18.77 42.41L18.76 42.38L18.74 42.34L18.73 42.3C18.73 42.3 18.73 42.29 18.73 42.28L18.73 41.53C18.73 41.53 18.72 41.52 18.72 41.51C18.72 41.51 18.72 41.51 18.72 41.51C18.72 41.5 18.72 41.5 18.72 41.5C18.72 41.5 18.72 41.5 18.71 41.49L18.71 41.49L18.7 41.48L18.7 41.46L18.66 41.42L18.63 41.41C18.62 41.4 18.6 41.39 18.58 41.39L18.15 41.39C18.14 41.39 18.13 41.39 18.12 41.39C18.11 41.4 18.11 41.4 18.1 41.41L18.07 41.42L18.03 41.46L18.02 41.49C18.01 41.5 18 41.52 18 41.53L18 42.28C18 42.29 18 42.3 17.99 42.3L17.99 42.34L17.97 42.38L17.96 42.4L17.94 42.42L17.9 42.43L17.86 42.44C17.85 42.44 17.84 42.44 17.84 42.44L15.48 42.44L15.4 42.41L15.37 42.4L15.36 42.38L15.34 42.33L15.33 42.3L15.33 31.21C15.33 31.2 15.33 31.2 15.34 31.19L15.35 31.15L15.35 31.13L15.39 31.08L15.41 31.07L15.45 31.05L17.56 30.68L17.6 30.68L17.64 30.69L17.68 30.71L17.7 30.73L17.71 30.76L17.72 30.81L17.72 31.01C17.72 31.03 17.73 31.04 17.74 31.05L17.75 31.08L17.79 31.12L17.84 31.14C17.85 31.14 17.85 31.14 17.85 31.14C17.85 31.14 17.86 31.14 17.86 31.14L18.33 31.14L18.39 31.12L18.43 31.08L18.44 31.03C18.44 31.03 18.44 31.03 18.45 31.03C18.45 31.02 18.45 31.02 18.45 31.01L18.45 30.8C18.45 30.8 18.45 30.79 18.45 30.78L18.46 30.74L18.48 30.7L18.49 30.68L18.52 30.67L18.55 30.65L18.59 30.64C18.6 30.64 18.61 30.64 18.61 30.64L22.94 30.64C22.95 30.64 22.95 30.64 22.96 30.64L23 30.65L23.04 30.66L23.06 30.68L23.08 30.7L23.09 30.74L23.1 30.78C23.1 30.79 23.1 30.79 23.1 30.8L23.1 30.88C23.1 30.9 23.11 30.92 23.13 30.93L23.13 30.96L23.17 31L23.2 31.01C23.21 31.02 23.23 31.03 23.25 31.03L23.56 31.03C23.58 31.03 23.6 31.02 23.61 31.01L23.64 31L23.68 30.96L23.69 30.93C23.7 30.92 23.71 30.9 23.71 30.89L23.71 30.8C23.71 30.8 23.72 30.79 23.72 30.78L23.72 30.74L23.74 30.7L23.75 30.69L23.78 30.67L23.81 30.65L23.85 30.65C23.86 30.65 23.87 30.64 23.87 30.64L24.52 30.64C24.52 30.64 24.53 30.65 24.54 30.65L24.58 30.65L24.62 30.67L24.64 30.68L24.65 30.71L24.67 30.74L24.67 30.78C24.68 30.79 24.68 30.8 24.68 30.8L24.68 30.89C24.68 30.89 24.68 30.9 24.68 30.91L24.7 30.96L24.74 31L24.77 31.01C24.78 31.02 24.8 31.03 24.81 31.03L25.14 31.03C25.16 31.03 25.18 31.02 25.19 31.01L25.21 31L25.25 30.96L25.27 30.9L25.27 30.9C25.27 30.89 25.27 30.89 25.27 30.88L25.27 30.8C25.27 30.79 25.28 30.79 25.28 30.78L25.29 30.74L25.3 30.7L25.32 30.67L25.34 30.66L25.38 30.65L25.42 30.64C25.42 30.64 25.43 30.64 25.44 30.63L29.64 30.63C29.65 30.64 29.65 30.64 29.66 30.64L29.7 30.65L29.74 30.66L29.76 30.68L29.78 30.7L29.79 30.74L29.8 30.78C29.8 30.78 29.8 30.79 29.8 30.8L29.8 31.01C29.8 31.02 29.81 31.04 29.83 31.05L29.83 31.08L29.87 31.12L29.93 31.14L29.93 31.14C29.93 31.14 29.94 31.14 29.94 31.14L30.39 31.14C30.4 31.14 30.4 31.14 30.4 31.14L30.41 31.13L30.46 31.12L30.5 31.08L30.51 31.05C30.52 31.04 30.53 31.02 30.53 31.01L30.53 30.77L30.54 30.73L30.55 30.7L30.56 30.67L30.59 30.65L30.62 30.64L30.67 30.63L33 30.63C33 30.64 33.01 30.64 33.02 30.64L33.06 30.65L33.1 30.66L33.12 30.67L33.13 30.7L33.15 30.74L33.16 30.78C33.16 30.79 33.16 30.79 33.16 30.8L33.16 42.28C33.16 42.28 33.16 42.29 33.16 42.3L33.15 42.34L33.13 42.37L33.12 42.4L33.09 42.41L33.06 42.43L33.02 42.44C33.01 42.44 33 42.44 33 42.44L30.7 42.44ZM8.65 39.23C8.65 39.23 8.64 39.23 8.63 39.22L8.59 39.22L8.56 39.2L8.53 39.18L8.51 39.16L8.5 39.13L8.49 39.09C8.49 39.08 8.49 39.07 8.49 39.06L8.49 36C8.49 36 8.49 35.99 8.49 35.98L8.5 35.94L8.52 35.91L8.53 35.88L8.55 35.87L8.59 35.86L8.63 35.85C8.64 35.85 8.64 35.84 8.65 35.84L11.47 35.84C11.48 35.84 11.48 35.85 11.49 35.85L11.53 35.86L11.57 35.87L11.59 35.88L11.61 35.91L11.62 35.94L11.63 35.98C11.63 35.99 11.63 36 11.64 36L11.64 39.07C11.63 39.07 11.63 39.08 11.63 39.09L11.62 39.13L11.61 39.16L11.59 39.19L11.57 39.2L11.53 39.22L11.49 39.22C11.48 39.23 11.48 39.23 11.47 39.23L8.65 39.23ZM4.29 36.54L4.24 36.54L1.21 35.9L1.18 35.89L1.16 35.88L1.12 35.83L1.1 35.77C1.1 35.76 1.1 35.75 1.1 35.75L1.1 29.55C1.1 29.55 1.1 29.54 1.1 29.53L1.11 29.5L1.12 29.46L1.14 29.44L1.17 29.42L1.2 29.41L1.24 29.4C1.25 29.4 1.26 29.39 1.26 29.39L4.24 29.39C4.25 29.39 4.25 29.4 4.26 29.4L4.3 29.41L4.34 29.42L4.36 29.43L4.38 29.46L4.39 29.5L4.4 29.53C4.4 29.54 4.4 29.55 4.41 29.55L4.41 36.39C4.4 36.39 4.4 36.4 4.4 36.41L4.39 36.45L4.37 36.49L4.35 36.51L4.32 36.53L4.29 36.54ZM1.16 23.72L1.18 23.71L1.22 23.69C1.23 23.69 1.23 23.68 1.24 23.68L4.24 23.05L4.29 23.05L4.33 23.06L4.36 23.08L4.38 23.11L4.4 23.14L4.41 23.19L4.41 23.21L4.41 28.71C4.41 28.71 4.41 28.72 4.41 28.73L4.4 28.77L4.39 28.8L4.37 28.83L4.34 28.84L4.31 28.86L4.27 28.87C4.26 28.87 4.25 28.87 4.25 28.87L1.26 28.87C1.26 28.87 1.25 28.87 1.24 28.87L1.2 28.86L1.16 28.85L1.14 28.83L1.13 28.8L1.11 28.77L1.11 28.73C1.1 28.72 1.1 28.72 1.1 28.71L1.1 23.85C1.1 23.84 1.1 23.84 1.11 23.83L1.11 23.79L1.12 23.77L1.16 23.72ZM5 22.91L5.02 22.9L5.06 22.88C5.06 22.88 5.06 22.88 5.06 22.88L7.77 22.3C7.78 22.3 7.79 22.31 7.79 22.31L7.83 22.31L7.87 22.32L7.9 22.34L7.93 22.36L7.94 22.39L7.95 22.44L7.96 22.46L7.96 28.71C7.96 28.71 7.95 28.72 7.95 28.73L7.94 28.77L7.93 28.8L7.91 28.83L7.89 28.84L7.85 28.86L7.81 28.86C7.81 28.87 7.8 28.87 7.79 28.87L5.1 28.87C5.1 28.87 5.09 28.86 5.08 28.86L5.04 28.86L5 28.84L4.98 28.83L4.97 28.8L4.95 28.77L4.95 28.73C4.94 28.72 4.94 28.71 4.94 28.71L4.94 23.04C4.94 23.04 4.95 23.03 4.95 23.02L4.95 22.98L4.96 22.96L5 22.91ZM12.56 31.32L12.56 31.37C12.55 31.38 12.56 31.39 12.56 31.4L11.67 35.19C11.66 35.2 11.66 35.21 11.66 35.22L11.65 35.24L11.63 35.26L11.61 35.28L11.59 35.3L11.53 35.31C11.52 35.32 11.51 35.32 11.51 35.32L8.65 35.32C8.65 35.32 8.64 35.32 8.63 35.31L8.59 35.31L8.56 35.29L8.53 35.27L8.51 35.26L8.5 35.22L8.49 35.18C8.49 35.17 8.49 35.16 8.49 35.16L8.49 29.55C8.49 29.55 8.49 29.54 8.49 29.53L8.5 29.5L8.52 29.46L8.53 29.43L8.55 29.42L8.59 29.41L8.63 29.4C8.64 29.4 8.65 29.39 8.65 29.39L11.79 29.39C11.79 29.39 11.8 29.4 11.81 29.4L11.85 29.41L11.88 29.42L11.91 29.44L11.92 29.46L11.94 29.5L11.94 29.53C11.95 29.54 11.95 29.55 11.95 29.55L11.95 30.21C11.95 30.22 11.96 30.24 11.96 30.25L11.97 30.34L11.97 30.35C12.01 30.66 12.18 30.97 12.4 31.13L12.48 31.19C12.49 31.21 12.49 31.22 12.5 31.23L12.53 31.26L12.56 31.29L12.56 31.32ZM11.95 28.71C11.95 28.71 11.95 28.72 11.95 28.73L11.94 28.76L11.92 28.8L11.91 28.83L11.89 28.84L11.85 28.85L11.81 28.86C11.8 28.86 11.79 28.87 11.79 28.87L8.65 28.87C8.64 28.87 8.64 28.86 8.63 28.86L8.59 28.85L8.56 28.84L8.53 28.83L8.52 28.8L8.5 28.76L8.49 28.73C8.49 28.72 8.49 28.71 8.49 28.71L8.49 22.29C8.49 22.29 8.49 22.28 8.49 22.27L8.5 22.23L8.51 22.21L8.55 22.16L8.57 22.15L8.6 22.14L10.66 21.7C10.67 21.7 10.67 21.7 10.68 21.7L10.71 21.7L10.74 21.71L10.76 21.72L10.79 21.73L10.81 21.75L10.82 21.78L10.83 21.8L10.84 21.83L10.84 21.84C10.84 21.84 10.84 21.84 10.84 21.85L10.84 21.85C10.84 21.85 10.84 21.85 10.84 21.86L10.84 22.27C10.84 22.28 10.85 22.29 10.85 22.3L10.86 22.43C10.9 22.99 11.21 23.46 11.73 23.78L11.84 23.83C11.84 23.85 11.85 23.86 11.86 23.87L11.9 23.89L11.92 23.92L11.93 23.95L11.94 24L11.95 24.02L11.95 28.71L11.95 28.71ZM5.06 36.72C5.06 36.72 5.06 36.72 5.06 36.71L5.02 36.7L5 36.69L4.96 36.64L4.94 36.58C4.94 36.57 4.94 36.56 4.93 36.56L4.93 29.55C4.94 29.55 4.94 29.54 4.94 29.53L4.95 29.5L4.96 29.46L4.98 29.44L5 29.42L5.04 29.41L5.08 29.4C5.08 29.4 5.09 29.39 5.1 29.39L7.79 29.39C7.8 29.39 7.8 29.4 7.81 29.4L7.85 29.41L7.89 29.42L7.91 29.43L7.93 29.46L7.94 29.5L7.95 29.53C7.95 29.54 7.95 29.55 7.96 29.55L7.96 37.13C7.95 37.14 7.95 37.15 7.95 37.16L7.94 37.2L7.92 37.24L7.9 37.26L7.87 37.28L7.83 37.29L7.8 37.29L5.06 36.72ZM13.07 41.23L12.87 41.19C12.86 41.18 12.85 41.18 12.85 41.17L12.81 41.15L12.78 41.14L12.74 41.09L12.73 41.03C12.73 41.02 12.72 41.02 12.72 41.01L12.72 39.84C12.72 39.82 12.71 39.81 12.7 39.79L12.69 39.74C12.66 39.56 12.51 39.37 12.33 39.3L12.29 39.28C12.29 39.27 12.28 39.25 12.26 39.25L12.24 39.23L12.2 39.19L12.17 39.15L12.17 39.13C12.17 39.11 12.17 39.1 12.16 39.09L12.16 35.4L13.06 31.58C13.07 31.57 13.07 31.57 13.07 31.56L13.09 31.52L13.11 31.49L13.14 31.47L13.18 31.45C13.19 31.45 13.19 31.44 13.2 31.44L14.61 31.2C14.61 31.2 14.62 31.2 14.63 31.2L14.67 31.2L14.71 31.21L14.75 31.23L14.77 31.25L14.78 31.28L14.79 31.33L14.8 31.35L14.8 41.74L14.68 41.81C14.64 41.83 14.6 41.84 14.56 41.84C14.52 41.84 14.48 41.83 14.45 41.8L14.4 41.77C13.98 41.52 13.58 41.36 13.07 41.23ZM18.55 41.51C18.55 41.52 18.56 41.52 18.56 41.52L18.58 41.53L18.59 41.55C18.59 41.55 18.59 41.56 18.6 41.56L18.6 42.25L18.13 42.25L18.13 41.56C18.14 41.56 18.14 41.55 18.14 41.55L18.15 41.53L18.17 41.52C18.17 41.52 18.18 41.52 18.18 41.51L18.55 41.51ZM37.55 32.03C37.56 32.03 37.56 32.03 37.57 32.03L37.61 32.04L37.65 32.05L37.67 32.07L37.69 32.1L37.7 32.13L37.71 32.17C37.71 32.18 37.71 32.18 37.72 32.19L37.72 42.28C37.71 42.29 37.71 42.29 37.71 42.3L37.7 42.34L37.69 42.37L37.67 42.4L37.65 42.42L37.61 42.43L37.57 42.44C37.56 42.44 37.56 42.44 37.55 42.44L36.23 42.44C36.23 42.44 36.22 42.44 36.21 42.44L36.18 42.43L36.14 42.41L36.11 42.4L36.1 42.37L36.08 42.34L36.08 42.3C36.07 42.29 36.07 42.28 36.07 42.28L36.07 32.16L36.08 32.12L36.09 32.09L36.1 32.06L36.13 32.05L36.16 32.04L36.21 32.03L37.55 32.03L37.55 32.03ZM35.41 32L35.46 32.02L35.48 32.03L35.5 32.06L35.52 32.08L35.54 32.11L35.54 32.14C35.54 32.15 35.54 32.16 35.54 32.17L35.54 42.28C35.54 42.29 35.54 42.29 35.54 42.3L35.53 42.34L35.52 42.37L35.5 42.4L35.48 42.42L35.44 42.43L35.4 42.44C35.39 42.44 35.39 42.44 35.38 42.44L33.87 42.44C33.87 42.44 33.86 42.44 33.85 42.44L33.81 42.43L33.77 42.42L33.75 42.4L33.74 42.37L33.72 42.34L33.71 42.3C33.71 42.29 33.71 42.29 33.71 42.28L33.71 30.8C33.71 30.8 33.71 30.79 33.71 30.78L33.72 30.74L33.74 30.71L33.75 30.68L33.77 30.66L33.81 30.65L33.85 30.64C33.86 30.64 33.87 30.64 33.87 30.64L34.02 30.64C34.03 30.64 34.04 30.64 34.05 30.64L34.12 30.65C34.23 30.67 34.33 30.76 34.37 30.88L34.38 30.95C34.38 30.96 34.38 30.97 34.39 30.98L34.42 31.1L34.42 31.1C34.56 31.51 34.89 31.83 35.28 31.95L35.38 31.98C35.39 31.99 35.4 32 35.41 32ZM33.84 43.07L33.85 43.03L33.86 43.01L33.88 42.99L33.92 42.98L33.96 42.97C33.97 42.97 33.98 42.97 33.98 42.97L37.55 42.97C37.55 42.97 37.56 42.97 37.57 42.97L37.61 42.98L37.65 42.99L37.67 43.01L37.68 43.03L37.7 43.07L37.71 43.11C37.71 43.11 37.71 43.12 37.71 43.13L37.71 46.7C37.71 46.71 37.71 46.71 37.71 46.72L37.7 46.76L37.68 46.8L37.67 46.82L37.64 46.84L37.61 46.85L37.57 46.86C37.56 46.86 37.55 46.86 37.55 46.86L33.98 46.86C33.98 46.86 33.97 46.86 33.96 46.86L33.92 46.85L33.88 46.84L33.86 46.83L33.85 46.8L33.83 46.76L33.83 46.72C33.82 46.71 33.82 46.71 33.82 46.7L33.82 43.13C33.82 43.12 33.83 43.12 33.83 43.11L33.84 43.07ZM33.91 47.51L33.89 47.49L33.88 47.48L33.88 47.45L33.89 47.43L33.9 47.41L33.93 47.39L33.95 47.39L37.58 47.39L37.61 47.4L37.65 47.41L37.67 47.42L37.69 47.45L37.71 47.49L37.71 47.53C37.71 47.53 37.72 47.54 37.72 47.55L37.72 50.11C37.72 50.11 37.71 50.12 37.71 50.13L37.71 50.17L37.69 50.2L37.67 50.23L37.65 50.24L37.61 50.26L37.57 50.26C37.57 50.27 37.56 50.27 37.55 50.27L35.61 50.27C35.6 50.27 35.6 50.26 35.59 50.26L35.55 50.26L35.51 50.24L35.49 50.23L35.47 50.2L35.46 50.17L35.45 50.13C35.45 50.12 35.45 50.11 35.44 50.11L35.44 49.27C35.44 49.26 35.44 49.25 35.43 49.23L35.41 49.1L35.41 49.09C35.29 48.37 34.78 47.79 34.1 47.57L33.95 47.54L33.91 47.51Z" fill="#00171F" fill-opacity="1.000000" fill-rule="nonzero"/>
					<path id="Vector" d="M31.68 47.06C31.65 47.03 31.61 47.01 31.57 46.99C31.53 46.98 31.49 46.97 31.45 46.97L29.95 46.97C29.94 46.96 29.93 46.96 29.91 46.96C29.77 46.96 29.65 47.08 29.65 47.22L29.65 48.1C29.65 48.13 29.68 48.16 29.71 48.16L30.53 48.16L30.53 49.78C30.53 49.96 30.38 50.11 30.19 50.11C30.18 50.11 30.17 50.11 30.16 50.12L28.39 50.12C28.16 50.12 27.95 49.97 27.88 49.76C27.88 49.75 27.88 49.74 27.88 49.73C27.86 49.64 27.87 49.55 27.91 49.47C27.91 49.46 27.91 49.46 27.91 49.45L27.97 49.32C27.98 49.31 27.99 49.3 27.99 49.29C28.12 49.02 28.19 48.72 28.19 48.42C28.19 48.4 28.19 48.39 28.18 48.38L28.18 47.11C28.18 47.08 28.15 47.05 28.12 47.05L27.12 47.05C27.1 47.05 27.08 47.06 27.07 47.07C27.07 47.08 27.06 47.09 27.06 47.09C27.06 47.1 27.06 47.11 27.06 47.12L27.25 48.22L27.25 48.54L15.58 48.54C15.55 48.54 15.52 48.57 15.52 48.61L15.52 49.08C15.52 49.11 15.55 49.14 15.58 49.14L16.24 49.14L16.24 49.26C16.24 49.26 16.24 49.27 16.24 49.27C16.18 49.81 15.74 50.24 15.19 50.27C15.18 50.27 15.18 50.27 15.18 50.27L13.42 50.27C13.41 50.27 13.41 50.27 13.41 50.27C12.85 50.24 12.4 49.8 12.35 49.25C12.35 49.24 12.35 49.23 12.35 49.23L12.35 49.14L13 49.14C13.03 49.14 13.06 49.11 13.06 49.08L13.06 48.61C13.06 48.57 13.03 48.54 13 48.54L10.11 48.54L6.13 49.24L6.12 49.24C6.07 49.24 6.02 49.23 5.96 49.22C5.91 49.2 5.87 49.18 5.83 49.14C5.75 49.07 5.7 48.97 5.7 48.86C5.7 48.85 5.7 48.84 5.69 48.83L5.69 42.36L6.23 42.36C6.26 42.36 6.29 42.33 6.29 42.3L6.29 41.24C6.29 41.18 6.25 41.12 6.18 41.11C6.17 41.11 6.17 41.11 6.16 41.11L5.77 41.01C5.77 41 5.75 41 5.74 41C5.7 40.99 5.65 41 5.62 41.03C5.6 41.05 5.58 41.07 5.57 41.1C5.57 41.11 5.56 41.13 5.56 41.14L5.56 41.56C5.56 41.56 5.56 41.56 5.55 41.56C5.12 41.52 4.72 41.3 4.46 40.95L4.44 40.94C4.36 40.82 4.31 40.68 4.31 40.53L4.31 39.51C4.3 39.43 4.36 39.35 4.44 39.33C4.44 39.33 4.45 39.32 4.45 39.32L4.95 39.22L5.55 39.22C5.56 39.22 5.56 39.23 5.56 39.23L5.56 39.59C5.56 39.6 5.56 39.61 5.57 39.62C5.57 39.65 5.59 39.68 5.61 39.71C5.64 39.74 5.68 39.75 5.72 39.75L5.72 39.75C5.73 39.75 5.74 39.75 5.74 39.75L6.19 39.63C6.2 39.63 6.2 39.63 6.21 39.62C6.26 39.59 6.29 39.54 6.29 39.49L6.29 38.37C6.29 38.34 6.26 38.31 6.23 38.31L4.63 38.31C4.63 38.31 4.62 38.31 4.62 38.31L0.48 39.18C0.47 39.17 0.46 39.17 0.45 39.18C0.08 39.26 -0.19 39.58 -0.2 39.95C-0.21 39.96 -0.21 39.97 -0.21 39.98L-0.21 65.41C-0.21 65.43 -0.2 65.45 -0.19 65.46C-0.15 65.56 -0.05 65.62 0.06 65.62L0.07 65.62L0.55 65.6C0.56 65.6 0.57 65.59 0.58 65.59C0.72 65.57 0.85 65.52 0.95 65.43C0.96 65.42 0.97 65.42 0.98 65.41L1.2 65.2C1.21 65.19 1.21 65.19 1.22 65.18C1.34 65.1 1.44 64.99 1.49 64.86C1.49 64.86 1.49 64.86 1.49 64.85C1.49 64.85 1.49 64.85 1.49 64.85C1.5 64.84 1.5 64.83 1.5 64.82L1.59 64.31C1.59 64.3 1.59 64.29 1.59 64.28C1.59 64.27 1.58 64.27 1.58 64.26C1.56 64.24 1.55 64.24 1.53 64.24L1.04 64.24L1.04 62.61C1.04 62.54 1.08 62.49 1.14 62.48C1.15 62.48 1.15 62.48 1.15 62.48L4.81 62.48L4.83 62.48L4.88 62.52L4.89 62.54L4.9 62.55L4.91 62.58L4.91 62.58L4.91 62.61L4.91 62.64L4.57 64.48L4.57 64.53L4.58 64.57L4.58 64.58L4.59 64.61C4.59 64.61 4.59 64.62 4.59 64.62L4.61 64.65L4.61 64.66L4.96 65.26L4.96 65.27L5 65.33C5 65.33 5 65.33 5 65.33L5.05 65.39C5.05 65.4 5.05 65.4 5.06 65.4L5.11 65.45C5.12 65.46 5.12 65.46 5.12 65.46L5.19 65.5C5.19 65.5 5.2 65.5 5.2 65.51L5.27 65.53C5.28 65.53 5.28 65.53 5.28 65.53L5.36 65.55L5.52 65.55L5.59 65.54C5.59 65.54 5.6 65.54 5.6 65.54L5.67 65.52C5.67 65.52 5.67 65.51 5.68 65.51L5.74 65.48C5.75 65.48 5.75 65.48 5.75 65.47L5.76 65.46C5.8 65.44 5.84 65.4 5.87 65.37C5.87 65.36 5.87 65.36 5.87 65.36L6.3 64.77C6.3 64.76 6.31 64.75 6.31 64.74L6.4 64.23C6.41 64.22 6.41 64.21 6.4 64.2C6.4 64.19 6.4 64.19 6.39 64.18C6.38 64.16 6.36 64.16 6.34 64.16L5.73 64.16C5.7 64.16 5.67 64.18 5.67 64.21L5.63 64.39L5.63 64.4L5.63 64.42C5.62 64.46 5.6 64.5 5.57 64.53C5.57 64.54 5.56 64.55 5.56 64.55L5.5 64.64L5.48 64.66L5.46 64.67L5.44 64.67L5.43 64.66L5.41 64.65L5.4 64.64L5.38 64.6C5.38 64.6 5.38 64.6 5.38 64.59C5.37 64.59 5.37 64.59 5.37 64.58L5.37 64.58C5.37 64.57 5.36 64.57 5.36 64.56C5.34 64.52 5.34 64.47 5.34 64.42C5.34 64.41 5.34 64.4 5.34 64.39C5.34 64.39 5.35 64.38 5.35 64.38C5.35 64.37 5.35 64.37 5.35 64.36L5.66 62.6C5.67 62.6 5.67 62.59 5.67 62.59C5.67 62.58 5.67 62.58 5.67 62.57L5.68 62.56L5.7 62.53L5.72 62.51L5.73 62.5L5.75 62.49L5.77 62.49L10.87 62.49C10.89 62.49 10.91 62.48 10.92 62.47L10.99 62.39L11.06 62.46C11.07 62.48 11.09 62.48 11.11 62.48L14.71 62.48C14.73 62.48 14.75 62.48 14.76 62.46L14.83 62.39L14.9 62.46C14.91 62.47 14.93 62.48 14.95 62.48L21.12 62.48L21.13 62.49L21.18 62.51L21.19 62.52L21.21 62.54C21.21 62.55 21.21 62.55 21.21 62.55L21.22 62.57L21.23 62.58L21.23 62.58L21.55 64.32L21.55 64.44L21.54 64.47L21.54 64.48L21.53 64.5L21.51 64.54L21.48 64.59L21.48 64.6L21.47 64.6L21.47 64.6L21.46 64.61C21.46 64.61 21.46 64.61 21.46 64.61L21.45 64.62L21.44 64.62C21.42 64.62 21.41 64.61 21.39 64.6C21.39 64.59 21.38 64.58 21.37 64.58L21.31 64.51C21.31 64.5 21.31 64.5 21.31 64.49C21.3 64.47 21.29 64.46 21.28 64.43L21.27 64.39L21.23 64.21C21.23 64.18 21.2 64.16 21.17 64.16L20.56 64.16C20.54 64.16 20.53 64.16 20.51 64.18C20.51 64.19 20.5 64.19 20.5 64.2C20.5 64.21 20.5 64.22 20.5 64.23L20.59 64.74C20.59 64.75 20.59 64.76 20.6 64.77L21.04 65.36C21.04 65.37 21.04 65.37 21.04 65.37L21.09 65.42L21.1 65.42L21.15 65.47C21.16 65.48 21.16 65.48 21.17 65.48L21.23 65.52C21.23 65.52 21.24 65.52 21.24 65.52L21.31 65.54C21.32 65.54 21.32 65.55 21.32 65.55L21.39 65.55L21.56 65.55L21.62 65.55L21.63 65.55L21.69 65.53C21.7 65.53 21.7 65.53 21.71 65.52L21.77 65.49C21.77 65.49 21.78 65.49 21.78 65.49L21.78 65.48C21.85 65.44 21.91 65.39 21.95 65.32C21.95 65.31 21.95 65.31 21.96 65.3L22.07 65.11L22.29 64.72C22.3 64.72 22.3 64.71 22.3 64.71C22.31 64.69 22.32 64.67 22.33 64.65C22.33 64.65 22.34 64.64 22.34 64.64L22.35 64.6C22.35 64.6 22.35 64.59 22.35 64.59L22.35 64.55C22.35 64.52 22.34 64.49 22.33 64.46C22.33 64.46 22.33 64.46 22.33 64.46L22 62.65L22 62.63C22 62.62 22 62.62 22 62.61C22 62.59 22 62.58 22 62.57L22.01 62.56L22.02 62.54L22.05 62.5L22.08 62.49L22.09 62.48L25.12 62.48C25.13 62.48 25.15 62.48 25.16 62.46L25.24 62.39L25.3 62.46C25.32 62.47 25.33 62.48 25.35 62.48L30.41 62.48C30.41 62.48 30.41 62.48 30.41 62.48C30.41 62.48 30.42 62.48 30.42 62.48C30.42 62.48 30.42 62.48 30.42 62.47C30.48 62.48 30.52 62.53 30.53 62.58C30.53 62.59 30.53 62.6 30.53 62.61L30.53 64.24L30.03 64.24C30.01 64.24 30 64.25 29.98 64.27C29.98 64.27 29.97 64.28 29.97 64.29C29.97 64.3 29.97 64.31 29.97 64.32L30.07 64.85C30.09 64.99 30.15 65.11 30.25 65.21L30.46 65.42C30.53 65.49 30.61 65.54 30.7 65.57C30.79 65.6 30.9 65.61 31.03 65.61L31.5 65.61C31.59 65.61 31.67 65.59 31.71 65.54C31.75 65.5 31.77 65.45 31.77 65.39L31.77 47.29C31.77 47.2 31.74 47.12 31.68 47.06ZM30.32 61.35L28.64 61.35C28.61 61.35 28.57 61.33 28.55 61.31C28.54 61.3 28.53 61.29 28.52 61.28L28.52 61.27C28.52 61.26 28.52 61.26 28.52 61.25L28.51 61.24C28.51 61.23 28.51 61.22 28.51 61.22L28.51 54.13C28.51 54.12 28.51 54.11 28.51 54.1L28.52 54.09C28.52 54.08 28.52 54.08 28.52 54.08L28.52 54.06L28.54 54.04L28.56 54.03L28.57 54.02L28.59 54L28.64 53.99L30.32 53.99C30.39 53.99 30.44 54.04 30.45 54.1C30.45 54.11 30.44 54.12 30.44 54.13L30.44 61.22C30.44 61.23 30.45 61.24 30.45 61.25C30.44 61.3 30.38 61.35 30.32 61.35ZM24.54 61.35C24.52 61.35 24.49 61.34 24.47 61.33L24.46 61.32C24.44 61.31 24.43 61.29 24.42 61.27L24.42 61.27C24.42 61.27 24.42 61.27 24.42 61.26L24.42 61.26C24.41 61.25 24.41 61.23 24.41 61.22L24.41 54.13C24.41 54.11 24.41 54.09 24.42 54.07C24.43 54.07 24.43 54.06 24.43 54.06L24.43 54.05L24.43 54.05C24.44 54.04 24.45 54.03 24.46 54.02L24.5 54L24.55 53.99L25.93 53.99L25.95 53.99L25.96 53.99L25.99 54L26.01 54.01L26.03 54.03L26.04 54.05L26.05 54.07L26.07 54.13L26.07 61.21L26.06 61.24L26.05 61.27L26.04 61.3L26.03 61.31L25.99 61.34C25.97 61.35 25.95 61.35 25.94 61.35L24.54 61.35L24.54 61.35ZM25.94 49.74L25.96 49.74L25.98 49.74L26 49.75L26.05 49.8L26.05 49.82C26.05 49.82 26.06 49.83 26.06 49.83L26.07 49.85L26.07 53.36L26.06 53.38C26.06 53.38 26.06 53.39 26.05 53.39L26.05 53.4L26 53.45L25.99 53.46C25.98 53.46 25.98 53.46 25.97 53.46L25.96 53.47L24.55 53.47L24.51 53.46L24.49 53.46L24.47 53.45L24.47 53.45C24.46 53.45 24.46 53.44 24.46 53.44C24.45 53.43 24.44 53.43 24.44 53.42C24.44 53.42 24.43 53.41 24.43 53.41L24.42 53.39L24.41 53.37C24.41 53.36 24.41 53.35 24.41 53.34L24.41 49.86C24.41 49.85 24.41 49.83 24.41 49.82L24.42 49.8L24.43 49.79L24.45 49.77L24.48 49.75L24.5 49.74L24.51 49.74L25.94 49.74ZM20.6 61.25C20.58 61.23 20.54 61.23 20.51 61.25L20.42 61.35L9.28 61.35L9.18 61.25C9.16 61.24 9.15 61.23 9.13 61.23C9.11 61.23 9.1 61.24 9.09 61.25L8.98 61.35L6.04 61.35C5.96 61.35 5.9 61.29 5.9 61.21L5.9 50.59C5.9 50.58 5.9 50.56 5.91 50.55L5.92 50.53L5.93 50.52L5.94 50.5L5.96 50.49L5.98 50.48C5.99 50.48 5.99 50.48 5.99 50.48L6.02 50.47L9.18 49.92L9.24 49.92L9.29 49.94L9.31 49.95L9.32 49.97L9.33 49.99L9.35 50.05L9.35 50.91C9.35 50.92 9.35 50.93 9.35 50.94L9.36 50.96C9.36 50.97 9.37 50.97 9.37 50.98L9.38 50.99C9.39 51 9.4 51.01 9.41 51.02L9.43 51.02C9.43 51.03 9.44 51.03 9.45 51.03L9.45 51.03C9.46 51.04 9.47 51.04 9.48 51.04L10.14 51.04C10.16 51.04 10.17 51.04 10.17 51.03L10.21 51.02C10.21 51.01 10.22 51.01 10.22 51L10.24 50.99C10.25 50.98 10.25 50.98 10.26 50.97L10.27 50.94C10.27 50.93 10.28 50.92 10.28 50.91L10.28 49.86C10.28 49.85 10.28 49.83 10.29 49.82L10.29 49.81L10.35 49.75L10.37 49.74L10.38 49.74L11.34 49.74L11.36 49.74L11.38 49.75L11.4 49.76L11.42 49.78C11.42 49.79 11.43 49.79 11.44 49.8C11.44 49.8 11.44 49.8 11.44 49.81C11.44 49.81 11.45 49.82 11.45 49.82C11.73 50.64 12.51 51.19 13.39 51.19L15.19 51.19C16.05 51.18 16.82 50.63 17.1 49.82C17.1 49.81 17.1 49.81 17.1 49.8C17.11 49.79 17.11 49.79 17.11 49.79L17.15 49.75L17.17 49.74L17.19 49.73L21.76 49.73L21.76 49.74C21.76 49.74 21.76 49.74 21.76 49.74L21.76 49.78C21.76 49.82 21.79 49.85 21.83 49.85L22.31 49.85C22.35 49.85 22.38 49.82 22.38 49.78L22.38 49.74L22.39 49.74L23.77 49.74L23.79 49.75C23.79 49.75 23.79 49.75 23.79 49.75L23.82 49.76L23.83 49.77L23.85 49.8L23.87 49.85L23.87 61.25L23.86 61.27C23.86 61.27 23.86 61.27 23.86 61.27L23.85 61.3L23.81 61.33C23.81 61.33 23.81 61.33 23.81 61.33C23.79 61.34 23.77 61.35 23.74 61.35L20.71 61.35L20.6 61.25ZM5.24 61.35L3.84 61.35C3.81 61.35 3.79 61.34 3.77 61.33L3.76 61.32C3.74 61.31 3.73 61.29 3.72 61.27L3.72 61.27C3.72 61.27 3.72 61.27 3.72 61.26L3.72 61.26C3.71 61.25 3.71 61.23 3.71 61.22L3.71 57.27C3.71 57.26 3.71 57.26 3.71 57.25L3.72 57.23L3.73 57.2L3.75 57.18L3.77 57.17L3.79 57.16L3.82 57.15L3.82 57.15L3.85 57.14L5.23 57.14L5.26 57.15L5.29 57.16L5.31 57.17L5.33 57.18L5.34 57.2L5.36 57.23L5.37 57.26L5.37 61.24L5.36 61.26L5.35 61.28L5.33 61.31L5.32 61.32L5.3 61.33L5.28 61.34C5.27 61.35 5.25 61.35 5.24 61.35ZM1.21 40.23C1.21 40.23 1.22 40.23 1.22 40.23L3.23 39.81C3.23 39.81 3.24 39.81 3.24 39.8C3.26 39.8 3.28 39.8 3.3 39.8C3.32 39.81 3.34 39.82 3.35 39.83C3.38 39.85 3.4 39.88 3.4 39.91C3.4 39.92 3.4 39.93 3.4 39.94L3.4 40.52C3.4 40.53 3.4 40.54 3.41 40.55C3.46 41.16 3.84 41.71 4.4 41.98C4.41 41.98 4.42 41.99 4.42 41.99C4.44 42 4.46 42.02 4.47 42.03C4.49 42.05 4.49 42.07 4.5 42.09C4.49 42.1 4.49 42.11 4.49 42.12L4.49 46.47L4.49 46.49L4.48 46.51C4.47 46.51 4.46 46.52 4.46 46.53C4.45 46.54 4.45 46.54 4.44 46.55L4.43 46.55C4.43 46.55 4.42 46.55 4.42 46.56L4.42 46.56C4.4 46.57 4.38 46.57 4.36 46.57C4.35 46.57 4.34 46.57 4.33 46.58L1.29 46.58C1.28 46.57 1.27 46.57 1.25 46.57C1.18 46.57 1.12 46.51 1.12 46.44L1.12 40.36C1.12 40.3 1.16 40.25 1.21 40.23ZM5.16 50.31C5.16 50.32 5.16 50.33 5.16 50.34C5.16 50.33 5.16 50.32 5.16 50.31ZM5.16 50.35C5.16 50.36 5.15 50.36 5.15 50.37C5.16 50.36 5.16 50.36 5.16 50.35ZM5.16 50.3C5.16 50.3 5.16 50.29 5.16 50.28C5.16 50.29 5.16 50.3 5.16 50.3ZM5.14 50.22C5.15 50.23 5.15 50.23 5.15 50.24C5.15 50.23 5.15 50.23 5.14 50.22ZM5.13 50.19C5.14 50.2 5.14 50.2 5.14 50.21C5.14 50.2 5.13 50.2 5.13 50.19ZM5.12 50.17C5.12 50.17 5.12 50.17 5.12 50.17C5.12 50.17 5.12 50.17 5.12 50.17ZM5.13 51.84C5.13 51.84 5.14 51.83 5.14 51.82C5.14 51.8 5.15 51.78 5.17 51.77L5.19 51.75L5.21 51.74L5.22 51.74L5.27 51.74L5.33 51.77L5.36 51.84L5.36 56.52L5.36 56.54L5.35 56.56L5.31 56.59L5.3 56.6L5.28 56.61C5.27 56.61 5.25 56.62 5.24 56.62C5.23 56.62 5.22 56.62 5.21 56.62L3.91 56.62C3.9 56.62 3.89 56.62 3.88 56.62C3.86 56.62 3.84 56.61 3.83 56.6C3.81 56.59 3.79 56.58 3.78 56.56C3.76 56.54 3.75 56.51 3.75 56.48L3.75 56.48C3.75 56.47 3.75 56.46 3.76 56.45C3.76 56.45 3.76 56.44 3.76 56.44L5.13 51.84ZM3.17 56.54L3.16 56.57L3.15 56.58L3.13 56.59L3.09 56.61L3.07 56.61C3.07 56.61 3.06 56.61 3.06 56.62L3.03 56.62L1.29 56.62C1.28 56.62 1.27 56.62 1.25 56.62C1.18 56.62 1.12 56.56 1.12 56.48L1.12 47.22C1.12 47.16 1.16 47.1 1.22 47.09C1.23 47.09 1.23 47.09 1.23 47.09L1.23 47.09C1.24 47.09 1.24 47.1 1.25 47.09L4.36 47.09L4.38 47.1L4.38 47.1L4.42 47.11L4.44 47.12L4.46 47.13L4.47 47.15L4.48 47.17L4.49 47.2L4.49 49L4.51 49.21L4.51 49.21L4.51 49.23C4.52 49.27 4.53 49.31 4.54 49.35L4.54 49.35L4.55 49.43C4.55 49.44 4.55 49.44 4.55 49.44L4.62 49.65C4.62 49.65 4.62 49.65 4.62 49.66L4.72 49.85C4.72 49.85 4.72 49.85 4.72 49.86L4.76 49.92L4.84 50.04C4.84 50.05 4.84 50.05 4.84 50.05L4.98 50.22L5 50.24L5 50.24L5.02 50.27L5.03 50.31L5.02 50.36L5.02 50.36L5.01 50.37L3.24 56.32L3.17 56.54ZM1.12 61.21L1.12 57.27C1.12 57.21 1.16 57.15 1.22 57.14C1.23 57.14 1.23 57.14 1.23 57.14C1.23 57.14 1.23 57.14 1.23 57.14C1.24 57.15 1.25 57.15 1.25 57.15L3.03 57.15L3.1 57.16L3.12 57.17L3.13 57.18L3.17 57.23L3.17 57.26L3.17 57.26L3.18 57.29L3.18 61.21L3.17 61.25L3.17 61.27L3.15 61.29L3.12 61.33C3.1 61.34 3.07 61.35 3.05 61.35L1.25 61.35C1.18 61.35 1.12 61.29 1.12 61.21ZM26.74 61.35C26.7 61.35 26.67 61.33 26.64 61.31C26.61 61.28 26.6 61.25 26.6 61.21C26.6 61.2 26.6 61.19 26.59 61.18L26.59 54.16C26.6 54.15 26.6 54.13 26.6 54.12C26.6 54.07 26.64 54.02 26.68 54L26.74 53.99L27.83 53.99L27.87 54L27.89 54L27.9 54.01C27.9 54.01 27.91 54.01 27.91 54.02L27.93 54.03L27.94 54.04L27.95 54.06C27.96 54.06 27.96 54.07 27.96 54.07L27.97 54.08L27.98 54.14L27.98 61.21L27.97 61.26L27.95 61.3C27.95 61.31 27.94 61.31 27.94 61.31C27.92 61.34 27.88 61.35 27.85 61.35L26.74 61.35L26.74 61.35ZM27.88 50.96C27.88 50.97 27.88 50.97 27.89 50.97C27.89 50.97 27.89 50.98 27.9 50.98C27.95 51 27.98 51.05 27.98 51.1L27.98 53.33L27.97 53.38L27.96 53.41L27.95 53.42L27.93 53.44L27.91 53.45L27.89 53.46C27.89 53.46 27.89 53.46 27.89 53.46L27.87 53.47C27.87 53.47 27.86 53.47 27.85 53.47L26.74 53.47C26.72 53.47 26.71 53.47 26.69 53.46L26.69 53.46C26.69 53.46 26.69 53.46 26.68 53.46L26.68 53.46C26.64 53.44 26.6 53.39 26.6 53.34C26.6 53.32 26.6 53.31 26.6 53.3L26.6 49.89C26.6 49.88 26.6 49.87 26.6 49.86C26.6 49.84 26.61 49.83 26.61 49.81C26.62 49.79 26.63 49.78 26.64 49.77L26.66 49.76L26.68 49.75L26.71 49.74L26.99 49.74L27.01 49.75L27.04 49.76L27.05 49.77L27.09 49.81L27.1 49.86L27.1 49.86C27.1 49.87 27.1 49.88 27.11 49.89C27.15 50.36 27.44 50.77 27.88 50.96ZM30.31 51.15C30.39 51.15 30.44 51.2 30.45 51.26C30.45 51.27 30.45 51.28 30.45 51.29L30.45 51.88C30.45 51.89 30.45 51.9 30.45 51.9C30.44 51.96 30.38 52.01 30.32 52.01C30.31 52.01 30.29 52.01 30.29 52.01L29.63 52.01C29.62 52.01 29.61 52.01 29.6 52.01C29.58 52.01 29.56 52.01 29.55 52.02C29.54 52.02 29.53 52.03 29.52 52.03C29.52 52.03 29.52 52.03 29.52 52.03L29.51 52.04C29.5 52.04 29.5 52.04 29.49 52.05L29.48 52.07C29.46 52.08 29.46 52.1 29.46 52.11L29.45 52.11C29.45 52.12 29.45 52.13 29.45 52.14L29.45 52.48C29.45 52.49 29.45 52.5 29.45 52.51L29.46 52.53C29.46 52.54 29.47 52.54 29.47 52.55L29.48 52.56C29.48 52.56 29.49 52.57 29.49 52.57L29.5 52.58C29.5 52.59 29.51 52.59 29.52 52.59L29.55 52.61C29.56 52.62 29.57 52.62 29.58 52.62L30.31 52.62C30.32 52.62 30.33 52.62 30.34 52.61C30.39 52.62 30.44 52.67 30.45 52.72C30.44 52.73 30.44 52.74 30.44 52.75L30.44 53.34C30.44 53.35 30.45 53.36 30.45 53.37C30.44 53.43 30.38 53.48 30.31 53.48L28.64 53.48L28.62 53.47L28.61 53.47L28.58 53.46L28.57 53.45C28.56 53.45 28.56 53.45 28.55 53.44C28.55 53.44 28.54 53.43 28.54 53.43C28.53 53.42 28.53 53.42 28.53 53.41L28.52 53.4L28.51 53.37L28.51 53.36L28.51 53.34L28.51 51.29C28.51 51.22 28.57 51.16 28.64 51.16L30.31 51.16L30.31 51.15ZM29.6 52.48C29.6 52.48 29.59 52.47 29.59 52.46C29.59 52.45 29.59 52.44 29.58 52.43L29.58 52.18C29.59 52.17 29.59 52.16 29.59 52.15L29.59 52.14L30.25 52.14L30.25 52.48L29.64 52.48C29.63 52.48 29.61 52.48 29.6 52.48Z" fill="#00171F" fill-opacity="1.000000" fill-rule="nonzero"/>
					<path id="Vector" d="M12.98 49.12L12.98 48.64C12.93 48.63 12.89 48.63 12.85 48.63L12.11 48.63C12.07 48.63 12.04 48.63 12.01 48.63C11.92 48.62 11.9 48.57 11.94 48.5C11.97 48.45 12.01 48.41 12.04 48.37C12.38 47.97 12.7 47.55 12.98 47.1C13.43 46.41 13.79 45.68 13.98 44.88C14.09 44.41 14.13 43.93 14.1 43.44C14.08 43.12 14.01 42.81 13.96 42.5C13.94 42.4 13.94 42.29 13.95 42.2C13.98 41.93 14.21 41.78 14.47 41.85C14.64 41.88 14.75 41.99 14.83 42.13C14.93 42.31 14.98 42.5 15.01 42.69C15.11 43.31 15.2 43.92 15.31 44.53C15.44 45.31 15.6 46.09 15.85 46.85C16.03 47.4 16.26 47.92 16.55 48.42C16.66 48.6 16.64 48.63 16.43 48.63L15.56 48.63C15.54 48.79 15.55 48.95 15.55 49.12L15.84 49.12C15.89 49.12 15.95 49.11 15.96 49.17C15.97 49.21 15.95 49.26 15.93 49.29C15.57 49.74 15.12 50.05 14.53 50.14C14.08 50.21 13.66 50.11 13.27 49.87C13.03 49.73 12.81 49.54 12.63 49.32C12.62 49.3 12.6 49.28 12.59 49.26C12.53 49.18 12.56 49.12 12.66 49.12C12.76 49.11 12.86 49.12 12.98 49.12ZM15.15 48.35C15.14 47.86 15.08 47.37 14.96 46.89C14.92 46.72 14.83 46.6 14.65 46.57C14.48 46.53 14.35 46.61 14.25 46.75C13.99 47.12 13.77 47.52 13.62 47.94C13.52 48.24 13.43 48.53 13.4 48.84C13.37 49.17 13.53 49.6 14.03 49.67C14.14 49.69 14.27 49.7 14.38 49.69C14.83 49.65 15.05 49.4 15.1 49.05C15.13 48.82 15.13 48.58 15.15 48.35ZM6.31 39.64C6.3 39.2 6.29 38.78 6.27 38.33C6.54 38.46 6.81 38.5 7.08 38.4C7.36 38.3 7.55 38.11 7.69 37.85C7.69 37.92 7.69 37.98 7.69 38.05C7.65 38.87 7.65 39.7 7.69 40.53C7.7 40.75 7.71 40.97 7.73 41.19C7.73 41.22 7.74 41.26 7.72 41.29C7.71 41.32 7.68 41.36 7.65 41.36C7.63 41.36 7.59 41.34 7.57 41.31C7.55 41.29 7.55 41.26 7.54 41.23L7.39 40.18C7.38 40.12 7.37 40.06 7.36 39.98C7.18 40.21 6.97 40.29 6.7 40.25C6.7 40.31 6.7 40.36 6.7 40.41L6.7 41.46C6.7 41.61 6.68 41.62 6.53 41.62C6.32 41.63 6.31 41.62 6.31 41.41C6.31 41.33 6.31 41.24 6.31 41.16C6.31 41.15 6.3 41.14 6.29 41.11C6.05 41.08 5.79 41.1 5.52 41.1C5.54 41.19 5.55 41.26 5.56 41.33C5.57 41.36 5.56 41.41 5.54 41.42C5.52 41.43 5.48 41.42 5.45 41.4C5.39 41.36 5.33 41.3 5.26 41.25C5.07 41.09 4.88 40.93 4.68 40.77C4.63 40.73 4.61 40.69 4.61 40.62C4.61 40.45 4.61 40.28 4.61 40.11C4.61 40.05 4.63 40.01 4.67 39.97C4.92 39.77 5.17 39.56 5.42 39.36C5.43 39.34 5.45 39.33 5.46 39.32C5.49 39.31 5.52 39.3 5.53 39.31C5.55 39.33 5.57 39.36 5.56 39.38C5.55 39.46 5.53 39.53 5.51 39.62C5.78 39.67 6.04 39.64 6.31 39.64ZM5.73 40.81C5.87 40.81 6.02 40.81 6.17 40.81C6.3 40.8 6.35 40.76 6.35 40.63C6.36 40.46 6.36 40.29 6.35 40.12C6.35 39.99 6.31 39.95 6.18 39.95C5.89 39.94 5.6 39.94 5.3 39.95C5.26 39.95 5.2 39.96 5.16 39.99C5.07 40.06 4.97 40.14 4.89 40.22C4.78 40.31 4.79 40.44 4.89 40.53C4.93 40.58 5 40.62 5.05 40.67C5.15 40.78 5.27 40.82 5.42 40.81C5.52 40.8 5.63 40.81 5.73 40.81ZM6.65 38.74C6.66 39.13 6.67 39.49 6.68 39.85C7.03 39.96 7.32 39.73 7.29 39.38C7.28 39.2 7.29 39 7.29 38.82L7.29 38.66C7.08 38.79 6.88 38.82 6.65 38.74ZM33.08 49.22C33.09 49.66 33.1 50.08 33.11 50.53C32.85 50.41 32.58 50.36 32.3 50.46C32.03 50.56 31.84 50.75 31.7 51.01C31.7 50.95 31.69 50.88 31.7 50.82C31.74 49.99 31.74 49.16 31.7 48.33C31.69 48.11 31.67 47.89 31.66 47.67C31.66 47.64 31.65 47.6 31.66 47.57C31.67 47.54 31.71 47.51 31.73 47.5C31.76 47.5 31.8 47.52 31.82 47.55C31.84 47.57 31.84 47.6 31.85 47.63L32 48.68C32.01 48.74 32.02 48.8 32.03 48.88C32.21 48.65 32.42 48.58 32.69 48.61C32.69 48.55 32.69 48.5 32.69 48.45L32.69 47.4C32.69 47.25 32.71 47.24 32.86 47.24C33.07 47.23 33.08 47.24 33.08 47.45C33.08 47.53 33.08 47.62 33.08 47.7C33.08 47.71 33.09 47.72 33.1 47.75C33.34 47.78 33.6 47.76 33.87 47.77C33.85 47.67 33.83 47.6 33.82 47.53C33.82 47.5 33.83 47.45 33.85 47.44C33.86 47.43 33.91 47.44 33.94 47.46C34 47.51 34.06 47.56 34.12 47.61C34.32 47.77 34.51 47.93 34.71 48.09C34.76 48.13 34.78 48.18 34.78 48.24C34.77 48.41 34.78 48.58 34.78 48.75C34.78 48.81 34.76 48.85 34.71 48.89C34.47 49.09 34.22 49.3 33.97 49.5C33.96 49.52 33.94 49.53 33.92 49.54C33.9 49.55 33.87 49.56 33.86 49.55C33.84 49.53 33.82 49.5 33.82 49.48C33.83 49.4 33.85 49.33 33.87 49.24C33.61 49.19 33.35 49.22 33.08 49.22ZM33.66 48.06C33.52 48.06 33.37 48.05 33.22 48.06C33.09 48.06 33.04 48.11 33.03 48.24C33.03 48.4 33.03 48.58 33.03 48.74C33.04 48.87 33.08 48.92 33.21 48.92C33.5 48.92 33.79 48.92 34.08 48.92C34.13 48.92 34.19 48.9 34.23 48.87C34.32 48.8 34.42 48.72 34.5 48.65C34.6 48.55 34.6 48.42 34.5 48.33C34.45 48.28 34.39 48.24 34.34 48.19C34.24 48.09 34.12 48.04 33.96 48.05C33.86 48.06 33.76 48.06 33.66 48.06ZM32.74 50.13C32.73 49.74 32.72 49.37 32.71 49.01C32.36 48.9 32.07 49.13 32.1 49.48C32.11 49.67 32.1 49.86 32.1 50.05L32.1 50.2C32.3 50.07 32.51 50.05 32.74 50.13Z" fill="#00171F" fill-opacity="1.000000" fill-rule="nonzero"/>
					<path id="Vector" d="M15.45 21.75L15.4 21.78L15.39 21.82L15.4 21.86L15.81 22.73L15.85 22.74L15.9 22.76L15.93 22.79L15.95 22.83L15.96 22.88L15.96 22.92L15.94 22.97L15.91 23.01L15.88 23.03L15.84 23.05L15.79 23.06L15.75 23.05L15.71 23.04L14.71 21.89L14.25 21.89L14.2 21.91L14.15 21.95L14.13 21.99L14.12 22.09L14.12 23.14L14.11 23.17L14.09 23.2L14.07 23.21L14.03 23.22L13.81 23.22L13.78 23.21L13.75 23.2L13.73 23.17L13.72 23.1L13.72 22.74L13.72 22.68L13.7 22.67L13.65 22.66L12.96 22.66L12.94 22.98L12.91 23.01L12.87 23L11.9 22.24L11.9 21.48L12.87 20.72L12.91 20.72L12.94 20.73L12.96 21.06L13.66 21.06L13.7 21.04L13.72 21L13.72 19.58L14.02 19.47L14.32 19.38L14.62 19.29L14.92 19.23L15.23 19.17L15.54 19.14L15.85 19.11L16.16 19.1L16.2 19.11L16.23 19.12L16.25 19.15L16.26 19.18L16.26 19.22L16.25 19.26L15.96 19.76L15.96 19.82L15.97 19.86L16.04 19.97L16.11 20.07L16.15 20.2L16.2 20.32L16.22 20.44L16.23 20.57L16.23 20.69L16.21 20.82L16.18 20.95L16.14 21.07L16.09 21.19L16.02 21.3L15.94 21.4L15.86 21.49L15.76 21.57L15.66 21.65L15.54 21.71L15.45 21.75ZM13.77 22.13L13.77 21.59L13.76 21.5L13.73 21.46L13.7 21.43L13.66 21.4L13.57 21.39L12.84 21.39L12.79 21.4L12.74 21.42L12.72 21.43L12.4 21.7L12.35 21.75L12.33 21.81L12.32 21.86L12.33 21.92L12.35 21.96L12.4 22.02L12.72 22.28L12.74 22.3L12.79 22.32L12.84 22.33L13.57 22.33L13.66 22.32L13.7 22.29L13.73 22.26L13.76 22.22L13.77 22.13ZM15.36 20.2L15.4 20.29L15.41 20.39L15.41 20.51L15.41 20.62L15.38 20.73L15.35 20.84L15.3 20.94L15.23 21.03L15.17 21.12L15.08 21.19L14.99 21.27L14.9 21.32L14.79 21.36L14.69 21.39L14.57 21.4L14.46 21.41L14.4 21.4L14.35 21.39L14.29 21.36L14.25 21.31L14.21 21.27L14.19 21.21L14.18 21.16L14.18 21.09L14.23 20.41L14.24 20.32L14.27 20.24L14.31 20.16L14.35 20.09L14.41 20.02L14.48 19.97L14.56 19.92L14.64 19.88L14.73 19.86L14.81 19.85L14.9 19.86L14.98 19.87L15.06 19.9L15.14 19.94L15.21 19.99L15.27 20.05L15.32 20.12L15.36 20.2Z" fill="#00171F" fill-opacity="1.000000" fill-rule="evenodd"/>
				</g>
			</g>
		</g>
	</g>
</svg>
