<svg width="40.000000" height="70.000000" viewBox="0 0 40 70" fill="none" xmlns="http://www.w3.org/2000/svg" xmlns:xlink="http://www.w3.org/1999/xlink">
	<desc>
			Created with Pixso.
	</desc>
	<defs>
		<clipPath id="clip2212_512">
			<rect id="art.svg" width="40.000000" height="58.144329" transform="translate(-0.205078 5.779297)" fill="white" fill-opacity="0"/>
		</clipPath>
		<clipPath id="clip2212_511">
			<rect id="art.svg fill" width="40.000000" height="70.000000" transform="translate(-0.205078 -0.148438)" fill="white" fill-opacity="0"/>
		</clipPath>
		<clipPath id="clip2212_510">
			<rect id="art.svg" width="40.000000" height="70.000000" transform="translate(-0.205078 -0.148438)" fill="white" fill-opacity="0"/>
		</clipPath>
	</defs>
	<g clip-path="url(#clip2212_510)">
		<g clip-path="url(#clip2212_511)">
			<g clip-path="url(#clip2212_512)">
				<mask id="mask2212_525" mask-type="alpha" maskUnits="userSpaceOnUse" x="-0.205078" y="5.980469" width="40.000000" height="57.731934">
					<path id="Vector" d="M-0.21 5.98L39.79 5.98L39.79 63.71L-0.21 63.71L-0.21 5.98Z" fill="#000000" fill-opacity="1.000000" fill-rule="evenodd"/>
				</mask>
				<g mask="url(#mask2212_525)">
					<path id="Vector" d="M39.76 25.94L39.73 25.87L39.68 25.81L39.61 25.79L39.5 25.76L38 25.76L37.89 25.78L37.83 25.81L37.79 25.85L37.76 25.91L37.75 26.02L37.75 26.86L38.68 26.86L38.68 28.63L38.68 28.63L38.67 28.71L38.64 28.8L38.59 28.87L38.53 28.94L38.45 28.99L38.37 29.01L38.28 29.02L38.28 29.03L36.39 29.03L36.28 29.02L36.19 28.99L36.09 28.95L36.01 28.89L35.94 28.81L35.88 28.73L35.83 28.64L35.81 28.54L35.8 28.43L35.82 28.33L35.85 28.23L35.89 28.14L35.88 28.13L35.98 27.93L36.05 27.73L36.1 27.51L36.12 27.3L36.13 27.08L36.13 25.85L35.08 25.85L35.28 26.79L35.28 26.99L24.59 27.74L24.45 27.9L24.31 27.76L17.35 28.26L17.25 28.24L17.19 28.22L17.14 28.17L17.11 28.11L17.1 27.99L17.1 21.68L17.71 21.68L17.71 20.6L17.69 20.52L17.65 20.49L17.18 20.37L17.13 20.38L17.1 20.41L17.1 20.45L17.1 20.74L17.08 20.81L17.05 20.85L17 20.86L16.83 20.83L16.65 20.78L16.49 20.72L16.33 20.64L16.19 20.53L16.06 20.42L15.95 20.29L15.85 20.13L15.77 19.98L15.71 19.81L15.67 19.63L15.67 18.96L15.68 18.85L15.71 18.8L15.75 18.76L15.85 18.7L16.57 18.43L16.72 18.4L16.97 18.4L17.05 18.41L17.08 18.44L17.1 18.53L17.1 18.85L17.1 18.88L17.14 18.92L17.18 18.93L17.66 18.79L17.69 18.78L17.71 18.7L17.71 17.58L16.48 17.58L11.17 19.51L5.4 25.26L5.41 25.27L5.3 25.39L5.2 25.52L5.13 25.68L5.08 25.84L5.05 26L5.03 26.17L5.03 26.17L5.03 34.62L5.03 34.69L5.06 34.77L5.11 34.82L5.17 34.87L5.24 34.89L8.85 36L8.93 36.04L9 36.09L9.06 36.17L9.09 36.26L9.1 36.35L9.1 41.46L9.12 41.57L9.15 41.63L9.19 41.67L9.25 41.7L9.36 41.72L9.94 41.72L10.05 41.7L10.11 41.67L10.15 41.63L10.18 41.57L10.2 41.46L10.2 40.21L10.2 40.15L10.23 40.1L10.28 40.05L10.33 40.02L10.4 40.01L12.18 40.01L12.3 40.02L12.35 40.05L12.4 40.1L12.43 40.15L12.44 40.27L12.44 41.72L13.46 41.72L16.85 42.13L20.15 42.13L21.3 42.13L21.3 41.23L22.12 41.23L22.12 40.5L21.3 40.5L21.3 37.92L21.3 37.92L21.31 37.82L21.34 37.72L21.38 37.62L21.44 37.55L21.52 37.47L21.6 37.41L21.7 37.37L21.8 37.34L21.9 37.33L21.9 37.32L24.43 37.32L24.64 37.2L24.84 37.32L27.3 37.32L27.3 37.33L27.4 37.34L27.5 37.37L27.6 37.41L27.68 37.47L27.75 37.55L27.81 37.62L27.85 37.72L27.88 37.82L27.89 37.92L27.9 37.92L27.9 40.5L27.08 40.5L27.08 41.23L27.9 41.23L27.9 42.13L31.78 42.13L31.78 46.23L31.17 46.23L31.17 47.34L31.18 47.39L31.23 47.42L31.68 47.53L31.73 47.53L31.77 47.5L31.78 47.45L31.78 47.03L31.79 46.99L31.82 46.95L31.86 46.95L32.04 46.97L32.21 47.01L32.38 47.07L32.55 47.15L32.69 47.24L32.83 47.35L32.95 47.47L33.07 47.61L33.15 47.75L33.2 47.92L33.23 48.1L33.23 49.23L33.21 49.35L33.18 49.4L33.14 49.45L33.08 49.48L32.97 49.49L31.88 49.49L31.83 49.48L31.8 49.45L31.8 49.4L31.8 49.04L31.78 49L31.74 48.98L31.7 48.97L31.25 49.08L31.22 49.1L31.2 49.13L31.19 49.17L31.19 50.31L36.45 50.31L36.56 50.3L36.62 50.27L36.66 50.23L36.69 50.17L36.7 50.05L36.7 49.7L36.71 49.66L36.75 49.63L36.78 49.63L36.83 49.63L36.83 49.62L36.92 49.61L37 49.58L37.08 49.53L37.14 49.47L37.19 49.39L37.22 49.31L37.23 49.22L37.23 49.22L37.25 48.94L37.28 48.65L37.32 48.38L37.38 48.1L37.48 47.85L37.58 47.61L37.7 47.38L37.85 47.16L38.01 46.95L38.19 46.75L38.38 46.56L38.59 46.39L38.81 46.25L38.89 46.19L38.96 46.12L39.01 46.03L39.05 45.93L39.05 45.83L39.05 45.7L39.06 45.65L39.1 45.63L39.13 45.62L39.48 45.62L39.6 45.6L39.65 45.58L39.7 45.53L39.73 45.48L39.74 45.36L39.74 26.01L39.76 25.94ZM9.61 34.95L6.25 33.92L6.25 27.57L9.61 27.57L9.61 34.95ZM9.61 27.16L6.25 27.16L6.25 26.16L9.61 22.79L9.61 27.16ZM10.02 22.39L12.03 20.37L14.86 19.34L14.85 19.56L14.87 19.77L14.9 19.98L14.95 20.18L15.02 20.38L15.1 20.58L15.21 20.76L15.33 20.94L15.48 21.1L15.63 21.24L15.8 21.36L15.99 21.48L16.18 21.56L16.18 27.17L10.02 27.17L10.02 22.39ZM10.08 35.18L10.02 35.11L10.02 27.57L16.18 27.57L16.18 28.61L16.2 28.75L16.24 28.89L16.31 29.01L12.84 35.17L10.08 35.17L10.08 35.18ZM12.87 39.15L12.73 39.09L12.57 39.04L12.41 39L12.25 39L12.25 38.98L10.33 38.98L10.33 36.01L10.32 36.01L10.3 35.79L10.26 35.58L12.87 35.58L12.87 39.15ZM16.88 41.1L13.48 40.7L13.48 40.21L13.48 40.21L13.46 40.03L13.43 39.85L13.36 39.68L13.28 39.54L13.28 35.57L16.71 35.57L16.8 35.59L16.83 35.62L16.86 35.65L16.88 35.74L16.88 41.1ZM16.88 34.99L16.86 35.1L16.83 35.14L16.8 35.17L16.71 35.18L13.31 35.18L16.61 29.33L17.23 29.29L16.88 34.99ZM32.42 34.61L32.21 34.82L32.42 35.02L32.42 41.12L28.94 41.12L28.94 38.5L29.88 38.5L29.88 38.12L28.94 38.12L28.94 37.92L28.93 37.73L28.9 37.55L28.85 37.37L28.78 37.2L28.7 37.03L28.59 36.89L28.48 36.75L28.34 36.64L28.2 36.53L28.03 36.44L27.86 36.38L27.68 36.33L27.5 36.29L27.31 36.29L27.31 36.28L25.83 36.28L25.83 35.67L25.83 35.67L25.82 35.58L25.79 35.49L25.74 35.42L25.68 35.36L25.6 35.31L25.52 35.28L25.43 35.27L25.43 35.27L25.03 35.27L25.03 36.12L24.6 36.12L24.22 36.12L24.22 35.27L23.79 35.27L23.79 35.27L23.7 35.28L23.62 35.31L23.55 35.36L23.48 35.42L23.43 35.49L23.4 35.58L23.4 35.67L23.39 35.67L23.39 36.28L21.92 36.28L21.92 36.29L21.73 36.29L21.55 36.33L21.37 36.38L21.2 36.44L21.03 36.53L20.89 36.64L20.75 36.75L20.64 36.89L20.53 37.03L20.45 37.2L20.38 37.37L20.33 37.55L20.3 37.73L20.29 37.92L20.28 37.92L20.28 41.1L17.29 41.1L17.29 35.58L17.5 35.37L17.28 35.16L17.63 29.25L23.54 28.84L23.54 29.09L24.03 29.09L24.03 28.8L24.85 28.74L24.85 29.09L25.35 29.09L25.35 28.71L28.45 28.49L28.45 29.09L28.95 29.09L28.95 28.46L32.43 28.21L32.43 34.61L32.42 34.61ZM32.83 28.19L35.01 28.04L34.96 28.19L34.93 28.36L34.93 28.53L34.93 28.69L34.96 28.86L35.01 29.02L35.08 29.16L35.15 29.31L35.25 29.44L35.36 29.55L35.49 29.65L35.63 29.74L35.77 29.81L35.92 29.86L36.08 29.89L36.08 34.6L32.81 34.6L32.81 28.19L32.83 28.19ZM32.83 35.02L36.1 35.02L36.1 41.52L32.83 41.52L32.83 35.02ZM38.09 45.46L38.06 45.51L38 45.58L37.8 45.75L37.58 45.95L37.37 46.18L37.18 46.4L37 46.65L36.83 46.9L36.69 47.16L36.57 47.43L36.46 47.71L36.38 48L36.3 48.29L36.25 48.58L36.2 48.9L36.19 48.97L36.16 49.05L36.1 49.12L36.03 49.18L35.95 49.2L35.87 49.22L34.08 49.22L34.08 48.24L34.05 47.97L34 47.76L33.95 47.56L33.87 47.37L33.77 47.18L33.65 47.01L33.52 46.85L33.38 46.71L33.21 46.58L33.03 46.48L32.85 46.39L32.85 45.2L37.92 45.2L37.98 45.21L38.03 45.24L38.08 45.28L38.1 45.33L38.11 45.4L38.09 45.46ZM38.55 44.72L32.83 44.72L32.83 42.01L38.55 42.01L38.55 44.72ZM38.55 41.52L36.5 41.52L36.5 29.94L38.55 29.94L38.55 41.52Z" fill="#05252F" fill-opacity="1.000000" fill-rule="nonzero"/>
					<path id="Vector" d="M35.03 19.83L34.95 19.78L34.87 19.72L34.8 19.65L34.73 19.57L34.68 19.48L34.64 19.39L34.63 19.33L34.6 19.28L34.56 19.23L34.51 19.2L34.46 19.17L34.4 19.16L34.35 19.15L34.29 19.16L34.23 19.18L34.18 19.21L34.14 19.26L34.1 19.31L34.08 19.36L34.07 19.45L34.07 21.83L34.24 21.91L34.4 22L34.56 22.1L34.72 22.21L34.86 22.34L35 22.46L35.13 22.61L35.25 22.76L35.36 22.91L35.46 23.07L35.55 23.24L35.63 23.41L35.7 23.59L35.75 23.77L35.8 23.96L35.84 24.14L35.86 24.33L35.87 24.52L35.87 24.7L35.9 24.77L35.93 24.83L35.98 24.87L36.04 24.91L36.1 24.93L36.2 24.94L36.25 24.94L36.34 24.94L36.43 24.96L36.51 25L36.59 25.05L36.66 25.11L36.72 25.17L36.78 25.26L36.79 25.29L36.83 25.32L36.87 25.36L36.92 25.38L36.97 25.39L37.02 25.38L37.07 25.36L37.11 25.32L37.15 25.29L37.17 25.24L37.2 25.16L37.25 25.08L37.3 25.01L37.37 24.94L37.44 24.89L37.52 24.85L37.6 24.82L37.69 24.81L37.78 24.8L39.09 24.97L39.09 24.11L39.08 24.08L39.06 24.05L39 24.02L38.94 24L38.85 23.95L38.78 23.89L38.7 23.82L38.63 23.74L38.58 23.66L38.53 23.57L38.5 23.48L38.48 23.38L38.48 23.3L38.46 23.24L38.44 23.21L38.38 23.19L38.2 23.16L38 23.12L37.8 23.06L37.6 23L37.4 22.92L37.21 22.84L37.03 22.74L36.85 22.62L36.68 22.5L36.52 22.37L36.37 22.23L36.23 22.08L36.09 21.92L35.96 21.76L35.85 21.59L35.75 21.4L35.65 21.21L35.57 21.02L35.49 20.82L35.43 20.62L35.38 20.42L35.36 20.26L35.33 20.13L35.29 20.06L35.24 19.98L35.18 19.92L35.11 19.87L35.03 19.83ZM36.75 26.88L36.33 28.04L36.1 28.04L36.03 28.04L35.97 28.06L35.9 28.1L35.85 28.14L35.8 28.19L35.77 28.26L35.75 28.32L35.73 28.39L35.73 28.46L35.75 28.53L35.77 28.59L35.8 28.66L35.85 28.71L35.9 28.75L35.97 28.79L36.03 28.81L36.1 28.81L36.48 28.81L36.57 28.81L36.65 28.8L36.73 28.78L36.81 28.74L36.88 28.69L36.95 28.64L37 28.57L37.05 28.48L37.73 26.58L37.73 25.54L39.59 25.78L39.65 25.77L39.7 25.75L39.74 25.71L39.78 25.67L39.8 25.62L39.8 25.57L39.8 23.61L39.8 23.56L39.78 23.51L39.74 23.46L39.7 23.43L39.65 23.41L39.6 23.4L39.26 23.4L39.23 23.39L39.2 23.37L39.18 23.35L39.18 23.29L39.18 23.15L39.16 23.06L39.13 22.98L39.09 22.89L39.04 22.81L38.98 22.75L38.9 22.69L38.82 22.64L38.73 22.61L38.57 22.57L38.45 22.56L38.27 22.51L38.08 22.46L37.9 22.4L37.73 22.32L37.56 22.24L37.4 22.14L37.24 22.04L37.09 21.92L36.95 21.79L36.81 21.66L36.68 21.52L36.57 21.38L36.46 21.22L36.36 21.06L36.27 20.89L36.19 20.72L36.12 20.55L36.06 20.36L36.01 20.18L35.98 19.99L35.95 19.81L35.95 19.81L35.93 19.72L35.9 19.63L35.86 19.55L35.8 19.47L35.74 19.41L35.66 19.35L35.58 19.31L35.5 19.27L35.41 19.25L35.35 19.25L35.28 19.24L35.26 19.22L35.24 19.2L35.23 19.16L35.23 18.81L35.22 18.74L35.18 18.69L35.14 18.66L35.08 18.63L33.36 18.32L33.36 19.27L33.36 21.01L33.36 21.63L33.36 21.84L33.37 21.92L33.39 22.01L33.42 22.09L33.46 22.17L33.51 22.25L33.58 22.31L33.65 22.37L33.73 22.42L33.8 22.46L33.81 22.46L33.95 22.53L34.1 22.61L34.24 22.69L34.37 22.79L34.49 22.89L34.6 23.01L34.71 23.13L34.81 23.26L34.9 23.4L34.98 23.54L35.05 23.69L35.11 23.84L35.16 24L35.2 24.16L35.22 24.31L35.23 24.48L35.24 24.64L35.23 24.81L35.24 24.81L35.23 24.9L35.24 24.99L35.26 25.09L35.3 25.17L35.35 25.26L35.4 25.34L35.47 25.4L35.55 25.46L35.63 25.51L35.71 25.54L35.8 25.56L35.9 25.57L36.15 25.57L36.15 26.26L36.37 26.26L36.45 26.28L36.52 26.3L36.58 26.34L36.65 26.39L36.7 26.44L36.73 26.51L36.77 26.58L36.78 26.66L36.79 26.74L36.78 26.81L36.76 26.89L36.75 26.89L36.75 26.88ZM33.38 21.61L31.75 20.39L31.75 20.38L31.73 20.36L31.7 20.33L31.7 20.29L31.7 20.26L31.73 20.22L31.75 20.2L31.79 20.18L31.83 20.18L31.86 20.2L33.38 20.97L33.38 21.61L33.38 21.61ZM33.38 19.24L31.36 17.53L31.34 17.49L31.33 17.46L31.34 17.42L31.36 17.38L31.39 17.36L31.43 17.35L31.46 17.36L33.38 18.28L33.38 19.24Z" fill="#05252F" fill-opacity="1.000000" fill-rule="evenodd"/>
					<path id="Vector" d="M5.22 39.52L4.94 39.76L4.94 40.19L5.22 40.42L6.38 40.42L6.38 39.52L5.22 39.52ZM8.47 39.14L8.43 39.02L8.38 38.9L8.31 38.78L8.23 38.67L8.15 38.57L8.05 38.47L7.94 38.39L7.83 38.32L7.7 38.26L7.58 38.22L7.45 38.18L7.32 38.16L7.18 38.15L7.18 38.15L6.69 38.15L6.73 39.12L6.73 39.2L6.89 39.18L7.05 39.17L7.22 39.18L7.38 39.2L7.53 39.24L7.69 39.29L7.84 39.35L7.99 39.42L8.13 39.51L8.26 39.6L8.39 39.71L8.51 39.82L8.62 39.95L8.72 40.08L8.8 40.22L8.88 40.37L8.94 40.52L8.95 40.57L8.94 40.6L8.92 40.64L8.89 40.67L8.85 40.69L8.82 40.7L8.78 40.69L8.75 40.67L8.71 40.65L8.67 40.57L8.63 40.48L8.55 40.35L8.46 40.22L8.36 40.11L8.25 40L8.14 39.91L8.01 39.82L7.88 39.75L7.75 39.7L7.6 39.65L7.46 39.61L7.31 39.59L7.17 39.58L7.02 39.59L6.87 39.61L6.73 39.64L6.73 41.27L6.38 41.27L6.38 40.79L6.38 40.75L6.36 40.73L6.31 40.72L5.62 40.72L5.59 40.73L5.58 40.75L5.63 40.98L5.62 41.02L5.6 41.05L5.57 41.07L5.54 41.07L5.48 41.04L4.61 40.3L4.61 39.57L5.5 38.83L5.54 38.81L5.57 38.81L5.6 38.83L5.62 38.85L5.63 38.9L5.58 39.14L5.59 39.16L5.62 39.17L6.33 39.17L6.36 39.15L6.38 39.1L6.33 37.72L7.15 37.72L7.33 37.75L7.48 37.77L7.61 37.8L7.75 37.85L7.88 37.91L8 37.98L8.12 38.07L8.23 38.16L8.33 38.26L8.43 38.37L8.52 38.49L8.59 38.62L8.65 38.75L8.7 38.87L8.74 39L8.75 39.05L8.72 39.12L8.7 39.16L8.66 39.2L8.63 39.21L8.58 39.22L8.54 39.21L8.5 39.19L8.47 39.14Z" fill="#05252F" fill-opacity="1.000000" fill-rule="evenodd"/>
					<path id="Vector" d="M32.27 48.76L32.55 48.52L32.55 48.09L32.27 47.85L31.11 47.85L31.11 48.76L32.27 48.76ZM29.01 49.14L29.05 49.26L29.1 49.38L29.17 49.5L29.25 49.61L29.33 49.71L29.43 49.81L29.54 49.89L29.65 49.96L29.78 50.02L29.9 50.06L30.03 50.1L30.16 50.12L30.3 50.13L30.3 50.13L30.79 50.13L30.75 49.16L30.75 49.08L30.59 49.1L30.43 49.11L30.26 49.1L30.1 49.08L29.95 49.04L29.79 48.99L29.64 48.93L29.49 48.85L29.35 48.77L29.22 48.68L29.09 48.57L28.97 48.46L28.86 48.33L28.76 48.2L28.68 48.05L28.6 47.91L28.54 47.75L28.53 47.71L28.54 47.68L28.56 47.64L28.59 47.61L28.63 47.59L28.66 47.58L28.7 47.59L28.73 47.61L28.77 47.63L28.81 47.7L28.85 47.8L28.93 47.93L29.02 48.05L29.12 48.17L29.23 48.28L29.34 48.37L29.47 48.46L29.6 48.53L29.73 48.58L29.88 48.63L30.02 48.67L30.17 48.69L30.31 48.7L30.46 48.69L30.61 48.67L30.75 48.64L30.75 46.98L31.1 46.98L31.1 47.46L31.1 47.5L31.12 47.52L31.17 47.53L31.86 47.53L31.89 47.52L31.9 47.5L31.85 47.27L31.86 47.23L31.88 47.2L31.91 47.18L31.94 47.18L32 47.21L32.87 47.95L32.87 48.68L31.98 49.41L31.94 49.43L31.91 49.43L31.88 49.41L31.86 49.39L31.85 49.34L31.9 49.11L31.89 49.08L31.86 49.08L31.15 49.08L31.12 49.1L31.1 49.14L31.15 50.52L30.33 50.52L30.15 50.5L30 50.48L29.87 50.44L29.73 50.39L29.6 50.33L29.48 50.26L29.36 50.18L29.25 50.08L29.15 49.98L29.05 49.87L28.96 49.76L28.89 49.63L28.83 49.5L28.78 49.37L28.74 49.25L28.73 49.19L28.74 49.15L28.76 49.11L28.8 49.08L28.83 49.06L28.88 49.05L28.92 49.06L28.95 49.08L29.01 49.14Z" fill="#05252F" fill-opacity="1.000000" fill-rule="evenodd"/>
					<path id="Vector" d="M19.35 19.56L19.3 19.59L19.3 19.63L19.3 19.66L19.7 20.48L19.73 20.49L19.78 20.51L19.8 20.54L19.83 20.58L19.83 20.63L19.83 20.67L19.82 20.71L19.79 20.75L19.76 20.77L19.72 20.79L19.68 20.8L19.63 20.79L19.6 20.78L18.65 19.69L18.21 19.69L18.16 19.71L18.12 19.75L18.1 19.79L18.09 19.88L18.09 20.87L18.08 20.9L18.06 20.93L18.04 20.94L18 20.95L17.8 20.95L17.76 20.94L17.74 20.93L17.72 20.9L17.71 20.83L17.71 20.49L17.7 20.44L17.69 20.43L17.64 20.42L16.99 20.42L16.97 20.72L16.94 20.75L16.9 20.74L15.98 20.03L15.98 19.31L16.9 18.59L16.94 18.58L16.97 18.6L16.99 18.91L17.65 18.91L17.69 18.89L17.71 18.85L17.71 17.51L17.99 17.41L18.28 17.32L18.56 17.24L18.85 17.18L19.15 17.13L19.43 17.09L19.73 17.06L20.03 17.06L20.06 17.06L20.1 17.08L20.11 17.11L20.13 17.13L20.13 17.17L20.11 17.21L19.85 17.68L19.83 17.73L19.85 17.78L19.91 17.88L19.98 17.98L20.03 18.09L20.06 18.21L20.08 18.33L20.1 18.45L20.09 18.56L20.08 18.68L20.05 18.81L20 18.92L19.96 19.03L19.89 19.13L19.82 19.23L19.74 19.31L19.65 19.39L19.55 19.46L19.44 19.52L19.35 19.56ZM17.75 19.92L17.75 19.41L17.75 19.32L17.72 19.28L17.69 19.26L17.65 19.23L17.57 19.22L16.88 19.22L16.83 19.23L16.78 19.25L16.76 19.26L16.46 19.51L16.41 19.56L16.39 19.61L16.38 19.66L16.39 19.72L16.41 19.76L16.46 19.82L16.76 20.06L16.78 20.08L16.83 20.1L16.88 20.11L17.57 20.11L17.65 20.1L17.69 20.07L17.72 20.04L17.75 20.01L17.75 19.92ZM19.27 18.09L19.3 18.18L19.32 18.28L19.32 18.38L19.31 18.49L19.29 18.6L19.25 18.7L19.21 18.79L19.15 18.88L19.08 18.96L19 19.03L18.92 19.11L18.83 19.16L18.73 19.19L18.63 19.22L18.52 19.23L18.41 19.24L18.35 19.23L18.3 19.22L18.25 19.19L18.21 19.15L18.18 19.11L18.15 19.05L18.15 19L18.15 18.93L18.19 18.29L18.2 18.21L18.23 18.13L18.27 18.06L18.31 17.99L18.37 17.93L18.43 17.88L18.5 17.83L18.58 17.8L18.67 17.78L18.75 17.77L18.83 17.78L18.9 17.78L18.98 17.81L19.06 17.85L19.13 17.9L19.18 17.96L19.23 18.02L19.27 18.09Z" fill="#05252F" fill-opacity="1.000000" fill-rule="evenodd"/>
					<path id="Vector" d="M28.4 46.26L28.35 46.18L28.27 46.13L28.18 46.11L26.58 46.11L26.5 46.12L26.44 46.17L26.39 46.23L26.38 46.31L26.38 47.23L27.28 47.23L27.28 48.98L27.25 49.1L27.2 49.22L27.12 49.3L27 49.35L26.88 49.38L25.02 49.38L24.88 49.36L24.75 49.3L24.63 49.23L24.54 49.13L24.47 49L24.43 48.87L24.42 48.73L24.45 48.58L24.51 48.45L24.49 48.45L24.6 48.21L24.68 47.95L24.73 47.68L24.74 47.41L24.75 47.41L24.75 46.17L23.73 46.17L23.93 47.12L23.93 47.32L5.98 48.6L5.84 48.58L5.78 48.53L5.73 48.45L5.72 48.38L5.7 48.39L5.7 42.02L6.33 42.02L6.33 40.91L6.31 40.86L6.26 40.82L5.8 40.71L5.75 40.71L5.7 40.75L5.69 40.8L5.69 41.12L5.67 41.18L5.61 41.2L5.4 41.17L5.2 41.1L5.01 41L4.83 40.89L4.66 40.74L4.53 40.57L4.42 40.39L4.34 40.19L4.28 39.92L4.28 39.24L4.3 39.16L4.35 39.1L4.42 39.05L5.18 38.77L5.38 38.73L5.64 38.73L5.7 38.75L5.72 38.81L5.72 39.18L5.73 39.23L5.76 39.26L5.78 39.27L6.28 39.14L6.33 39.1L6.34 39.05L6.34 37.91L5.1 37.91L0.15 39.73L0.04 39.8L-0.07 39.9L-0.14 40L-0.19 40.13L-0.21 40.26L-0.21 63.51L-0.2 63.59L-0.15 63.64L-0.09 63.69L-0.01 63.71L0.47 63.71L0.62 63.67L0.76 63.59L1.22 63.13L1.3 62.99L1.33 62.84L1.33 62.4L0.89 62.4L0.89 60.65L0.9 60.65L0.92 60.57L0.97 60.51L1.03 60.46L1.1 60.45L1.1 60.43L3.21 60.43L3.3 60.47L3.35 60.52L3.36 60.59L2.99 62.74L3.02 62.89L3.38 63.51L3.39 63.5L3.48 63.61L3.6 63.68L3.74 63.71L3.88 63.71L4.01 63.68L4.13 63.63L4.25 63.5L4.64 62.97L4.73 62.81L4.75 62.68L4.75 62.4L3.88 62.4L3.82 62.36L3.8 62.31L4.11 60.54L4.16 60.47L4.27 60.43L14.84 60.43L14.97 60.32L15.08 60.43L19.85 60.43L19.95 60.47L20 60.54L20.32 62.31L20.3 62.36L20.24 62.4L19.39 62.4L19.39 62.68L19.41 62.81L19.47 62.92L19.93 63.54L20 63.62L20.12 63.68L20.25 63.7L20.4 63.7L20.54 63.68L20.65 63.61L20.77 63.46L21.1 62.87L21.13 62.73L20.76 60.58L20.78 60.51L20.81 60.46L20.92 60.42L27.12 60.42L27.12 60.43L27.2 60.45L27.25 60.5L27.3 60.56L27.32 60.63L27.32 62.38L26.88 62.38L26.88 62.83L26.91 62.98L26.99 63.12L27.45 63.58L27.59 63.66L27.74 63.69L28.22 63.69L28.3 63.68L28.35 63.63L28.4 63.57L28.42 63.49L28.43 63.49L28.43 46.35L28.4 46.26ZM1.02 40.58L3.5 39.68L3.5 39.96L3.53 40.23L3.59 40.5L3.68 40.76L3.81 41L3.96 41.22L4.15 41.43L4.35 41.61L4.58 41.77L4.82 41.9L4.82 47.5L1.02 47.5L1.02 40.58ZM3.55 59.42L1.02 59.42L1.02 55.4L3.55 55.4L3.55 59.42ZM3.55 54.91L1.02 54.91L1.02 47.9L4.81 47.9L4.81 48.5L4.83 48.51L4.84 48.69L4.9 48.88L4.97 49.04L5.08 49.19L5.2 49.33L5.35 49.44L5.52 49.53L3.55 54.91ZM7.02 59.42L3.96 59.42L3.96 55.4L7.02 55.4L7.02 59.42ZM7.02 54.91L3.98 54.91L5.91 49.63L7.02 49.55L7.02 54.91ZM22.49 50.33L20.85 50.33L20.85 50.82L22.49 50.82L22.49 54.96L22.29 55.16L22.49 55.36L22.49 59.41L7.43 59.41L7.43 56.46L7.64 56.26L7.43 56.06L7.43 50.82L9.08 50.82L9.08 50.33L7.43 50.33L7.43 49.52L22.49 48.45L22.49 50.33ZM24.61 59.42L22.9 59.42L22.9 55.4L24.61 55.4L24.61 59.42ZM24.61 54.91L22.9 54.91L22.9 48.43L23.65 48.38L23.58 48.6L23.54 48.82L23.54 49.03L23.59 49.25L23.65 49.45L23.75 49.64L23.88 49.82L24.03 49.98L24.22 50.11L24.4 50.2L24.61 50.28L24.61 54.91ZM27.2 59.42L25.03 59.42L25.03 55.4L27.2 55.4L27.2 59.42ZM27.2 53.27L26.79 53.27L26.79 53.68L27.2 53.68L27.2 54.91L25.03 54.91L25.03 50.28L25.97 50.28L25.97 50.93L26.43 50.93L26.78 50.28L27.19 50.28L27.19 53.27L27.2 53.27Z" fill="#05252F" fill-opacity="1.000000" fill-rule="nonzero"/>
					<path id="Vector" d="M21.07 5.98L20.22 5.98L20.22 25.78L21.07 25.78L21.07 5.98Z" fill="#05252F" fill-opacity="1.000000" fill-rule="nonzero"/>
					<path id="Vector" d="M31.44 5.98L30.59 5.98L30.59 25.78L31.44 25.78L31.44 5.98Z" fill="#05252F" fill-opacity="1.000000" fill-rule="nonzero"/>
					<path id="Vector" d="M26.13 5.98L25.28 5.98L25.28 25.78L26.13 25.78L26.13 5.98Z" fill="#05252F" fill-opacity="1.000000" fill-rule="nonzero"/>
					<path id="Vector" d="M25.28 23.86L21.07 23.86L21.07 25.78L25.28 25.78L25.28 23.86Z" fill="#05252F" fill-opacity="1.000000" fill-rule="nonzero"/>
					<path id="Vector" d="M30.59 23.86L26.13 23.86L26.13 25.78L30.59 25.78L30.59 23.86Z" fill="#05252F" fill-opacity="1.000000" fill-rule="nonzero"/>
				</g>
			</g>
		</g>
	</g>
</svg>
