<svg width="40.000000" height="70.000000" viewBox="0 0 40 70" fill="none" xmlns="http://www.w3.org/2000/svg" xmlns:xlink="http://www.w3.org/1999/xlink">
	<desc>
			Created with Pixso.
	</desc>
	<defs>
		<clipPath id="clip2212_575">
			<rect id="evo.svg" width="40.000000" height="60.869564" transform="translate(-0.205078 4.196289)" fill="white" fill-opacity="0"/>
		</clipPath>
		<clipPath id="clip2212_574">
			<rect id="evo.svg fill" width="40.000000" height="70.000000" transform="translate(-0.205078 -0.369141)" fill="white" fill-opacity="0"/>
		</clipPath>
		<clipPath id="clip2212_573">
			<rect id="evo.svg" width="40.000000" height="70.000000" transform="translate(-0.205078 -0.369141)" fill="white" fill-opacity="0"/>
		</clipPath>
	</defs>
	<g clip-path="url(#clip2212_573)">
		<g clip-path="url(#clip2212_574)">
			<g clip-path="url(#clip2212_575)">
				<mask id="mask2212_589" mask-type="alpha" maskUnits="userSpaceOnUse" x="-0.205078" y="4.196289" width="40.000000" height="60.869629">
					<path id="Vector" d="M-0.21 4.19L39.79 4.19L39.79 65.06L-0.21 65.06L-0.21 4.19Z" fill="#000000" fill-opacity="1.000000" fill-rule="evenodd"/>
				</mask>
				<g mask="url(#mask2212_589)">
					<path id="Vector" d="M5.57 39.76L5.27 40.01L5.27 40.46L5.57 40.71L6.79 40.71L6.79 39.76L5.57 39.76ZM9 39.35L8.97 39.23L8.91 39.1L8.84 38.98L8.76 38.86L8.66 38.75L8.56 38.65L8.45 38.56L8.33 38.49L8.2 38.43L8.06 38.38L7.92 38.34L7.79 38.32L7.65 38.31L7.65 38.31L7.12 38.31L7.16 39.34L7.16 39.41L7.34 39.4L7.51 39.39L7.68 39.4L7.85 39.42L8.02 39.46L8.18 39.51L8.34 39.58L8.5 39.65L8.65 39.74L8.79 39.84L8.92 39.96L9.05 40.08L9.16 40.21L9.27 40.35L9.36 40.5L9.44 40.65L9.5 40.81L9.51 40.86L9.5 40.9L9.48 40.93L9.45 40.96L9.41 40.99L9.37 40.99L9.34 40.99L9.3 40.97L9.26 40.95L9.22 40.87L9.17 40.77L9.09 40.63L9 40.5L8.89 40.38L8.78 40.26L8.66 40.17L8.52 40.08L8.39 40L8.24 39.94L8.09 39.89L7.94 39.85L7.78 39.83L7.63 39.82L7.47 39.83L7.31 39.85L7.16 39.88L7.16 41.6L6.8 41.6L6.8 41.09L6.79 41.06L6.78 41.03L6.72 41.02L5.99 41.02L5.96 41.03L5.95 41.05L6 41.3L5.99 41.34L5.97 41.36L5.94 41.39L5.91 41.39L5.85 41.36L4.93 40.58L4.93 39.81L5.86 39.03L5.91 39.01L5.94 39.01L5.97 39.03L5.99 39.05L6 39.1L5.95 39.35L5.96 39.38L5.99 39.38L6.75 39.38L6.78 39.36L6.79 39.31L6.75 37.86L7.61 37.86L7.8 37.88L7.95 37.91L8.1 37.94L8.24 38L8.38 38.06L8.51 38.13L8.63 38.22L8.76 38.32L8.86 38.43L8.97 38.55L9.06 38.67L9.13 38.8L9.2 38.94L9.25 39.07L9.29 39.2L9.3 39.26L9.27 39.34L9.25 39.38L9.21 39.41L9.17 39.43L9.13 39.44L9.08 39.43L9.04 39.41L9 39.35Z" fill="#05252F" fill-opacity="1.000000" fill-rule="evenodd"/>
					<path id="Vector" d="M33.98 49.3L34.28 49.05L34.28 48.6L33.98 48.35L32.76 48.35L32.76 49.3L33.98 49.3ZM30.54 49.7L30.58 49.82L30.63 49.95L30.7 50.08L30.79 50.2L30.88 50.31L30.98 50.4L31.1 50.49L31.22 50.57L31.35 50.63L31.48 50.67L31.62 50.71L31.75 50.73L31.9 50.74L31.9 50.75L32.42 50.75L32.38 49.72L32.38 49.64L32.21 49.66L32.03 49.66L31.86 49.66L31.69 49.63L31.53 49.6L31.36 49.54L31.2 49.48L31.04 49.4L30.89 49.31L30.76 49.21L30.62 49.1L30.49 48.98L30.38 48.84L30.27 48.71L30.18 48.56L30.11 48.41L30.04 48.24L30.03 48.2L30.04 48.16L30.06 48.12L30.09 48.09L30.13 48.07L30.17 48.06L30.21 48.07L30.24 48.08L30.28 48.11L30.33 48.19L30.37 48.29L30.45 48.42L30.55 48.56L30.65 48.68L30.76 48.79L30.89 48.89L31.02 48.98L31.16 49.05L31.3 49.12L31.45 49.17L31.6 49.21L31.76 49.23L31.91 49.24L32.07 49.23L32.23 49.21L32.38 49.18L32.38 47.43L32.74 47.43L32.74 47.93L32.75 47.97L32.77 47.99L32.82 48L33.55 48L33.58 47.99L33.59 47.98L33.54 47.73L33.55 47.68L33.57 47.66L33.6 47.64L33.63 47.64L33.69 47.67L34.62 48.44L34.62 49.21L33.68 49.99L33.63 50.01L33.6 50.01L33.57 49.99L33.55 49.97L33.54 49.91L33.59 49.66L33.58 49.64L33.55 49.63L32.8 49.63L32.77 49.66L32.75 49.7L32.8 51.16L31.93 51.16L31.74 51.13L31.59 51.11L31.44 51.07L31.3 51.02L31.16 50.96L31.03 50.89L30.91 50.79L30.79 50.7L30.68 50.59L30.58 50.47L30.48 50.35L30.41 50.21L30.34 50.08L30.29 49.94L30.25 49.82L30.24 49.75L30.25 49.71L30.27 49.67L30.31 49.63L30.35 49.62L30.39 49.61L30.44 49.62L30.48 49.64L30.54 49.7Z" fill="#05252F" fill-opacity="1.000000" fill-rule="evenodd"/>
					<path id="Vector" d="M18.21 18.51L18.16 18.55L18.15 18.59L18.16 18.62L18.57 19.49L18.61 19.5L18.66 19.52L18.69 19.55L18.71 19.6L18.72 19.64L18.72 19.69L18.7 19.73L18.67 19.77L18.64 19.79L18.6 19.81L18.55 19.82L18.51 19.81L18.47 19.8L17.46 18.65L17 18.65L16.95 18.68L16.9 18.71L16.88 18.76L16.87 18.86L16.87 19.9L16.87 19.93L16.84 19.96L16.82 19.97L16.78 19.98L16.56 19.98L16.53 19.97L16.5 19.96L16.48 19.93L16.47 19.86L16.47 19.5L16.47 19.44L16.45 19.43L16.4 19.42L15.71 19.42L15.69 19.74L15.66 19.77L15.61 19.76L14.65 19.01L14.65 18.25L15.61 17.49L15.66 17.49L15.69 17.5L15.71 17.82L16.41 17.82L16.45 17.81L16.47 17.76L16.47 16.36L16.77 16.24L17.07 16.15L17.37 16.07L17.68 16L17.99 15.95L18.29 15.91L18.61 15.88L18.92 15.87L18.96 15.88L19 15.9L19.01 15.93L19.03 15.96L19.03 15.99L19.01 16.03L18.73 16.53L18.72 16.59L18.73 16.63L18.8 16.74L18.87 16.85L18.92 16.97L18.96 17.09L18.98 17.21L19 17.34L18.99 17.46L18.97 17.59L18.95 17.72L18.9 17.84L18.85 17.95L18.78 18.07L18.7 18.16L18.62 18.25L18.52 18.34L18.42 18.41L18.3 18.47L18.21 18.51ZM16.52 18.89L16.52 18.36L16.51 18.26L16.48 18.22L16.45 18.19L16.41 18.17L16.32 18.16L15.59 18.16L15.54 18.17L15.48 18.19L15.47 18.2L15.15 18.47L15.1 18.52L15.08 18.57L15.07 18.62L15.08 18.68L15.1 18.73L15.15 18.79L15.47 19.04L15.48 19.06L15.54 19.08L15.59 19.09L16.32 19.09L16.41 19.08L16.45 19.05L16.48 19.02L16.51 18.98L16.52 18.89ZM18.12 16.97L18.16 17.06L18.17 17.16L18.17 17.27L18.17 17.39L18.14 17.5L18.11 17.61L18.06 17.7L17.99 17.8L17.92 17.89L17.84 17.96L17.75 18.04L17.65 18.09L17.55 18.13L17.44 18.16L17.33 18.17L17.21 18.18L17.15 18.17L17.1 18.16L17.05 18.13L17 18.08L16.97 18.04L16.94 17.98L16.93 17.92L16.93 17.85L16.98 17.18L17 17.09L17.03 17.01L17.06 16.94L17.11 16.86L17.17 16.79L17.24 16.74L17.31 16.7L17.4 16.66L17.49 16.63L17.57 16.63L17.65 16.63L17.74 16.64L17.82 16.67L17.9 16.71L17.97 16.76L18.03 16.82L18.08 16.89L18.12 16.97Z" fill="#05252F" fill-opacity="1.000000" fill-rule="evenodd"/>
					<path id="Vector" d="M30.04 46.67L29.99 46.58L29.9 46.53L29.81 46.51L28.11 46.51L28.03 46.52L27.97 46.58L27.92 46.64L27.9 46.72L27.9 47.68L28.85 47.68L28.85 49.53L28.83 49.66L28.77 49.79L28.69 49.87L28.57 49.93L28.43 49.95L26.47 49.95L26.32 49.94L26.18 49.88L26.06 49.8L25.96 49.69L25.89 49.55L25.85 49.42L25.83 49.27L25.87 49.11L25.93 48.98L25.91 48.98L26.03 48.72L26.1 48.45L26.16 48.17L26.17 47.88L26.19 47.88L26.19 46.58L25.1 46.58L25.32 47.57L25.32 47.78L6.33 49.13L6.19 49.11L6.13 49.05L6.07 48.98L6.06 48.9L6.04 48.91L6.04 42.2L6.7 42.2L6.7 41.02L6.69 40.97L6.63 40.93L6.15 40.81L6.1 40.81L6.04 40.85L6.03 40.9L6.03 41.25L6.01 41.31L5.95 41.33L5.73 41.3L5.51 41.22L5.31 41.12L5.11 41L4.94 40.84L4.81 40.67L4.68 40.48L4.6 40.26L4.54 39.99L4.54 39.26L4.56 39.18L4.61 39.12L4.68 39.07L5.49 38.77L5.7 38.73L5.98 38.73L6.04 38.75L6.06 38.81L6.06 39.2L6.07 39.25L6.1 39.29L6.12 39.29L6.65 39.16L6.7 39.12L6.72 39.07L6.72 37.86L5.41 37.86L0.18 39.78L0.05 39.86L-0.06 39.96L-0.13 40.07L-0.19 40.2L-0.21 40.34L-0.21 64.85L-0.19 64.93L-0.14 64.99L-0.08 65.05L0 65.06L0.51 65.06L0.67 65.02L0.82 64.94L1.3 64.46L1.38 64.31L1.42 64.15L1.42 63.68L0.95 63.68L0.95 61.84L0.97 61.84L0.98 61.75L1.04 61.69L1.1 61.64L1.18 61.63L1.18 61.61L3.41 61.61L3.5 61.65L3.55 61.7L3.57 61.78L3.17 64.04L3.2 64.19L3.58 64.86L3.6 64.84L3.69 64.96L3.82 65.04L3.97 65.06L4.12 65.06L4.25 65.04L4.37 64.98L4.51 64.84L4.92 64.28L5.01 64.11L5.03 63.98L5.03 63.68L4.11 63.68L4.05 63.64L4.03 63.58L4.36 61.72L4.41 61.65L4.53 61.61L15.7 61.61L15.84 61.49L15.96 61.61L21 61.61L21.11 61.65L21.16 61.72L21.5 63.58L21.47 63.64L21.41 63.68L20.52 63.68L20.52 63.98L20.54 64.11L20.6 64.23L21.08 64.89L21.16 64.97L21.29 65.03L21.42 65.05L21.58 65.05L21.73 65.03L21.85 64.96L21.97 64.8L22.33 64.18L22.36 64.03L21.97 61.76L21.98 61.69L22.02 61.63L22.13 61.6L28.69 61.6L28.69 61.61L28.77 61.63L28.83 61.68L28.88 61.74L28.9 61.82L28.9 63.67L28.43 63.67L28.43 64.13L28.47 64.29L28.55 64.44L29.03 64.93L29.19 65.01L29.34 65.05L29.85 65.05L29.93 65.03L29.99 64.98L30.05 64.92L30.06 64.83L30.08 64.83L30.08 46.76L30.04 46.67ZM1.09 40.68L3.71 39.73L3.71 40.02L3.75 40.31L3.81 40.6L3.91 40.87L4.04 41.12L4.2 41.36L4.4 41.57L4.61 41.76L4.86 41.94L5.11 42.07L5.11 47.97L1.09 47.97L1.09 40.68ZM3.77 60.54L1.09 60.54L1.09 56.3L3.77 56.3L3.77 60.54ZM3.77 55.78L1.09 55.78L1.09 48.4L5.1 48.4L5.1 49.02L5.11 49.04L5.13 49.23L5.19 49.42L5.27 49.6L5.38 49.75L5.52 49.91L5.67 50.02L5.85 50.11L3.77 55.78ZM7.43 60.54L4.2 60.54L4.2 56.3L7.43 56.3L7.43 60.54ZM7.43 55.78L4.22 55.78L6.26 50.21L7.43 50.13L7.43 55.78ZM23.79 50.95L22.06 50.95L22.06 51.47L23.79 51.47L23.79 55.83L23.58 56.04L23.79 56.26L23.79 60.53L7.87 60.53L7.87 57.42L8.09 57.2L7.87 56.99L7.87 51.47L9.61 51.47L9.61 50.95L7.87 50.95L7.87 50.1L23.79 48.98L23.79 50.95ZM26.04 60.54L24.22 60.54L24.22 56.3L26.04 56.3L26.04 60.54ZM26.04 55.78L24.22 55.78L24.22 48.96L25.02 48.9L24.94 49.13L24.9 49.36L24.9 49.58L24.96 49.82L25.02 50.03L25.13 50.23L25.27 50.42L25.42 50.59L25.62 50.73L25.82 50.82L26.04 50.9L26.04 55.78ZM28.77 60.54L26.47 60.54L26.47 56.3L28.77 56.3L28.77 60.54ZM28.77 54.06L28.34 54.06L28.34 54.49L28.77 54.49L28.77 55.78L26.47 55.78L26.47 50.9L27.47 50.9L27.47 51.59L27.96 51.59L28.33 50.9L28.76 50.9L28.76 54.06L28.77 54.06Z" fill="#05252F" fill-opacity="1.000000" fill-rule="nonzero"/>
					<path id="Vector" d="M20.07 4.19L19.13 4.19L19.13 25.07L20.07 25.07L20.07 4.19Z" fill="#05252F" fill-opacity="1.000000" fill-rule="nonzero"/>
					<path id="Vector" d="M31.57 4.19L30.63 4.19L30.63 25.07L31.57 25.07L31.57 4.19Z" fill="#05252F" fill-opacity="1.000000" fill-rule="nonzero"/>
					<path id="Vector" d="M25.68 4.19L24.74 4.19L24.74 25.07L25.68 25.07L25.68 4.19Z" fill="#05252F" fill-opacity="1.000000" fill-rule="nonzero"/>
					<path id="Vector" d="M24.74 23.05L20.07 23.05L20.07 25.07L24.74 25.07L24.74 23.05Z" fill="#05252F" fill-opacity="1.000000" fill-rule="nonzero"/>
					<path id="Vector" d="M30.63 23.05L25.68 23.05L25.68 25.07L30.63 25.07L30.63 23.05Z" fill="#05252F" fill-opacity="1.000000" fill-rule="nonzero"/>
					<path id="Vector" d="M39.77 25.2L39.71 25.12L39.63 25.06L39.53 25.04L37.84 25.04L37.76 25.06L37.7 25.11L37.64 25.17L37.63 25.25L37.63 26.2L38.58 26.2L38.58 28.06L38.56 28.2L38.5 28.32L38.42 28.4L38.29 28.46L38.16 28.48L36.14 28.48L36.01 28.46L35.87 28.4L35.76 28.32L35.67 28.2L35.6 28.08L35.56 27.95L35.56 27.8L35.6 27.66L35.66 27.53L35.64 27.51L35.76 27.25L35.83 26.98L35.89 26.7L35.9 26.41L35.92 26.43L35.92 25.12L34.83 25.12L35.05 26.11L35.05 26.33L25.89 26.97L25.74 27.13L25.59 26.98L16.07 27.65L15.93 27.62L15.85 27.57L15.8 27.5L15.79 27.41L15.77 27.43L15.77 20.7L16.43 20.7L16.43 19.56L16.37 19.47L15.86 19.33L15.8 19.35L15.78 19.41L15.78 19.77L15.76 19.82L15.71 19.86L15.66 19.86L15.66 19.84L15.44 19.8L15.23 19.74L15.02 19.64L14.83 19.5L14.67 19.35L14.52 19.16L14.4 18.98L14.32 18.77L14.26 18.55L14.26 17.79L14.28 17.7L14.33 17.64L14.44 17.57L15.21 17.3L15.42 17.26L15.69 17.26L15.75 17.28L15.77 17.34L15.77 17.73L15.79 17.79L15.85 17.82L16.36 17.68L16.41 17.64L16.43 17.59L16.43 16.39L15.13 16.39L9.92 18.27L9.93 18.28L9.8 18.36L9.68 18.46L9.59 18.59L9.54 18.74L9.52 18.89L9.52 41.65L9.53 41.73L9.59 41.79L9.65 41.85L9.73 41.86L10.59 41.86L10.67 41.85L10.73 41.79L10.79 41.73L10.81 41.56L10.81 41.34L10.38 41.34L10.46 40.26L10.48 40.17L10.53 40.11L10.61 40.06L10.69 40.04L12.84 40.04L12.92 40.06L12.98 40.11L13.04 40.17L13.05 40.26L13.07 40.26L13.07 41.42L12.55 41.42L12.55 41.85L14.14 41.85L17.74 42.28L22.4 42.28L22.4 41.33L23.26 41.33L23.26 40.57L22.4 40.57L22.4 37.85L22.42 37.85L22.43 37.7L22.49 37.57L22.56 37.45L22.68 37.34L22.79 37.27L22.92 37.21L23.08 37.2L25.76 37.2L25.97 37.06L26.19 37.2L28.78 37.2L28.93 37.21L29.06 37.27L29.18 37.34L29.29 37.45L29.37 37.57L29.42 37.7L29.43 37.85L29.43 40.57L28.57 40.57L28.57 41.35L29.43 41.35L29.43 42.3L33.55 42.3L33.55 46.61L32.87 46.61L32.87 47.77L32.89 47.83L32.94 47.86L33.41 48L33.46 48L33.51 47.96L33.53 47.91L33.53 47.45L33.55 47.39L33.59 47.37L33.86 47.41L34.1 47.49L34.33 47.6L34.53 47.74L34.71 47.89L34.86 48.04L34.96 48.23L35.02 48.38L35.05 48.56L35.05 49.84L35.03 49.92L34.98 49.98L34.9 50.03L34.73 50.06L33.63 50.06L33.54 50.02L33.52 49.96L33.52 49.57L33.51 49.52L33.45 49.48L33.4 49.48L32.95 49.6L32.89 49.65L32.87 49.7L32.87 50.92L38.7 50.92L38.7 50.91L38.89 50.89L39.08 50.84L39.25 50.76L39.4 50.66L39.54 50.52L39.64 50.36L39.72 50.21L39.77 50.02L39.79 49.83L39.81 49.83L39.81 25.3L39.77 25.2ZM10.82 19.21L13.45 18.25L13.43 18.54L13.47 18.83L13.53 19.12L13.63 19.39L13.76 19.65L13.92 19.88L14.12 20.1L14.33 20.29L14.58 20.46L14.83 20.58L14.83 26.49L10.82 26.49L10.82 19.21ZM13.49 38.91L13.45 39.02L13.39 39.07L13.31 39.06L13.08 39L12.84 38.98L10.94 38.98L10.88 38.96L10.82 38.91L10.81 38.85L10.81 35.18L13.49 35.18L13.49 38.91ZM10.82 34.74L10.82 26.92L14.84 26.92L14.84 27.59L14.85 27.57L14.87 27.79L14.93 28L15.03 28.19L15.17 28.36L15.33 28.51L15.52 28.64L13.5 34.75L10.82 34.75L10.82 34.74ZM17.3 40.99L17.26 41.08L17.21 41.13L17.15 41.14L14.37 40.82L14.23 40.77L14.17 40.69L14.13 40.54L14.13 40.27L14.11 40.04L14.05 39.8L13.94 39.59L13.95 39.59L13.93 39.53L13.93 35.19L17.3 35.19L17.3 40.99ZM17.3 34.74L13.95 34.74L15.89 28.87L15.95 28.77L16.01 28.75L17.3 28.65L17.3 34.74ZM33.74 34.35L33.52 34.57L33.74 34.79L33.74 41.22L30.69 41.22L30.57 41.2L30.52 41.14L30.49 41.02L30.49 38.45L31.32 38.45L31.32 38.06L30.49 38.06L30.49 37.85L30.48 37.6L30.42 37.36L30.33 37.13L30.22 36.91L30.07 36.72L29.9 36.54L29.7 36.39L29.48 36.28L29.25 36.2L29.01 36.14L28.76 36.12L27.33 36.12L27.27 36.11L27.21 36.05L27.2 35.99L27.2 35.47L27.18 35.34L27.12 35.22L27.03 35.13L26.91 35.07L26.78 35.05L26.35 35.05L26.35 35.95L25.48 35.95L25.48 35.05L25.05 35.05L24.92 35.07L24.8 35.13L24.71 35.22L24.65 35.34L24.63 35.47L24.63 35.93L24.61 36.05L24.56 36.11L24.5 36.12L23.05 36.12L22.8 36.14L22.57 36.2L22.34 36.28L22.12 36.39L21.92 36.54L21.75 36.72L21.6 36.91L21.48 37.13L21.4 37.36L21.34 37.6L21.32 37.85L21.32 41.02L21.3 41.14L21.25 41.2L21.13 41.22L17.92 41.22L17.8 41.2L17.74 41.14L17.73 41.08L17.73 35.17L17.94 34.96L17.73 34.74L17.73 28.62L24.78 28.13L24.78 28.4L25.3 28.4L25.3 28.09L26.16 28.03L26.16 28.4L26.69 28.4L26.69 27.99L29.77 27.77L29.9 27.8L29.95 27.85L29.97 27.97L29.97 28.4L30.49 28.4L30.49 27.91L30.52 27.79L30.57 27.75L30.62 27.73L33.6 27.52L33.67 27.53L33.73 27.59L33.75 27.71L33.75 34.35L33.74 34.35ZM34.17 27.59L34.19 27.53L34.24 27.49L34.29 27.47L34.55 27.44L34.65 27.48L34.71 27.53L34.72 27.61L34.68 27.83L34.68 28.04L34.72 28.26L34.78 28.47L34.87 28.66L34.99 28.85L35.14 29.01L35.31 29.16L35.5 29.27L35.71 29.35L35.92 29.4L35.92 34.37L34.19 34.37L34.19 27.59L34.17 27.59ZM34.17 41.23L34.17 34.79L35.9 34.79L35.9 41.23L34.17 41.23ZM38.5 49.33L38.48 49.47L38.42 49.59L38.33 49.67L38.21 49.73L38.08 49.75L35.92 49.75L35.92 48.65L35.88 48.34L35.8 48.03L35.69 47.77L35.48 47.46L35.24 47.22L34.97 47L34.65 46.79L34.63 46.77L34.62 46.71L34.62 45.53L38.51 45.53L38.51 49.33L38.5 49.33ZM38.5 45.02L34.61 45.02L34.61 41.86L34.62 41.8L34.68 41.75L34.74 41.73L38.51 41.73L38.51 45.02L38.5 45.02ZM38.5 41.23L36.34 41.23L36.34 29.43L38.5 29.43L38.5 41.23Z" fill="#05252F" fill-opacity="1.000000" fill-rule="nonzero"/>
					<path id="Vector" d="M39.77 25.2L39.71 25.12L39.63 25.06L39.53 25.04L37.84 25.04L37.76 25.06L37.7 25.11L37.64 25.17L37.63 25.25L37.63 26.2L38.58 26.2L38.58 28.06L38.56 28.2L38.5 28.32L38.42 28.4L38.29 28.46L38.16 28.48L36.14 28.48L36.01 28.46L35.87 28.4L35.76 28.32L35.67 28.2L35.6 28.08L35.56 27.95L35.56 27.8L35.6 27.66L35.66 27.53L35.64 27.51L35.76 27.25L35.83 26.98L35.89 26.7L35.9 26.41L35.92 26.43L35.92 25.12L34.83 25.12L35.05 26.11L35.05 26.33L25.89 26.97L25.74 27.13L25.59 26.98L16.07 27.65L15.93 27.62L15.85 27.57L15.8 27.5L15.79 27.41L15.77 27.43L15.77 20.7L16.43 20.7L16.43 19.56L16.37 19.47L15.86 19.33L15.8 19.35L15.78 19.41L15.78 19.77L15.76 19.82L15.71 19.86L15.66 19.86L15.66 19.84L15.44 19.8L15.23 19.74L15.02 19.64L14.83 19.5L14.67 19.35L14.52 19.16L14.4 18.98L14.32 18.77L14.26 18.55L14.26 17.79L14.28 17.7L14.33 17.64L14.44 17.57L15.21 17.3L15.42 17.26L15.69 17.26L15.75 17.28L15.77 17.34L15.77 17.73L15.79 17.79L15.85 17.82L16.36 17.68L16.41 17.64L16.43 17.59L16.43 16.39L15.13 16.39L9.92 18.27L9.93 18.28L9.8 18.36L9.68 18.46L9.59 18.59L9.54 18.74L9.52 18.89L9.52 41.65L9.53 41.73L9.59 41.79L9.65 41.85L9.73 41.86L10.59 41.86L10.67 41.85L10.73 41.79L10.79 41.73L10.81 41.56L10.81 41.34L10.38 41.34L10.46 40.26L10.48 40.17L10.53 40.11L10.61 40.06L10.69 40.04L12.84 40.04L12.92 40.06L12.98 40.11L13.04 40.17L13.05 40.26L13.07 40.26L13.07 41.42L12.55 41.42L12.55 41.85L14.14 41.85L17.74 42.28L22.4 42.28L22.4 41.33L23.26 41.33L23.26 40.57L22.4 40.57L22.4 37.85L22.42 37.85L22.43 37.7L22.49 37.57L22.56 37.45L22.68 37.34L22.79 37.27L22.92 37.21L23.08 37.2L25.76 37.2L25.97 37.06L26.19 37.2L28.78 37.2L28.93 37.21L29.06 37.27L29.18 37.34L29.29 37.45L29.37 37.57L29.42 37.7L29.43 37.85L29.43 40.57L28.57 40.57L28.57 41.35L29.43 41.35L29.43 42.3L33.55 42.3L33.55 46.61L32.87 46.61L32.87 47.77L32.89 47.83L32.94 47.86L33.41 48L33.46 48L33.51 47.96L33.53 47.91L33.53 47.45L33.55 47.39L33.59 47.37L33.86 47.41L34.1 47.49L34.33 47.6L34.53 47.74L34.71 47.89L34.86 48.04L34.96 48.23L35.02 48.38L35.05 48.56L35.05 49.84L35.03 49.92L34.98 49.98L34.9 50.03L34.73 50.06L33.63 50.06L33.54 50.02L33.52 49.96L33.52 49.57L33.51 49.52L33.45 49.48L33.4 49.48L32.95 49.6L32.89 49.65L32.87 49.7L32.87 50.92L38.7 50.92L38.7 50.91L38.89 50.89L39.08 50.84L39.25 50.76L39.4 50.66L39.54 50.52L39.64 50.36L39.72 50.21L39.77 50.02L39.79 49.83L39.81 49.83L39.81 25.3L39.77 25.2ZM10.82 19.21L13.45 18.25L13.43 18.54L13.47 18.83L13.53 19.12L13.63 19.39L13.76 19.65L13.92 19.88L14.12 20.1L14.33 20.29L14.58 20.46L14.83 20.58L14.83 26.49L10.82 26.49L10.82 19.21ZM13.49 38.91L13.45 39.02L13.39 39.07L13.31 39.06L13.08 39L12.84 38.98L10.94 38.98L10.88 38.96L10.82 38.91L10.81 38.85L10.81 35.18L13.49 35.18L13.49 38.91ZM10.82 34.74L10.82 26.92L14.84 26.92L14.84 27.59L14.85 27.57L14.87 27.79L14.93 28L15.03 28.19L15.17 28.36L15.33 28.51L15.52 28.64L13.5 34.75L10.82 34.75L10.82 34.74ZM17.3 40.99L17.26 41.08L17.21 41.13L17.15 41.14L14.37 40.82L14.23 40.77L14.17 40.69L14.13 40.54L14.13 40.27L14.11 40.04L14.05 39.8L13.94 39.59L13.95 39.59L13.93 39.53L13.93 35.19L17.3 35.19L17.3 40.99ZM17.3 34.74L13.95 34.74L15.89 28.87L15.95 28.77L16.01 28.75L17.3 28.65L17.3 34.74ZM33.74 34.35L33.52 34.57L33.74 34.79L33.74 41.22L30.69 41.22L30.57 41.2L30.52 41.14L30.49 41.02L30.49 38.45L31.32 38.45L31.32 38.06L30.49 38.06L30.49 37.85L30.48 37.6L30.42 37.36L30.33 37.13L30.22 36.91L30.07 36.72L29.9 36.54L29.7 36.39L29.48 36.28L29.25 36.2L29.01 36.14L28.76 36.12L27.33 36.12L27.27 36.11L27.21 36.05L27.2 35.99L27.2 35.47L27.18 35.34L27.12 35.22L27.03 35.13L26.91 35.07L26.78 35.05L26.35 35.05L26.35 35.95L25.48 35.95L25.48 35.05L25.05 35.05L24.92 35.07L24.8 35.13L24.71 35.22L24.65 35.34L24.63 35.47L24.63 35.93L24.61 36.05L24.56 36.11L24.5 36.12L23.05 36.12L22.8 36.14L22.57 36.2L22.34 36.28L22.12 36.39L21.92 36.54L21.75 36.72L21.6 36.91L21.48 37.13L21.4 37.36L21.34 37.6L21.32 37.85L21.32 41.02L21.3 41.14L21.25 41.2L21.13 41.22L17.92 41.22L17.8 41.2L17.74 41.14L17.73 41.08L17.73 35.17L17.94 34.96L17.73 34.74L17.73 28.62L24.78 28.13L24.78 28.4L25.3 28.4L25.3 28.09L26.16 28.03L26.16 28.4L26.69 28.4L26.69 27.99L29.77 27.77L29.9 27.8L29.95 27.85L29.97 27.97L29.97 28.4L30.49 28.4L30.49 27.91L30.52 27.79L30.57 27.75L30.62 27.73L33.6 27.52L33.67 27.53L33.73 27.59L33.75 27.71L33.75 34.35L33.74 34.35ZM34.17 27.59L34.19 27.53L34.24 27.49L34.29 27.47L34.55 27.44L34.65 27.48L34.71 27.53L34.72 27.61L34.68 27.83L34.68 28.04L34.72 28.26L34.78 28.47L34.87 28.66L34.99 28.85L35.14 29.01L35.31 29.16L35.5 29.27L35.71 29.35L35.92 29.4L35.92 34.37L34.19 34.37L34.19 27.59L34.17 27.59ZM34.17 41.23L34.17 34.79L35.9 34.79L35.9 41.23L34.17 41.23ZM38.5 49.33L38.48 49.47L38.42 49.59L38.33 49.67L38.21 49.73L38.08 49.75L35.92 49.75L35.92 48.65L35.88 48.34L35.8 48.03L35.69 47.77L35.48 47.46L35.24 47.22L34.97 47L34.65 46.79L34.63 46.77L34.62 46.71L34.62 45.53L38.51 45.53L38.51 49.33L38.5 49.33ZM38.5 45.02L34.61 45.02L34.61 41.86L34.62 41.8L34.68 41.75L34.74 41.73L38.51 41.73L38.51 45.02L38.5 45.02ZM38.5 41.23L36.34 41.23L36.34 29.43L38.5 29.43L38.5 41.23Z" fill="#05252F" fill-opacity="1.000000" fill-rule="evenodd"/>
					<path id="Vector" d="M31.99 19.76L32.02 19.78L32.03 19.78L33.47 20.5L33.47 18.83L31.59 17.24L31.56 17.21L31.55 17.18L31.56 17.15L31.56 17.12L31.6 17.09L31.63 17.08L31.66 17.08L33.47 17.95L34.05 17.95L34.05 17.96L34.29 17.98L34.53 18L34.77 18.04L35.02 18.08L35.26 18.14L35.49 18.21L35.73 18.29L35.95 18.37L36.18 18.48L36.4 18.59L36.61 18.71L36.82 18.83L37.03 18.97L37.21 19.12L37.4 19.28L37.58 19.44L37.77 19.61L37.93 19.79L38.09 19.98L38.23 20.17L38.38 20.37L38.51 20.58L38.63 20.79L38.74 21.01L38.85 21.23L38.94 21.46L39.02 21.69L39.09 21.92L39.15 22.16L39.2 22.4L39.24 22.64L39.26 22.89L39.28 23.13L39.28 23.37L39.29 23.37L39.29 24.95L37.54 24.76L37.54 25.71L36.91 27.51L36.87 27.59L36.8 27.65L36.74 27.7L36.66 27.74L36.58 27.77L36.5 27.78L36.41 27.79L36.1 27.79L35.98 27.78L35.92 27.77L35.86 27.75L35.81 27.71L35.77 27.68L35.73 27.62L35.7 27.57L35.68 27.5L35.68 27.44L35.68 27.38L35.7 27.32L35.73 27.26L35.76 27.22L35.81 27.17L35.86 27.14L35.92 27.11L35.98 27.1L36.04 27.1L36.26 27.1L36.63 26.01L36.66 25.94L36.66 25.87L36.66 25.79L36.64 25.73L36.61 25.66L36.58 25.6L36.53 25.55L36.47 25.5L36.41 25.46L36.34 25.45L36.24 25.42L36.07 25.42L36.07 24.82L35.21 24.89L35.21 23.91L35.2 23.75L35.17 23.6L35.14 23.44L35.08 23.3L35.02 23.15L34.96 23.01L34.87 22.88L34.79 22.75L34.69 22.62L34.59 22.51L34.47 22.4L34.34 22.3L34.22 22.21L34.09 22.13L33.94 22.06L33.86 22.03L33.79 21.98L33.71 21.93L33.65 21.87L33.59 21.8L33.54 21.73L33.51 21.64L33.48 21.56L33.47 21.44L33.47 21.09L31.93 19.94L31.93 19.93L31.9 19.92L31.88 19.89L31.88 19.86L31.88 19.83L31.9 19.8L31.93 19.78L31.96 19.76L31.99 19.76ZM38.6 23.25L38.6 23.47L38.6 23.48L38.6 24.26L37.61 24.14L37.52 24.17L37.45 24.2L37.38 24.25L37.32 24.31L37.27 24.37L37.22 24.45L37.2 24.51L37.15 24.55L37.12 24.58L37.06 24.6L37.02 24.6L36.97 24.6L36.92 24.58L36.88 24.55L36.85 24.51L36.81 24.44L36.75 24.37L36.69 24.32L36.63 24.27L36.55 24.23L36.47 24.2L36.39 24.19L36.31 24.18L36.23 24.19L35.88 24.21L35.87 24.02L35.85 23.84L35.82 23.65L35.78 23.46L35.73 23.28L35.66 23.1L35.58 22.92L35.49 22.75L35.4 22.59L35.3 22.43L35.18 22.28L35.05 22.13L34.91 21.99L34.77 21.87L34.62 21.75L34.46 21.64L34.3 21.54L34.13 21.46L34.13 18.72L34.13 18.67L34.16 18.65L34.18 18.64L34.2 18.64L34.43 18.66L34.66 18.7L34.89 18.74L35.11 18.8L35.33 18.88L35.55 18.95L35.76 19.04L35.97 19.15L36.18 19.26L36.38 19.38L36.56 19.51L36.75 19.65L36.93 19.79L37.1 19.95L37.27 20.11L37.43 20.29L37.57 20.47L37.71 20.65L37.83 20.85L37.96 21.04L38.07 21.24L38.17 21.46L38.26 21.67L38.34 21.88L38.42 22.11L38.47 22.33L38.52 22.56L38.56 22.78L38.59 23.01L38.6 23.25Z" fill="#05252F" fill-opacity="1.000000" fill-rule="evenodd"/>
				</g>
			</g>
		</g>
	</g>
</svg>
