<svg width="40.000000" height="70.000000" viewBox="0 0 40 70" fill="none" xmlns="http://www.w3.org/2000/svg" xmlns:xlink="http://www.w3.org/1999/xlink">
	<desc>
			Created with Pixso.
	</desc>
	<defs>
		<clipPath id="clip2212_634">
			<rect id="smart.svg" width="40.000000" height="67.469879" transform="translate(-0.205078 0.685547)" fill="white" fill-opacity="0"/>
		</clipPath>
		<clipPath id="clip2212_633">
			<rect id="smart.svg fill" width="40.000000" height="70.000000" transform="translate(-0.205078 -0.579102)" fill="white" fill-opacity="0"/>
		</clipPath>
		<clipPath id="clip2212_632">
			<rect id="smart.svg" width="40.000000" height="70.000000" transform="translate(-0.205078 -0.579102)" fill="white" fill-opacity="0"/>
		</clipPath>
	</defs>
	<g clip-path="url(#clip2212_632)">
		<g clip-path="url(#clip2212_633)">
			<g clip-path="url(#clip2212_634)">
				<mask id="mask2212_647" mask-type="alpha" maskUnits="userSpaceOnUse" x="-0.205078" y="0.685547" width="40.000000" height="67.469727">
					<path id="Vector" d="M-0.21 0.68L39.79 0.68L39.79 68.15L-0.21 68.15L-0.21 0.68Z" fill="#000000" fill-opacity="1.000000" fill-rule="evenodd"/>
				</mask>
				<g mask="url(#mask2212_647)">
					<path id="Vector" d="M5.41 40.7L5.08 40.98L5.08 41.49L5.41 41.77L6.78 41.77L6.78 40.7L5.41 40.7ZM9.27 40.24L9.23 40.1L9.17 39.96L9.08 39.81L8.99 39.67L8.89 39.55L8.77 39.44L8.64 39.34L8.51 39.26L8.36 39.19L8.21 39.14L8.06 39.09L7.91 39.07L7.75 39.06L7.75 39.05L7.16 39.05L7.2 40.22L7.2 40.3L7.4 40.29L7.59 40.28L7.79 40.29L7.97 40.31L8.16 40.36L8.35 40.41L8.53 40.49L8.7 40.58L8.87 40.68L9.03 40.79L9.18 40.92L9.32 41.05L9.45 41.21L9.57 41.36L9.67 41.53L9.75 41.7L9.83 41.89L9.84 41.94L9.83 41.98L9.8 42.03L9.77 42.06L9.73 42.08L9.69 42.09L9.64 42.08L9.6 42.07L9.56 42.04L9.51 41.95L9.46 41.84L9.36 41.68L9.26 41.53L9.14 41.39L9.02 41.27L8.88 41.16L8.73 41.05L8.58 40.97L8.42 40.9L8.25 40.84L8.08 40.8L7.9 40.77L7.73 40.76L7.55 40.77L7.37 40.8L7.2 40.83L7.2 42.78L6.8 42.78L6.8 42.2L6.79 42.16L6.77 42.14L6.71 42.13L5.89 42.13L5.86 42.14L5.85 42.15L5.9 42.43L5.89 42.52L5.87 42.55L5.83 42.57L5.8 42.57L5.73 42.54L4.7 41.66L4.7 40.79L5.75 39.9L5.8 39.88L5.83 39.88L5.87 39.9L5.89 39.93L5.9 39.99L5.85 40.27L5.86 40.3L5.89 40.3L6.74 40.3L6.77 40.28L6.79 40.23L6.74 38.58L7.7 38.58L7.92 38.61L8.09 38.63L8.25 38.68L8.42 38.74L8.57 38.8L8.72 38.89L8.86 38.99L8.99 39.1L9.11 39.22L9.23 39.36L9.33 39.49L9.41 39.65L9.49 39.8L9.55 39.96L9.59 40.1L9.6 40.17L9.59 40.22L9.57 40.26L9.53 40.3L9.48 40.32L9.43 40.33L9.38 40.32L9.34 40.3L9.27 40.24Z" fill="#05252F" fill-opacity="1.000000" fill-rule="evenodd"/>
					<path id="Vector" d="M34.1 52.46L34.43 52.17L34.43 51.66L34.1 51.38L32.72 51.38L32.72 52.46L34.1 52.46ZM30.24 52.91L30.28 53.05L30.34 53.2L30.43 53.34L30.52 53.48L30.62 53.6L30.74 53.71L30.87 53.81L31 53.89L31.15 53.96L31.3 54.01L31.45 54.06L31.61 54.08L31.77 54.09L31.77 54.1L32.35 54.1L32.31 52.93L32.31 52.85L32.11 52.86L31.92 52.87L31.72 52.86L31.54 52.84L31.35 52.8L31.16 52.74L30.99 52.66L30.81 52.57L30.64 52.47L30.49 52.36L30.33 52.23L30.19 52.1L30.06 51.94L29.94 51.79L29.84 51.62L29.76 51.45L29.68 51.26L29.67 51.21L29.68 51.17L29.71 51.13L29.74 51.09L29.78 51.07L29.83 51.06L29.87 51.07L29.91 51.08L29.95 51.11L30 51.2L30.06 51.31L30.15 51.47L30.25 51.62L30.37 51.76L30.5 51.88L30.63 51.99L30.78 52.1L30.94 52.18L31.1 52.25L31.27 52.31L31.44 52.35L31.61 52.38L31.78 52.39L31.96 52.38L32.14 52.35L32.31 52.32L32.31 50.38L32.72 50.38L32.72 50.95L32.72 50.99L32.74 51.02L32.8 51.02L33.62 51.02L33.66 51.02L33.66 51L33.61 50.72L33.62 50.67L33.65 50.64L33.68 50.61L33.72 50.61L33.78 50.65L34.82 51.53L34.82 52.39L33.77 53.28L33.72 53.31L33.68 53.31L33.65 53.28L33.62 53.26L33.61 53.2L33.66 52.91L33.66 52.89L33.62 52.88L32.77 52.88L32.74 52.91L32.72 52.96L32.77 54.6L31.81 54.6L31.59 54.58L31.42 54.55L31.26 54.51L31.1 54.45L30.94 54.38L30.79 54.3L30.66 54.19L30.52 54.08L30.4 53.96L30.28 53.83L30.18 53.69L30.1 53.54L30.02 53.38L29.96 53.23L29.92 53.09L29.91 53.02L29.92 52.97L29.94 52.92L29.99 52.88L30.03 52.86L30.08 52.86L30.13 52.86L30.17 52.89L30.24 52.91Z" fill="#05252F" fill-opacity="1.000000" fill-rule="evenodd"/>
					<path id="Vector" d="M18.88 16.88L18.82 16.92L18.81 16.96L18.82 17.01L19.29 17.99L19.33 18L19.38 18.02L19.41 18.06L19.44 18.11L19.45 18.16L19.45 18.21L19.43 18.26L19.4 18.3L19.36 18.33L19.31 18.35L19.26 18.36L19.21 18.35L19.17 18.34L18.04 17.04L17.52 17.04L17.46 17.07L17.41 17.11L17.39 17.16L17.38 17.27L17.38 18.45L17.37 18.48L17.35 18.52L17.32 18.53L17.28 18.54L17.03 18.54L16.99 18.53L16.96 18.52L16.94 18.48L16.93 18.41L16.93 18L16.92 17.94L16.91 17.92L16.85 17.91L16.08 17.91L16.05 18.27L16.02 18.3L15.96 18.29L14.88 17.44L14.88 16.58L15.96 15.73L16.02 15.72L16.05 15.74L16.08 16.1L16.86 16.1L16.91 16.09L16.93 16.04L16.93 14.44L17.26 14.31L17.6 14.21L17.94 14.12L18.28 14.04L18.63 13.98L18.97 13.94L19.33 13.91L19.68 13.9L19.72 13.91L19.75 13.92L19.78 13.96L19.79 13.99L19.79 14.03L19.78 14.08L19.46 14.64L19.45 14.71L19.46 14.76L19.54 14.88L19.62 15L19.67 15.13L19.72 15.27L19.74 15.41L19.75 15.56L19.75 15.7L19.74 15.84L19.7 15.99L19.65 16.12L19.6 16.25L19.52 16.38L19.43 16.49L19.34 16.59L19.23 16.68L19.11 16.77L18.98 16.84L18.88 16.88ZM16.98 17.31L16.98 16.71L16.97 16.6L16.94 16.56L16.91 16.52L16.86 16.5L16.76 16.48L15.93 16.48L15.88 16.5L15.82 16.51L15.8 16.53L15.44 16.83L15.39 16.89L15.36 16.95L15.35 17.01L15.36 17.08L15.39 17.13L15.44 17.2L15.8 17.48L15.82 17.5L15.88 17.53L15.93 17.54L16.76 17.54L16.86 17.53L16.91 17.49L16.94 17.46L16.97 17.42L16.98 17.31ZM18.78 15.13L18.82 15.24L18.84 15.35L18.84 15.48L18.83 15.61L18.8 15.74L18.76 15.86L18.71 15.97L18.63 16.08L18.56 16.17L18.46 16.26L18.36 16.34L18.25 16.4L18.13 16.45L18.02 16.48L17.89 16.5L17.76 16.5L17.69 16.5L17.63 16.48L17.57 16.45L17.52 16.39L17.48 16.34L17.46 16.27L17.45 16.22L17.45 16.14L17.5 15.37L17.52 15.28L17.55 15.18L17.59 15.1L17.64 15.01L17.71 14.94L17.79 14.88L17.87 14.83L17.96 14.78L18.07 14.76L18.16 14.75L18.25 14.76L18.35 14.77L18.44 14.8L18.53 14.84L18.61 14.9L18.68 14.97L18.74 15.05L18.78 15.13Z" fill="#05252F" fill-opacity="1.000000" fill-rule="evenodd"/>
					<path id="Vector" d="M20.96 0.68L19.9 0.68L19.9 24.3L20.96 24.3L20.96 0.68Z" fill="#05252F" fill-opacity="1.000000" fill-rule="nonzero"/>
					<path id="Vector" d="M33.87 0.68L32.81 0.68L32.81 24.3L33.87 24.3L33.87 0.68Z" fill="#05252F" fill-opacity="1.000000" fill-rule="nonzero"/>
					<path id="Vector" d="M27.26 0.68L26.2 0.68L26.2 24.3L27.26 24.3L27.26 0.68Z" fill="#05252F" fill-opacity="1.000000" fill-rule="nonzero"/>
					<path id="Vector" d="M26.2 22.02L20.96 22.02L20.96 24.3L26.2 24.3L26.2 22.02Z" fill="#05252F" fill-opacity="1.000000" fill-rule="nonzero"/>
					<path id="Vector" d="M32.81 22.02L27.26 22.02L27.26 24.3L32.81 24.3L32.81 22.02Z" fill="#05252F" fill-opacity="1.000000" fill-rule="nonzero"/>
					<path id="Vector" d="M29.64 49.13L29.63 49.02L29.6 48.92L29.53 48.82L29.45 48.74L29.35 48.67L29.25 48.64L29.14 48.63L29.14 48.62L27.47 48.62L27.33 48.64L27.25 48.67L27.2 48.72L27.17 48.8L27.16 48.88L27.16 49.98L28.25 49.98L28.25 52.12L28.24 52.12L28.23 52.23L28.2 52.34L28.13 52.44L28.06 52.51L27.95 52.58L27.85 52.62L27.74 52.63L27.74 52.63L25.48 52.63L25.48 52.63L25.35 52.62L25.23 52.58L25.11 52.53L25 52.46L24.91 52.36L24.84 52.25L24.78 52.13L24.76 52L24.75 51.88L24.77 51.75L24.8 51.63L24.85 51.51L24.97 51.27L25.06 51.02L25.12 50.77L25.15 50.5L25.16 50.25L25.16 48.73L23.91 48.73L24.16 49.89L24.16 50.14L24.02 50.14L6.29 51.54L6.2 51.53L6.13 51.5L6.06 51.45L6.03 51.37L6 51.25L6 43.62L6.75 43.62L6.75 42.29L6.72 42.2L6.64 42.15L6.14 42.02L6.06 42.03L6.03 42.06L6 42.14L6 42.54L5.98 42.6L5.95 42.64L5.91 42.66L5.83 42.68L5.63 42.63L5.41 42.55L5.2 42.45L5.01 42.32L4.82 42.18L4.67 42.02L4.53 41.84L4.41 41.61L4.34 41.37L4.31 41.09L4.31 40.27L4.34 40.18L4.41 40.1L4.54 40.04L5.75 39.72L5.88 39.7L5.95 39.72L5.98 39.78L6 39.84L6 40.13L6.03 40.22L6.07 40.24L6.14 40.26L6.67 40.11L6.71 40.07L6.74 39.99L6.74 38.61L5.99 38.61L0.35 40.14L0.36 40.15L0.23 40.19L0.1 40.26L0 40.36L-0.08 40.47L-0.15 40.59L-0.19 40.73L-0.2 40.87L-0.21 40.87L-0.21 67.9L-0.2 67.98L-0.17 68.06L-0.12 68.11L-0.04 68.14L0.04 68.15L0.63 68.15L0.76 68.13L0.87 68.09L0.98 68.01L1.54 67.44L1.62 67.34L1.66 67.22L1.68 67.09L1.68 66.55L1.13 66.55L1.13 64.39L1.14 64.32L1.17 64.24L1.22 64.19L1.3 64.15L1.37 64.15L3.98 64.15L4.05 64.15L4.09 64.2L4.12 64.25L4.13 64.32L3.66 66.98L3.68 67.09L4.14 67.9L4.23 68L4.33 68.08L4.45 68.13L4.58 68.14L4.76 68.14L4.88 68.13L4.99 68.09L5.09 68.02L5.17 67.94L5.72 67.17L5.79 67.03L5.82 66.83L5.82 66.55L4.9 66.55L4.77 66.53L4.73 66.49L4.7 66.44L4.69 66.34L5.06 64.27L5.09 64.21L5.14 64.17L5.2 64.15L24.23 64.15L24.3 64.17L24.35 64.21L24.38 64.27L24.74 66.38L24.73 66.45L24.71 66.5L24.67 66.54L24.54 66.56L23.62 66.56L23.62 66.84L23.66 67.04L23.73 67.21L24.27 67.95L24.35 68.03L24.45 68.1L24.56 68.14L24.67 68.15L24.86 68.15L24.99 68.13L25.11 68.09L25.21 68.01L25.29 67.9L25.76 67.09L25.78 66.99L25.31 64.35L25.33 64.26L25.35 64.21L25.39 64.16L25.46 64.15L28.06 64.15L28.14 64.16L28.22 64.2L28.27 64.25L28.3 64.32L28.31 64.4L28.31 66.56L27.75 66.56L27.75 67.03L27.78 67.23L27.82 67.35L27.95 67.5L28.41 67.97L28.56 68.1L28.68 68.14L28.81 68.16L29.39 68.16L29.47 68.15L29.55 68.12L29.6 68.07L29.63 67.99L29.65 67.84L29.65 49.13L29.64 49.13ZM1.19 41.22L3.15 40.69L3.2 41.39L3.21 41.39L3.28 41.66L3.38 41.92L3.51 42.17L3.65 42.42L3.81 42.64L4 42.85L4.21 43.05L4.44 43.21L4.68 43.35L4.92 43.48L4.92 49.35L1.19 49.35L1.19 41.22ZM3.53 62.84L3.51 62.95L3.48 63L3.43 63.03L3.38 63.04L1.19 63.04L1.19 59.03L3.37 59.03L3.42 59.04L3.46 59.08L3.49 59.12L3.51 59.23L3.51 62.84L3.53 62.84ZM3.54 58.44L3.51 58.49L3.47 58.52L3.4 58.53L1.19 58.53L1.19 49.85L4.92 49.85L4.92 51.36L4.92 51.35L4.93 51.55L4.96 51.76L5.01 51.95L5.09 52.14L5.19 52.31L5.29 52.46L5.33 52.55L5.31 52.67L3.54 58.44ZM6.01 62.9L6 62.95L5.97 63L5.92 63.03L5.87 63.04L4.17 63.04L4.09 63.02L4.04 62.97L4.02 62.86L4.02 59.25L4.03 59.14L4.07 59.09L4.11 59.06L4.16 59.05L5.85 59.05L5.9 59.06L5.94 59.09L5.97 59.14L5.98 59.19L5.98 62.9L6.01 62.9ZM6.01 58.39L6 58.45L5.97 58.49L5.92 58.52L5.87 58.53L4.22 58.53L4.15 58.51L4.1 58.48L4.08 58.41L4.09 58.33L5.84 52.63L6.01 52.63L6.01 58.39ZM24.67 57.87L24.42 58.12L24.67 58.38L24.67 63.04L6.65 63.04L6.58 63.02L6.53 62.97L6.51 62.89L6.51 52.63L23.65 51.26L23.78 51.28L23.84 51.3L23.91 51.36L23.95 51.42L23.96 51.51L23.95 51.66L23.92 51.8L23.9 52.03L23.18 52.43L23.18 52.63L24.13 52.63L24.23 52.8L24.36 52.94L24.5 53.08L24.67 53.2L24.67 57.87ZM28.25 63.05L25.17 63.05L25.17 59.64L28.25 59.64L28.25 63.05ZM28.25 59.14L25.17 59.14L25.17 55.39L25.67 55.39L25.67 54.88L25.17 54.88L25.17 53.78L25.17 53.73L25.21 53.69L25.25 53.66L25.3 53.65L26.65 53.65L26.65 54.45L27.22 54.45L27.65 53.65L28.1 53.65L28.15 53.66L28.19 53.69L28.22 53.73L28.23 53.78L28.23 59.14L28.25 59.14Z" fill="#05252F" fill-opacity="1.000000" fill-rule="nonzero"/>
					<path id="Vector" d="M33.95 27.37L33.96 27.28L33.95 27.23L33.93 27.19L33.89 27.16L33.85 27.14L33.81 27.13L32.32 27.25L32.27 27.27L32.22 27.29L32.2 27.34L32.18 27.42L32.18 28.31L31.59 28.31L31.59 27.52L31.58 27.43L31.55 27.39L31.52 27.35L31.48 27.33L31.44 27.33L27.11 27.67L27.06 27.68L27.01 27.71L26.99 27.76L26.97 27.84L26.97 28.31L26.38 28.31L26.38 27.89L26.37 27.85L26.34 27.8L26.31 27.77L26.27 27.75L26.22 27.74L25.52 27.79L25.47 27.81L25.43 27.84L25.4 27.89L25.39 27.97L25.39 28.31L24.79 28.31L24.79 28.07L24.78 27.97L24.76 27.93L24.73 27.9L24.68 27.88L24.64 27.87L17.07 28.47L17.02 28.49L16.98 28.51L16.96 28.56L16.94 28.64L16.94 36.38L16.42 42.32L16.31 43.02L16.31 43.07L16.33 43.12L16.36 43.16L16.41 43.18L16.45 43.19L19.47 43.19L19.51 43.18L19.56 43.16L19.58 43.12L19.61 43.08L19.62 42.99L19.62 39.28L19.62 39.28L19.63 39.11L19.66 38.94L19.7 38.77L19.75 38.61L19.81 38.45L19.89 38.29L19.99 38.15L20.09 38.01L20.21 37.88L20.35 37.76L20.48 37.65L20.62 37.55L20.78 37.48L20.94 37.42L21.1 37.36L21.27 37.32L21.44 37.3L21.61 37.29L21.61 37.28L23.4 37.28L23.4 36.43L23.4 36.34L23.43 36.27L23.47 36.19L23.51 36.12L23.57 36.06L23.64 36.02L23.72 35.98L23.79 35.95L23.96 35.94L24.38 35.94L24.38 37.15L25.37 37.15L25.37 35.95L25.78 35.95L25.95 35.96L26.03 35.98L26.11 36.03L26.17 36.07L26.23 36.13L26.28 36.2L26.32 36.27L26.34 36.35L26.35 36.44L26.35 37.29L28.14 37.29L28.14 37.3L28.31 37.3L28.48 37.33L28.65 37.37L28.81 37.42L28.97 37.48L29.12 37.56L29.27 37.66L29.4 37.76L29.54 37.88L29.66 38.02L29.76 38.16L29.86 38.3L29.94 38.46L30 38.62L30.05 38.78L30.09 38.95L30.11 39.12L30.12 39.29L31.87 39.29L31.87 39.89L30.13 39.89L30.13 43L30.14 43.09L30.16 43.13L30.19 43.17L30.23 43.19L30.27 43.2L34.8 43.2L34.8 29.3L34.66 29.23L34.54 29.14L34.41 29.04L34.3 28.94L34.2 28.82L34.11 28.68L34.04 28.54L33.98 28.4L33.94 28.25L33.9 28.09L33.88 27.94L33.88 27.79L33.88 27.63L33.91 27.48L33.95 27.37ZM14.45 16.88L14.49 17.12L14.53 17.28L14.59 17.43L14.66 17.59L14.75 17.72L14.85 17.86L14.97 17.98L15.09 18.1L15.23 18.2L15.37 18.29L15.52 18.36L15.68 18.42L15.84 18.46L16 18.49L16.04 18.48L16.08 18.47L16.12 18.44L16.14 18.4L16.16 18.33L16.16 17.94L16.18 17.88L16.2 17.84L16.24 17.83L16.29 17.83L16.79 17.97L16.85 18L16.89 18.04L16.91 18.09L16.91 19.43L16.16 19.43L16.16 26.82L16.17 26.99L16.19 27.06L16.24 27.14L16.29 27.2L16.35 27.26L16.41 27.3L16.49 27.33L16.57 27.33L16.64 27.33L34.31 25.92L34.31 25.66L34.05 24.51L35.3 24.51L35.3 26.03L35.3 26.22L35.28 26.41L35.26 26.59L35.21 26.77L35.16 26.96L35.08 27.13L35 27.3L34.96 27.39L34.93 27.5L34.9 27.6L34.89 27.7L34.9 27.8L34.93 27.91L34.96 28.01L35.01 28.1L35.07 28.18L35.14 28.25L35.22 28.31L35.32 28.36L35.41 28.39L35.51 28.42L35.61 28.43L37.79 28.43L37.97 28.42L38.04 28.39L38.12 28.35L38.19 28.31L38.25 28.25L38.29 28.18L38.33 28.1L38.36 28.02L38.37 27.94L38.37 25.79L37.27 25.79L37.27 24.69L37.28 24.63L37.31 24.57L37.35 24.53L37.4 24.49L37.46 24.46L37.52 24.45L39.26 24.45L39.34 24.46L39.42 24.49L39.49 24.53L39.56 24.57L39.62 24.63L39.66 24.7L39.71 24.78L39.73 24.86L39.74 25.03L39.74 53.48L39.73 53.6L39.71 53.72L39.67 53.84L39.62 53.95L39.56 54.05L39.48 54.15L39.41 54.23L39.31 54.3L39.21 54.36L39.1 54.41L38.98 54.45L38.86 54.47L38.74 54.48L32.77 54.48L32.77 53.14L32.78 53.05L32.82 53.01L32.88 52.97L33.33 52.85L33.42 52.84L33.46 52.86L33.49 52.89L33.5 52.96L33.5 53.39L33.51 53.43L33.54 53.46L33.56 53.49L33.6 53.49L34.97 53.49L35.03 53.49L35.09 53.46L35.13 53.42L35.17 53.38L35.2 53.32L35.21 53.26L35.21 52.21L35.2 52.21L35.19 52.04L35.16 51.87L35.12 51.71L35.06 51.54L34.99 51.39L34.92 51.24L34.82 51.11L34.71 50.98L34.59 50.86L34.46 50.75L34.33 50.66L34.17 50.58L34.02 50.51L33.86 50.47L33.71 50.44L33.65 50.43L33.6 50.44L33.56 50.46L33.54 50.5L33.51 50.54L33.5 50.58L33.5 50.97L33.49 51.04L33.46 51.07L33.42 51.09L33.33 51.08L32.9 50.97L32.82 50.94L32.78 50.9L32.76 50.84L32.76 49.5L33.5 49.5L33.5 44.49L28.83 44.49L28.83 43.39L27.83 43.39L27.83 42.49L28.83 42.49L28.83 39.33L28.82 39.33L28.81 39.22L28.78 39.12L28.74 39.02L28.7 38.92L28.63 38.84L28.56 38.76L28.48 38.7L28.39 38.65L28.28 38.61L28.18 38.58L28.08 38.57L25.05 38.57L24.8 38.33L24.55 38.57L21.51 38.57L21.41 38.58L21.31 38.61L21.21 38.65L21.12 38.7L21.04 38.76L20.96 38.84L20.9 38.92L20.85 39.02L20.81 39.12L20.79 39.22L20.78 39.33L20.77 39.33L20.77 42.49L21.76 42.49L21.76 43.39L20.77 43.39L20.77 44.49L14.3 44.49L14.3 43.99L14.8 43.99L15.09 42.2L15.09 42.1L15.08 42.06L15.04 42.02L15 41.99L14.96 41.98L11.43 41.98L11.33 42L11.26 42.03L11.2 42.07L11.16 42.13L11.14 42.2L11.13 42.26L11.13 43.71L11.37 43.71L11.37 44.21L11.36 44.27L11.34 44.33L11.3 44.38L11.25 44.42L11.19 44.45L11.07 44.45L10.2 44.45L10.08 44.45L10.02 44.42L9.97 44.38L9.92 44.33L9.9 44.27L9.89 44.14L9.89 16.7L9.91 16.54L9.93 16.44L9.97 16.33L10.03 16.24L10.09 16.16L10.17 16.09L10.25 16.03L10.36 15.98L10.38 15.97L16.11 14.42L16.85 14.42L16.85 15.79L16.85 15.84L16.82 15.88L16.78 15.92L16.68 15.95L16.24 16.07L16.2 16.08L16.16 16.07L16.13 16.04L16.12 16.02L16.11 15.94L16.11 15.59L16.1 15.55L16.07 15.52L16.04 15.5L16 15.49L14.59 15.87L14.52 15.89L14.47 15.93L14.44 15.98L14.41 16.04L14.41 16.16L14.41 16.88L14.45 16.88ZM14.9 19.34L14.74 19.26L14.56 19.14L14.39 19L14.23 18.85L14.08 18.69L13.94 18.52L13.81 18.35L13.69 18.16L13.59 17.96L13.52 17.76L13.44 17.55L13.39 17.34L13.35 17.13L13.32 16.91L13.31 16.72L13.3 16.63L13.27 16.59L13.23 16.56L13.19 16.54L13.13 16.55L11.33 17.03L11.33 24.45L14.86 24.45L14.91 24.44L14.95 24.41L14.97 24.38L15 24.34L15.01 24.24L15.01 19.53L14.99 19.45L14.96 19.41L14.9 19.34ZM15.01 27.11L15.01 25.14L15 25.04L14.97 25L14.95 24.97L14.91 24.94L14.86 24.93L11.33 24.93L11.33 35.84L13.67 35.84L15.44 28.49L15.44 28.39L15.41 28.31L15.31 28.19L15.23 28.03L15.15 27.87L15.09 27.71L15.05 27.54L15.02 27.37L15.01 27.11ZM15.9 28.69L14.17 35.85L16.4 35.85L16.4 28.69L16.39 28.6L16.36 28.55L16.34 28.52L16.29 28.49L16.25 28.49L16.07 28.49L16.02 28.49L15.98 28.52L15.95 28.55L15.9 28.69ZM35.31 29.44L35.31 43.21L38.39 43.21L38.39 29.44L35.31 29.44ZM34.81 44L34.81 47.71L38.39 47.71L38.39 43.81L34.96 43.81L34.92 43.81L34.88 43.84L34.85 43.87L34.83 43.92L34.81 44ZM11.33 40.51L11.34 40.6L11.36 40.64L11.39 40.68L11.43 40.7L11.47 40.71L13.66 40.71L13.66 36.36L11.32 36.36L11.32 40.51L11.33 40.51ZM15.77 40.93L15.83 40.96L15.88 40.97L15.92 40.95L15.96 40.93L15.99 40.88L16.01 40.79L16.4 36.36L14.16 36.36L14.16 40.71L15.01 40.71L15.17 40.72L15.34 40.75L15.49 40.79L15.64 40.85L15.77 40.93ZM34.9 49.59L35.06 49.69L35.23 49.81L35.4 49.94L35.55 50.09L35.7 50.24L35.83 50.4L35.95 50.57L36.05 50.76L36.15 50.95L36.22 51.14L36.28 51.35L36.33 51.55L36.37 51.76L36.39 52.04L36.39 52.89L36.4 52.98L36.43 53.03L36.45 53.06L36.49 53.09L36.54 53.09L38.24 53.09L38.28 53.09L38.32 53.06L38.35 53.03L38.37 52.98L38.38 52.89L38.38 48.23L34.8 48.23L34.8 49.42L34.82 49.5L34.84 49.54L34.9 49.59Z" fill="#05252F" fill-opacity="1.000000" fill-rule="nonzero"/>
					<path id="Vector" d="M38.31 23.53L38.31 17.94L36.9 17.33L36.9 23.43L38.31 23.53ZM35.94 27.71L36.04 27.7L36.14 27.68L36.23 27.64L36.32 27.6L36.39 27.54L36.45 27.46L36.53 27.36L37.27 25.84L37.27 24.24L39.09 24.38L39.09 18.02L39.08 17.91L39.06 17.8L39.03 17.69L38.99 17.59L38.93 17.49L38.85 17.41L38.76 17.33L38.67 17.27L38.57 17.22L38.47 17.18L36.12 16.15L36.12 23.25L36.11 23.36L36.09 23.48L36.04 23.59L35.99 23.69L35.93 23.78L35.86 23.87L35.77 23.94L35.68 24.01L35.58 24.06L35.47 24.1L35.47 24.92L35.74 24.92L35.83 24.92L35.92 24.94L36 24.97L36.09 25.02L36.16 25.07L36.22 25.14L36.28 25.21L36.32 25.3L36.36 25.38L36.38 25.48L36.38 25.56L36.36 25.66L36.33 25.74L36.29 25.83L36.3 25.83L35.77 26.9L35.58 26.9L35.43 26.91L35.35 26.93L35.28 26.96L35.22 27L35.17 27.05L35.13 27.12L35.1 27.19L35.09 27.27L35.09 27.34L35.1 27.42L35.13 27.49L35.17 27.56L35.22 27.61L35.28 27.65L35.35 27.68L35.43 27.7L35.5 27.71L35.94 27.71ZM36.12 17.05L33.94 15.26L33.93 15.23L33.92 15.19L33.93 15.15L33.94 15.12L33.98 15.09L34.01 15.07L34.05 15.07L34.09 15.09L36.11 16.14L36.13 16.15L36.13 17.05L36.12 17.05ZM36.12 19.11L34.44 18.24L34.41 18.23L34.37 18.24L34.33 18.26L34.3 18.29L34.28 18.33L34.27 18.37L34.28 18.4L34.31 18.44L36.11 19.8L36.11 19.11L36.12 19.11Z" fill="#05252F" fill-opacity="1.000000" fill-rule="evenodd"/>
				</g>
			</g>
		</g>
	</g>
</svg>
