<svg width="40.000000" height="70.000000" viewBox="0 0 40 70" fill="none" xmlns="http://www.w3.org/2000/svg" xmlns:xlink="http://www.w3.org/1999/xlink">
	<desc>
			Created with Pixso.
	</desc>
	<defs>
		<clipPath id="clip2212_694">
			<rect id="70.svg" width="40.000000" height="61.304348" transform="translate(-0.205078 3.769531)" fill="white" fill-opacity="0"/>
		</clipPath>
		<clipPath id="clip2212_693">
			<rect id="70.svg fill" width="40.000000" height="70.000000" transform="translate(-0.205078 -0.579102)" fill="white" fill-opacity="0"/>
		</clipPath>
		<clipPath id="clip2212_692">
			<rect id="70.svg" width="40.000000" height="70.000000" transform="translate(-0.205078 -0.579102)" fill="white" fill-opacity="0"/>
		</clipPath>
	</defs>
	<g clip-path="url(#clip2212_692)">
		<g clip-path="url(#clip2212_693)">
			<g clip-path="url(#clip2212_694)">
				<path id="Vector" d="M5.41 39.55L5.11 39.8L5.11 40.27L5.41 40.52L6.66 40.52L6.66 39.55L5.41 39.55ZM8.92 39.13L8.88 39.01L8.83 38.87L8.75 38.74L8.66 38.62L8.57 38.51L8.46 38.41L8.35 38.32L8.23 38.24L8.09 38.18L7.96 38.13L7.82 38.09L7.68 38.07L7.53 38.06L7.53 38.05L7 38.05L7.04 39.11L7.04 39.19L7.22 39.18L7.39 39.17L7.57 39.18L7.74 39.2L7.91 39.24L8.08 39.29L8.24 39.36L8.4 39.44L8.56 39.53L8.7 39.63L8.83 39.75L8.96 39.87L9.08 40.01L9.19 40.15L9.28 40.31L9.36 40.46L9.43 40.63L9.43 40.68L9.43 40.72L9.4 40.76L9.37 40.79L9.33 40.81L9.3 40.82L9.26 40.81L9.22 40.8L9.18 40.77L9.13 40.69L9.09 40.59L9 40.45L8.91 40.31L8.8 40.18L8.69 40.07L8.56 39.97L8.43 39.87L8.29 39.8L8.14 39.73L7.99 39.68L7.83 39.64L7.67 39.62L7.52 39.61L7.35 39.62L7.19 39.64L7.04 39.67L7.04 41.44L6.67 41.44L6.67 40.92L6.66 40.88L6.65 40.86L6.59 40.85L5.85 40.85L5.81 40.86L5.81 40.87L5.85 41.13L5.85 41.18L5.82 41.2L5.79 41.22L5.76 41.22L5.7 41.19L4.76 40.39L4.76 39.6L5.71 38.8L5.76 38.77L5.79 38.77L5.82 38.8L5.85 38.82L5.85 38.87L5.81 39.13L5.81 39.15L5.85 39.16L6.62 39.16L6.65 39.14L6.66 39.09L6.62 37.6L7.49 37.6L7.69 37.62L7.85 37.64L7.99 37.68L8.14 37.74L8.28 37.8L8.42 37.87L8.54 37.97L8.66 38.07L8.77 38.18L8.88 38.3L8.97 38.42L9.05 38.56L9.12 38.7L9.17 38.84L9.21 38.98L9.22 39.04L9.19 39.11L9.16 39.15L9.13 39.19L9.09 39.21L9.04 39.21L9 39.21L8.96 39.18L8.92 39.13Z" fill="#05252F" fill-opacity="1.000000" fill-rule="evenodd"/>
				<path id="Vector" d="M33.62 49.33L33.92 49.07L33.92 48.61L33.62 48.35L32.38 48.35L32.38 49.33L33.62 49.33ZM30.11 49.74L30.15 49.87L30.2 50L30.28 50.13L30.37 50.26L30.46 50.36L30.57 50.47L30.68 50.56L30.8 50.64L30.93 50.7L31.07 50.74L31.21 50.78L31.35 50.81L31.5 50.81L31.5 50.82L32.03 50.82L31.99 49.76L31.99 49.68L31.81 49.7L31.64 49.71L31.46 49.7L31.29 49.68L31.12 49.64L30.95 49.58L30.79 49.51L30.63 49.43L30.47 49.34L30.33 49.24L30.2 49.13L30.06 49L29.95 48.86L29.84 48.72L29.75 48.57L29.67 48.41L29.6 48.24L29.59 48.2L29.6 48.16L29.63 48.12L29.66 48.09L29.69 48.06L29.73 48.06L29.77 48.06L29.81 48.08L29.85 48.1L29.89 48.19L29.94 48.29L30.03 48.43L30.12 48.57L30.23 48.69L30.34 48.81L30.47 48.91L30.6 49L30.74 49.08L30.89 49.14L31.04 49.19L31.2 49.23L31.36 49.26L31.51 49.26L31.67 49.26L31.84 49.23L31.99 49.2L31.99 47.41L32.36 47.41L32.36 47.92L32.37 47.96L32.38 47.99L32.44 47.99L33.18 47.99L33.22 47.99L33.22 47.97L33.18 47.71L33.18 47.67L33.21 47.65L33.24 47.62L33.27 47.62L33.33 47.65L34.27 48.45L34.27 49.24L33.32 50.04L33.27 50.06L33.24 50.06L33.21 50.04L33.18 50.02L33.18 49.96L33.22 49.71L33.22 49.68L33.18 49.68L32.41 49.68L32.38 49.7L32.37 49.74L32.41 51.24L31.54 51.24L31.34 51.22L31.18 51.19L31.04 51.16L30.89 51.1L30.75 51.04L30.61 50.96L30.49 50.87L30.37 50.77L30.26 50.66L30.15 50.54L30.06 50.41L29.98 50.27L29.91 50.13L29.86 49.99L29.82 49.86L29.83 49.81L29.84 49.76L29.86 49.72L29.9 49.68L29.94 49.67L29.99 49.66L30.03 49.67L30.07 49.69L30.11 49.74Z" fill="#05252F" fill-opacity="1.000000" fill-rule="evenodd"/>
				<path id="Vector" d="M18.12 18.74L18.06 18.78L18.05 18.82L18.06 18.86L18.49 19.75L18.53 19.76L18.57 19.78L18.61 19.81L18.62 19.86L18.64 19.91L18.63 19.95L18.62 20L18.59 20.04L18.56 20.06L18.52 20.08L18.47 20.09L18.42 20.08L18.38 20.07L17.35 18.89L16.88 18.89L16.83 18.91L16.78 18.95L16.76 19L16.75 19.1L16.75 20.17L16.75 20.2L16.72 20.23L16.7 20.25L16.66 20.25L16.44 20.25L16.4 20.25L16.38 20.23L16.35 20.2L16.34 20.13L16.34 19.76L16.34 19.7L16.32 19.69L16.27 19.68L15.57 19.68L15.54 20.01L15.51 20.04L15.47 20.03L14.48 19.26L14.48 18.47L15.47 17.7L15.51 17.69L15.54 17.71L15.57 18.04L16.28 18.04L16.32 18.02L16.34 17.98L16.34 16.53L16.64 16.41L16.95 16.32L17.26 16.23L17.57 16.16L17.89 16.11L18.21 16.07L18.52 16.04L18.84 16.03L18.88 16.04L18.92 16.06L18.93 16.09L18.95 16.12L18.95 16.16L18.93 16.19L18.65 16.71L18.63 16.77L18.65 16.81L18.72 16.92L18.79 17.03L18.84 17.16L18.88 17.28L18.9 17.41L18.92 17.54L18.91 17.67L18.89 17.8L18.87 17.93L18.83 18.05L18.77 18.17L18.7 18.29L18.62 18.39L18.53 18.48L18.43 18.57L18.33 18.64L18.21 18.7L18.12 18.74ZM16.39 19.14L16.39 18.59L16.38 18.49L16.35 18.45L16.32 18.42L16.28 18.4L16.19 18.38L15.44 18.38L15.39 18.4L15.34 18.41L15.32 18.43L15 18.7L14.94 18.75L14.92 18.81L14.91 18.86L14.92 18.92L14.94 18.97L15 19.03L15.32 19.29L15.34 19.31L15.39 19.33L15.44 19.34L16.19 19.34L16.28 19.33L16.32 19.3L16.35 19.27L16.38 19.23L16.39 19.14ZM18.02 17.16L18.06 17.26L18.08 17.36L18.08 17.47L18.07 17.59L18.05 17.71L18.01 17.81L17.96 17.91L17.89 18.02L17.82 18.1L17.74 18.18L17.65 18.26L17.55 18.31L17.44 18.35L17.33 18.38L17.22 18.4L17.1 18.4L17.04 18.4L16.98 18.38L16.93 18.35L16.88 18.3L16.85 18.26L16.82 18.19L16.81 18.14L16.81 18.07L16.86 17.37L16.88 17.29L16.91 17.2L16.95 17.12L16.99 17.05L17.05 16.98L17.12 16.92L17.2 16.88L17.28 16.84L17.38 16.81L17.46 16.81L17.55 16.81L17.63 16.82L17.72 16.85L17.8 16.89L17.87 16.95L17.93 17.01L17.99 17.08L18.02 17.16Z" fill="#05252F" fill-opacity="1.000000" fill-rule="evenodd"/>
				<path id="Vector" d="M20.2 4.02L19.05 4.02L19.05 25.49L20.2 25.49L20.2 4.02Z" fill="#05252F" fill-opacity="1.000000" fill-rule="nonzero"/>
				<path id="Vector" d="M34.16 4.02L33.02 4.02L33.02 25.49L34.16 25.49L34.16 4.02Z" fill="#05252F" fill-opacity="1.000000" fill-rule="nonzero"/>
				<path id="Vector" d="M27.01 4.02L25.86 4.02L25.86 25.49L27.01 25.49L27.01 4.02Z" fill="#05252F" fill-opacity="1.000000" fill-rule="nonzero"/>
				<path id="Vector" d="M25.86 23.42L20.2 23.42L20.2 25.49L25.86 25.49L25.86 23.42Z" fill="#05252F" fill-opacity="1.000000" fill-rule="nonzero"/>
				<path id="Vector" d="M33.02 23.42L27.01 23.42L27.01 25.49L33.02 25.49L33.02 23.42Z" fill="#05252F" fill-opacity="1.000000" fill-rule="nonzero"/>
				<path id="Vector" d="M38.14 24.41L38.14 19.33L36.86 18.77L36.86 24.32L38.14 24.41ZM35.99 28.21L36.08 28.2L36.17 28.17L36.25 28.14L36.33 28.1L36.4 28.05L36.45 27.98L36.52 27.89L37.19 26.51L37.19 25.05L38.85 25.17L38.85 19.39L38.84 19.29L38.82 19.19L38.79 19.09L38.75 18.99L38.7 18.91L38.63 18.83L38.55 18.76L38.47 18.71L38.38 18.66L38.28 18.62L36.15 17.68L36.15 24.15L36.14 24.25L36.12 24.35L36.08 24.45L36.04 24.54L35.98 24.63L35.91 24.7L35.83 24.77L35.75 24.83L35.66 24.88L35.56 24.91L35.56 25.66L35.8 25.66L35.89 25.66L35.97 25.68L36.04 25.71L36.12 25.75L36.19 25.8L36.24 25.86L36.3 25.93L36.34 26L36.37 26.08L36.38 26.17L36.38 26.25L36.37 26.33L36.34 26.41L36.31 26.49L36.31 26.49L35.83 27.46L35.66 27.46L35.52 27.47L35.45 27.48L35.39 27.52L35.33 27.55L35.29 27.6L35.25 27.66L35.23 27.73L35.21 27.79L35.21 27.86L35.23 27.93L35.25 28L35.29 28.06L35.33 28.1L35.39 28.14L35.45 28.17L35.52 28.19L35.59 28.2L35.99 28.21ZM36.16 18.51L34.18 16.89L34.16 16.85L34.16 16.82L34.16 16.78L34.18 16.75L34.21 16.73L34.24 16.71L34.27 16.71L34.31 16.73L36.15 17.68L36.17 17.69L36.17 18.51L36.16 18.51ZM36.16 20.39L34.63 19.6L34.6 19.59L34.56 19.6L34.53 19.61L34.5 19.64L34.49 19.67L34.48 19.71L34.49 19.74L34.51 19.78L36.15 21.02L36.15 20.39L36.16 20.39Z" fill="#05252F" fill-opacity="1.000000" fill-rule="evenodd"/>
				<path id="Vector" d="M20.31 63.98L20.27 63.89L20.24 63.81L20.23 63.72L20.22 63.72L20.22 63.51L21.08 63.51L21.15 63.49L21.17 63.46L21.18 63.39L20.87 61.56L20.84 61.51L20.8 61.47L20.71 61.44L15.74 61.44L15.61 61.32L15.49 61.44L4.47 61.44L4.37 61.47L4.33 61.51L4.3 61.56L3.98 63.4L3.99 63.45L4.01 63.48L4.08 63.51L4.95 63.51L4.95 63.71L4.94 63.8L4.91 63.89L4.88 63.94L4.4 64.61L4.33 64.68L4.25 64.74L4.16 64.77L4.06 64.78L3.9 64.78L3.81 64.78L3.73 64.75L3.65 64.71L3.58 64.64L3.53 64.57L3.53 64.57L3.13 63.87L3.12 63.84L3.12 63.8L3.5 61.58L3.5 61.53L3.47 61.48L3.43 61.45L3.35 61.43L1.19 61.43L1.09 61.45L1.03 61.48L0.98 61.52L0.96 61.58L0.95 61.65L0.95 63.5L1.41 63.5L1.41 63.96L1.39 64.08L1.35 64.18L1.26 64.3L0.81 64.75L0.72 64.82L0.62 64.86L0.51 64.88L0.01 64.88L-0.06 64.87L-0.12 64.84L-0.16 64.79L-0.19 64.73L-0.21 64.64L-0.21 40.34L-0.19 40.19L-0.16 40.09L-0.13 40.01L-0.06 39.92L0.01 39.85L0.08 39.79L0.18 39.74L5.34 37.85L6.62 37.85L6.62 39.03L6.6 39.1L6.54 39.15L6.11 39.26L6.05 39.26L6.01 39.25L5.99 39.22L5.98 39.15L5.98 38.82L5.95 38.76L5.93 38.73L5.87 38.71L5.54 38.71L5.47 38.73L4.65 39.02L4.57 39.07L4.53 39.11L4.5 39.17L4.49 39.24L4.49 40.01L4.53 40.17L4.59 40.33L4.66 40.49L4.74 40.63L4.85 40.76L4.97 40.88L5.1 40.99L5.24 41.08L5.39 41.16L5.55 41.22L5.71 41.26L5.88 41.28L5.93 41.28L5.95 41.25L5.98 41.18L5.98 40.9L5.99 40.83L6.01 40.8L6.05 40.78L6.11 40.78L6.54 40.9L6.6 40.94L6.62 41.01L6.62 42.14L5.98 42.14L5.98 48.82L5.99 48.88L6.02 48.95L6.07 49L6.13 49.02L6.22 49.04L24.96 47.71L24.96 47.51L24.74 46.51L25.81 46.51L25.81 47.81L25.8 47.81L25.81 47.99L25.8 48.18L25.77 48.37L25.73 48.55L25.67 48.72L25.6 48.89L25.6 48.9L25.56 48.99L25.53 49.09L25.51 49.19L25.51 49.3L25.54 49.4L25.57 49.49L25.62 49.57L25.69 49.65L25.76 49.72L25.84 49.78L25.94 49.81L26.04 49.84L26.14 49.85L28.08 49.85L28.15 49.84L28.23 49.81L28.31 49.78L28.37 49.72L28.42 49.66L28.46 49.58L28.49 49.5L28.5 49.34L28.5 47.58L27.52 47.58L27.52 46.66L27.54 46.56L27.56 46.5L27.61 46.45L27.67 46.43L27.74 46.41L29.4 46.41L29.47 46.42L29.53 46.44L29.59 46.48L29.63 46.54L29.65 46.6L29.66 46.73L29.66 64.61L29.64 64.71L29.62 64.78L29.57 64.82L29.51 64.85L29.44 64.86L28.94 64.86L28.82 64.85L28.72 64.8L28.61 64.71L28.22 64.32L28.11 64.2L28.07 64.12L28.05 64.04L28.04 63.96L28.04 63.5L28.51 63.5L28.51 61.68L28.49 61.58L28.46 61.52L28.42 61.48L28.35 61.45L28.25 61.43L21.82 61.43L21.75 61.45L21.7 61.48L21.68 61.53L21.67 61.58L22.05 63.75L22.05 63.83L22.03 63.9L21.64 64.57L21.64 64.57L21.59 64.64L21.52 64.7L21.44 64.74L21.36 64.77L21.27 64.78L21.12 64.78L21.02 64.76L20.93 64.73L20.84 64.68L20.77 64.61L20.31 63.98ZM26.03 60.38L28.35 60.38L28.39 60.37L28.42 60.34L28.44 60.31L28.45 60.27L28.45 55.98L28.44 55.94L28.42 55.91L28.39 55.89L28.35 55.88L26.03 55.88L26.03 60.38ZM28.45 50.83L28.44 50.78L28.4 50.74L28.35 50.72L27.73 50.72L27.73 51.67L27.09 51.67L27.09 50.72L26.03 50.72L26.03 55.45L28.35 55.45L28.39 55.44L28.42 55.42L28.44 55.39L28.45 55.35L28.45 50.83L28.45 50.83ZM5.04 42.02L5.04 47.93L1.09 47.93L1.04 47.92L1 47.88L0.98 47.82L0.98 40.59L3.56 39.64L3.56 39.85L3.56 40.04L3.59 40.25L3.63 40.44L3.69 40.63L3.77 40.81L3.86 40.99L3.97 41.16L4.08 41.32L4.21 41.47L4.35 41.61L4.51 41.73L4.67 41.84L4.84 41.94L5.04 42.02ZM5.04 48.88L5.05 49.02L5.07 49.16L5.12 49.3L5.18 49.43L5.25 49.55L5.34 49.67L5.44 49.77L5.56 49.86L5.68 49.93L5.68 55.66L1.09 55.66L1.04 55.64L1 55.6L0.98 55.55L0.98 48.47L0.99 48.43L1.02 48.4L1.05 48.37L1.08 48.37L5.03 48.37L5.04 48.88ZM1.13 56.08L1.05 56.1L1.02 56.12L1 56.15L0.99 56.19L0.99 60.27L1.01 60.32L1.05 60.36L1.1 60.38L5.68 60.38L5.68 56.08L1.13 56.08ZM7.26 60.4L6.11 60.4L6.11 50.03L8.64 49.85L8.64 50.85L7.89 50.85L7.89 51.36L10.04 51.36L10.04 50.85L9.29 50.85L9.29 49.81L23.47 48.81L23.47 50.94L21.76 50.94L21.76 51.36L23.47 51.36L23.47 55.45L23.26 55.66L23.47 55.87L23.47 60.37L7.69 60.37L7.69 58.67L7.26 58.67L7.26 60.4ZM25.6 60.38L23.89 60.38L23.89 55.87L25.6 55.87L25.6 60.38ZM24.61 49.06L24.6 49.19L24.62 49.35L24.64 49.52L24.69 49.68L24.76 49.85L24.83 50L24.93 50.14L25.04 50.27L25.16 50.39L25.29 50.5L25.43 50.59L25.59 50.66L25.59 55.44L23.88 55.44L23.88 48.78L24.35 48.75L24.42 48.75L24.48 48.78L24.53 48.82L24.57 48.88L24.6 48.94L24.61 49.06Z" fill="#05252F" fill-opacity="1.000000" fill-rule="evenodd"/>
				<path id="Vector" d="M39.32 25.42L39.27 25.35L39.19 25.29L39.05 25.26L37.5 25.26L37.35 25.28L37.29 25.34L37.24 25.4L37.21 25.56L37.21 26.42L38.24 26.42L38.24 28.2L38.21 28.39L38.15 28.51L38.06 28.6L37.95 28.65L37.75 28.69L35.83 28.69L35.7 28.66L35.56 28.61L35.44 28.52L35.33 28.43L35.25 28.3L35.2 28.17L35.17 28.02L35.18 27.88L35.21 27.74L35.27 27.6L35.25 27.59L35.36 27.37L35.43 27.13L35.48 26.88L35.5 26.63L35.51 26.63L35.51 25.34L34.44 25.34L34.66 26.33L34.66 26.53L25.63 27.17L25.48 27.29L25.33 27.2L15.95 27.85L15.83 27.83L15.75 27.79L15.71 27.73L15.67 27.59L15.67 20.95L16.31 20.95L16.31 19.84L16.29 19.75L16.23 19.71L15.78 19.59L15.74 19.59L15.69 19.62L15.67 19.71L15.67 19.98L15.64 20.05L15.57 20.08L15.39 20.05L15.19 19.99L14.99 19.91L14.81 19.82L14.65 19.68L14.51 19.54L14.38 19.36L14.28 19.17L14.2 18.97L14.16 18.77L14.16 17.91L13.89 18.07L13.32 18.42L13.32 18.64L13.33 18.64L13.33 18.91L13.38 19.17L13.46 19.42L13.56 19.67L13.69 19.89L13.84 20.11L14.01 20.3L14.21 20.49L14.43 20.64L14.62 20.73L14.7 20.81L14.73 20.9L14.73 26.72L14.7 26.83L14.66 26.88L14.53 26.9L10.67 26.9L10.67 19.54L10.7 19.45L10.77 19.39L13.13 18.53L13.3 18.43L13.3 18.42L13.87 18.08L14.28 17.83L15.07 17.54L15.27 17.51L15.49 17.51L15.6 17.54L15.63 17.57L15.65 17.68L15.65 17.99L15.67 18.07L15.72 18.1L15.81 18.1L16.24 17.99L16.28 17.95L16.31 17.9L16.31 16.71L15.02 16.71L9.94 18.57L9.77 18.66L9.65 18.77L9.56 18.9L9.5 19.04L9.48 19.19L9.48 41.82L9.5 41.9L9.55 41.97L9.61 42.01L9.7 42.04L10.57 42.04L10.71 42.01L10.75 41.96L10.77 41.85L10.77 41.71L10.75 41.58L10.71 41.53L10.57 41.51L10.55 41.51L10.55 41.5L10.5 41.49L10.44 41.44L10.42 41.33L10.42 40.52L10.45 40.38L10.51 40.3L10.58 40.25L10.67 40.22L12.93 40.22L13.02 40.25L13.1 40.3L13.16 40.38L13.18 40.47L13.18 41.59L12.47 41.59L12.47 42.02L14.09 42.02L17.55 42.45L22.2 42.45L22.2 41.51L23.05 41.51L23.05 40.73L22.2 40.73L22.2 38.04L22.21 38.04L22.21 37.9L22.27 37.76L22.35 37.64L22.44 37.55L22.55 37.47L22.69 37.42L22.83 37.41L22.83 37.4L25.47 37.4L25.69 37.27L25.91 37.4L28.47 37.4L28.47 37.41L28.61 37.42L28.75 37.47L28.86 37.55L28.96 37.64L29.04 37.76L29.09 37.9L29.1 38.04L29.11 38.04L29.11 40.73L28.25 40.73L28.25 41.51L29.11 41.51L29.11 42.45L33.16 42.45L33.16 46.75L32.53 46.75L32.53 47.84L32.56 47.96L32.65 48.02L33.01 48.11L33.09 48.1L33.15 48.05L33.18 47.96L33.18 47.71L33.2 47.65L33.25 47.61L33.35 47.59L33.57 47.64L33.81 47.72L34.03 47.83L34.23 47.98L34.38 48.11L34.51 48.28L34.59 48.44L34.64 48.61L34.66 48.78L34.67 48.78L34.67 49.92L34.64 50.03L34.59 50.11L34.53 50.16L34.45 50.16L34.46 50.17L33.26 50.17L33.21 50.15L33.18 50.05L33.18 49.79L33.15 49.69L33.09 49.64L32.99 49.63L32.67 49.71L32.58 49.78L32.53 49.88L32.53 51.02L38.28 51.02L38.28 51.02L38.47 50.99L38.65 50.95L38.82 50.87L38.97 50.76L39.1 50.63L39.21 50.47L39.29 50.3L39.33 50.12L39.35 49.93L39.36 49.93L39.36 25.57L39.32 25.42ZM10.68 27.32L14.73 27.32L14.73 27.65L14.77 27.9L14.81 28.09L14.89 28.25L14.98 28.4L15.1 28.54L15.23 28.65L15.39 28.75L15.38 34.75L10.69 34.75L10.69 27.32L10.68 27.32ZM33.38 34.45L33.18 34.67L33.38 34.88L33.38 41.45L30.34 41.45L30.2 41.42L30.13 41.37L30.08 41.31L30.06 41.16L30.06 38.88L30.91 38.88L30.91 38.45L30.06 38.45L30.06 38.01L30.05 37.81L30 37.61L29.94 37.42L29.85 37.22L29.74 37.06L29.6 36.9L29.44 36.76L29.28 36.65L29.09 36.56L28.89 36.5L28.69 36.45L28.49 36.44L28.49 36.43L26.99 36.43L26.88 36.4L26.81 36.34L26.78 36.22L26.78 35.79L26.75 35.79L26.74 35.68L26.7 35.57L26.64 35.49L26.55 35.43L26.44 35.38L26.34 35.37L26.12 35.37L26.12 36.31L25.27 36.31L25.27 35.37L25.06 35.37L24.95 35.38L24.86 35.43L24.76 35.49L24.7 35.57L24.65 35.68L24.64 35.79L24.63 35.79L24.63 36.18L24.6 36.31L24.56 36.37L24.5 36.42L24.41 36.44L22.84 36.44L22.84 36.45L22.64 36.46L22.44 36.5L22.25 36.57L22.06 36.66L21.89 36.77L21.73 36.91L21.59 37.05L21.48 37.22L21.38 37.42L21.32 37.61L21.27 37.81L21.27 38.01L21.27 41.09L21.24 41.25L21.18 41.35L21.1 41.41L20.99 41.44L18.09 41.44L18.02 41.43L17.95 41.38L17.9 41.31L17.88 41.17L17.88 39.95L17.45 39.95L17.45 41.25L17.42 41.36L17.38 41.39L17.29 41.41L14.23 41.03L14.15 41.01L14.09 40.95L14.04 40.89L14.03 40.81L14.03 40.43L14.03 40.26L13.98 40.1L13.92 39.94L13.83 39.8L13.72 39.66L13.59 39.55L13.45 39.46L13.29 39.4L13.12 39.35L12.96 39.35L10.84 39.35L10.74 39.32L10.71 39.28L10.67 39.22L10.67 35.26L15.37 35.26L15.37 41.16L15.88 41.22L15.88 28.83L24.53 28.21L24.53 28.65L25.05 28.65L25.05 28.17L25.9 28.12L25.9 28.65L26.41 28.65L26.41 28.08L29.47 27.86L29.58 27.87L29.63 27.92L29.66 28.01L29.66 28.65L30.16 28.65L30.16 27.98L30.18 27.87L30.23 27.83L30.31 27.79L33.23 27.59L33.29 27.6L33.35 27.66L33.37 27.73L33.37 34.45L33.38 34.45ZM33.89 27.83L33.91 27.67L33.96 27.61L34.02 27.56L34.13 27.53L34.33 27.52L34.33 27.83L34.34 28.06L34.39 28.27L34.46 28.49L34.57 28.69L34.69 28.88L34.83 29.05L35 29.2L35.2 29.31L35.39 29.41L35.6 29.48L35.6 41.26L33.88 41.26L33.88 27.83L33.89 27.83ZM38.15 49.51L38.15 49.51L38.14 49.62L38.09 49.71L38.03 49.81L37.95 49.87L37.84 49.92L37.73 49.92L37.73 49.93L35.6 49.93L35.6 48.99L35.6 48.99L35.59 48.74L35.53 48.48L35.46 48.23L35.35 47.99L35.22 47.77L35.06 47.55L34.87 47.37L34.68 47.2L34.46 47.06L34.26 46.97L34.16 46.91L34.12 46.83L34.09 46.68L34.09 45.63L38.15 45.63L38.15 49.51ZM38.15 45.14L34.1 45.14L34.1 41.92L34.09 41.8L34.09 41.8L34.08 41.8L34.06 41.73L34.05 41.7L33.99 41.61L33.89 41.53L33.8 41.49L33.74 41.47L33.68 41.46L33.68 41.45L33.74 41.47L33.8 41.48L33.89 41.53L33.99 41.59L34.05 41.69L34.06 41.73L34.09 41.8L38.15 41.8L38.15 45.14ZM38.15 41.27L36.04 41.27L36.04 29.55L38.15 29.55L38.15 41.27Z" fill="#05252F" fill-opacity="1.000000" fill-rule="evenodd"/>
			</g>
		</g>
	</g>
</svg>
