<svg width="40.000000" height="70.000000" viewBox="0 0 40 70" fill="none" xmlns="http://www.w3.org/2000/svg" xmlns:xlink="http://www.w3.org/1999/xlink">
	<desc>
			Created with Pixso.
	</desc>
	<defs>
		<clipPath id="clip2212_748">
			<rect id="60.svg" width="40.000000" height="67.142860" transform="translate(-0.205078 0.849609)" fill="white" fill-opacity="0"/>
		</clipPath>
		<clipPath id="clip2212_747">
			<rect id="60.svg fill" width="40.000000" height="70.000000" transform="translate(-0.205078 -0.579102)" fill="white" fill-opacity="0"/>
		</clipPath>
		<clipPath id="clip2212_746">
			<rect id="60.svg" width="40.000000" height="70.000000" transform="translate(-0.205078 -0.579102)" fill="white" fill-opacity="0"/>
		</clipPath>
	</defs>
	<g clip-path="url(#clip2212_746)">
		<g clip-path="url(#clip2212_747)">
			<g clip-path="url(#clip2212_748)">
				<path id="Vector" d="M5.36 40.59L5.03 40.86L5.03 41.37L5.36 41.65L6.71 41.65L6.71 40.59L5.36 40.59ZM9.16 40.13L9.12 40L9.06 39.85L8.98 39.71L8.89 39.58L8.79 39.46L8.67 39.35L8.54 39.25L8.41 39.16L8.27 39.1L8.12 39.05L7.97 39.01L7.82 38.98L7.66 38.97L7.66 38.96L7.08 38.96L7.12 40.12L7.12 40.2L7.31 40.18L7.51 40.17L7.7 40.18L7.88 40.21L8.07 40.25L8.25 40.31L8.43 40.38L8.6 40.47L8.77 40.57L8.92 40.68L9.07 40.81L9.21 40.94L9.34 41.09L9.46 41.24L9.56 41.41L9.64 41.58L9.72 41.76L9.72 41.82L9.72 41.86L9.69 41.9L9.66 41.93L9.61 41.96L9.57 41.97L9.53 41.96L9.49 41.94L9.45 41.92L9.4 41.82L9.35 41.71L9.25 41.56L9.15 41.41L9.04 41.28L8.91 41.15L8.78 41.04L8.63 40.94L8.48 40.86L8.32 40.79L8.15 40.73L7.98 40.69L7.81 40.66L7.64 40.65L7.46 40.66L7.29 40.69L7.12 40.72L7.12 42.64L6.72 42.64L6.72 42.08L6.71 42.03L6.69 42.01L6.64 42L5.82 42L5.79 42.01L5.78 42.03L5.83 42.3L5.82 42.35L5.8 42.38L5.77 42.4L5.73 42.4L5.66 42.37L4.64 41.5L4.64 40.65L5.68 39.77L5.73 39.75L5.77 39.75L5.8 39.77L5.82 39.8L5.83 39.85L5.78 40.13L5.79 40.16L5.82 40.17L6.66 40.17L6.69 40.14L6.71 40.09L6.66 38.47L7.61 38.47L7.83 38.49L8 38.52L8.16 38.56L8.32 38.62L8.47 38.69L8.62 38.77L8.75 38.87L8.89 38.98L9 39.1L9.12 39.23L9.22 39.37L9.31 39.52L9.38 39.67L9.44 39.82L9.48 39.96L9.49 40.03L9.48 40.08L9.46 40.12L9.41 40.17L9.37 40.18L9.32 40.19L9.27 40.18L9.23 40.16L9.16 40.13Z" fill="#05252F" fill-opacity="1.000000" fill-rule="evenodd"/>
				<path id="Vector" d="M33.69 52.2L34.02 51.92L34.02 51.41L33.69 51.14L32.33 51.14L32.33 52.2L33.69 52.2ZM29.87 52.65L29.92 52.79L29.98 52.93L30.06 53.07L30.15 53.21L30.25 53.32L30.37 53.43L30.49 53.53L30.63 53.62L30.77 53.69L30.92 53.74L31.07 53.78L31.22 53.8L31.38 53.81L31.38 53.82L31.96 53.82L31.92 52.67L31.92 52.58L31.72 52.6L31.53 52.61L31.34 52.6L31.15 52.58L30.97 52.53L30.79 52.47L30.61 52.4L30.44 52.31L30.27 52.21L30.12 52.1L29.97 51.98L29.82 51.84L29.7 51.69L29.58 51.54L29.48 51.37L29.4 51.2L29.32 51.02L29.31 50.97L29.32 50.93L29.35 50.88L29.38 50.85L29.42 50.83L29.46 50.82L29.51 50.83L29.55 50.84L29.59 50.87L29.64 50.96L29.69 51.07L29.78 51.22L29.88 51.37L30 51.51L30.13 51.63L30.26 51.74L30.41 51.84L30.56 51.93L30.72 51.99L30.89 52.05L31.05 52.1L31.23 52.12L31.4 52.13L31.57 52.12L31.75 52.1L31.92 52.06L31.92 50.14L32.32 50.14L32.32 50.71L32.33 50.75L32.34 50.77L32.4 50.78L33.21 50.78L33.25 50.77L33.26 50.76L33.21 50.48L33.21 50.43L33.24 50.4L33.27 50.38L33.31 50.38L33.37 50.41L34.39 51.28L34.39 52.14L33.36 53.01L33.31 53.04L33.27 53.04L33.24 53.01L33.21 52.99L33.21 52.93L33.26 52.65L33.25 52.63L33.21 52.62L32.38 52.62L32.34 52.64L32.33 52.69L32.38 54.32L31.42 54.32L31.21 54.29L31.04 54.27L30.88 54.22L30.72 54.17L30.57 54.1L30.42 54.01L30.28 53.91L30.15 53.8L30.03 53.69L29.92 53.55L29.82 53.42L29.73 53.27L29.66 53.11L29.6 52.96L29.56 52.82L29.55 52.75L29.56 52.7L29.58 52.66L29.62 52.62L29.67 52.6L29.72 52.59L29.77 52.6L29.81 52.63L29.87 52.65Z" fill="#05252F" fill-opacity="1.000000" fill-rule="evenodd"/>
				<path id="Vector" d="M18.66 17.07L18.6 17.11L18.59 17.16L18.6 17.2L19.06 18.17L19.1 18.17L19.15 18.2L19.19 18.23L19.21 18.28L19.22 18.33L19.21 18.38L19.2 18.43L19.17 18.48L19.13 18.5L19.09 18.53L19.04 18.54L18.99 18.53L18.95 18.51L17.82 17.23L17.32 17.23L17.25 17.26L17.21 17.3L17.18 17.35L17.17 17.46L17.17 18.62L17.16 18.65L17.15 18.69L17.11 18.7L17.08 18.71L16.83 18.71L16.79 18.7L16.76 18.69L16.74 18.65L16.73 18.58L16.73 18.17L16.72 18.11L16.7 18.1L16.64 18.09L15.89 18.09L15.86 18.44L15.82 18.48L15.78 18.47L14.7 17.63L14.7 16.78L15.78 15.94L15.82 15.93L15.86 15.94L15.89 16.31L16.66 16.31L16.71 16.29L16.73 16.24L16.73 14.67L17.06 14.54L17.39 14.44L17.73 14.35L18.07 14.27L18.41 14.21L18.75 14.17L19.1 14.14L19.45 14.13L19.48 14.14L19.52 14.15L19.55 14.19L19.56 14.22L19.56 14.26L19.55 14.3L19.23 14.86L19.21 14.93L19.23 14.98L19.31 15.09L19.38 15.21L19.44 15.35L19.48 15.48L19.51 15.62L19.52 15.77L19.51 15.9L19.5 16.05L19.47 16.19L19.42 16.32L19.36 16.45L19.29 16.58L19.2 16.68L19.11 16.79L19 16.88L18.89 16.96L18.76 17.03L18.66 17.07ZM16.78 17.5L16.78 16.9L16.77 16.79L16.74 16.75L16.71 16.72L16.66 16.69L16.56 16.68L15.75 16.68L15.69 16.69L15.64 16.71L15.61 16.73L15.26 17.02L15.2 17.08L15.19 17.14L15.17 17.2L15.19 17.27L15.2 17.32L15.26 17.38L15.62 17.67L15.64 17.69L15.69 17.71L15.75 17.72L16.56 17.72L16.66 17.71L16.71 17.68L16.74 17.64L16.77 17.6L16.78 17.5ZM18.56 15.35L18.59 15.46L18.61 15.57L18.62 15.69L18.61 15.82L18.58 15.94L18.54 16.06L18.49 16.17L18.42 16.28L18.34 16.37L18.25 16.46L18.15 16.54L18.04 16.6L17.92 16.64L17.8 16.68L17.68 16.69L17.55 16.7L17.48 16.69L17.42 16.68L17.36 16.64L17.31 16.59L17.28 16.54L17.25 16.47L17.24 16.42L17.24 16.34L17.3 15.58L17.31 15.49L17.34 15.4L17.38 15.31L17.43 15.23L17.5 15.15L17.58 15.09L17.66 15.04L17.75 15L17.85 14.98L17.94 14.97L18.04 14.98L18.13 14.98L18.23 15.02L18.31 15.06L18.39 15.12L18.46 15.19L18.51 15.26L18.56 15.35Z" fill="#05252F" fill-opacity="1.000000" fill-rule="evenodd"/>
				<path id="Vector" d="M20.72 1.08L19.67 1.08L19.67 24.4L20.72 24.4L20.72 1.08Z" fill="#05252F" fill-opacity="1.000000" fill-rule="nonzero"/>
				<path id="Vector" d="M33.44 1.08L32.39 1.08L32.39 24.4L33.44 24.4L33.44 1.08Z" fill="#05252F" fill-opacity="1.000000" fill-rule="nonzero"/>
				<path id="Vector" d="M27.08 1.08L26.04 1.08L26.04 24.4L27.08 24.4L27.08 1.08Z" fill="#05252F" fill-opacity="1.000000" fill-rule="nonzero"/>
				<path id="Vector" d="M25.89 22.14L20.72 22.14L20.72 24.4L25.89 24.4L25.89 22.14Z" fill="#05252F" fill-opacity="1.000000" fill-rule="nonzero"/>
				<path id="Vector" d="M32.41 22.14L26.93 22.14L26.93 24.4L32.41 24.4L32.41 22.14Z" fill="#05252F" fill-opacity="1.000000" fill-rule="nonzero"/>
				<path id="Vector" d="M37.84 23.64L37.84 18.12L36.45 17.52L36.45 23.54L37.84 23.64ZM35.51 27.77L35.61 27.76L35.7 27.73L35.79 27.7L35.87 27.66L35.95 27.6L36.01 27.52L36.08 27.42L36.81 25.92L36.81 24.34L38.61 24.48L38.61 18.2L38.6 18.09L38.59 17.98L38.55 17.87L38.51 17.77L38.45 17.68L38.38 17.59L38.29 17.52L38.2 17.46L38.1 17.41L38 17.37L35.69 16.34L35.69 23.36L35.68 23.47L35.66 23.58L35.62 23.68L35.56 23.79L35.51 23.88L35.43 23.96L35.35 24.04L35.26 24.1L35.15 24.16L35.05 24.19L35.05 25.01L35.31 25.01L35.41 25.01L35.49 25.02L35.57 25.06L35.66 25.1L35.73 25.15L35.79 25.22L35.85 25.29L35.89 25.38L35.92 25.46L35.94 25.55L35.94 25.64L35.92 25.73L35.9 25.81L35.86 25.9L35.87 25.9L35.35 26.96L35.15 26.96L35 26.97L34.93 26.98L34.86 27.02L34.8 27.06L34.75 27.11L34.71 27.18L34.69 27.24L34.67 27.32L34.67 27.39L34.69 27.47L34.71 27.54L34.75 27.6L34.8 27.66L34.86 27.7L34.93 27.73L35 27.75L35.08 27.76L35.51 27.77ZM35.69 17.24L33.54 15.47L33.52 15.44L33.51 15.41L33.52 15.36L33.54 15.33L33.57 15.3L33.61 15.29L33.64 15.29L33.68 15.3L35.68 16.34L35.7 16.35L35.7 17.24L35.69 17.24ZM35.69 19.28L34.03 18.42L34 18.41L33.96 18.42L33.92 18.43L33.89 18.46L33.87 18.5L33.87 18.54L33.87 18.58L33.9 18.61L35.68 19.96L35.68 19.28L35.69 19.28Z" fill="#05252F" fill-opacity="1.000000" fill-rule="evenodd"/>
				<path id="Vector" d="M29.25 48.86L29.22 48.75L29.16 48.65L29.09 48.58L29 48.52L28.89 48.49L28.73 48.46L27.06 48.46L26.99 48.48L26.92 48.51L26.87 48.56L26.84 48.63L26.82 48.71L26.82 49.79L27.97 49.79L27.97 51.92L27.96 52.03L27.92 52.13L27.87 52.22L27.8 52.3L27.72 52.36L27.61 52.4L27.51 52.42L27.4 52.41L27.4 52.42L25.16 52.42L25.16 52.41L25.05 52.41L24.93 52.37L24.82 52.33L24.72 52.27L24.63 52.19L24.56 52.1L24.5 51.99L24.46 51.88L24.43 51.76L24.43 51.64L24.45 51.52L24.49 51.41L24.54 51.3L24.54 51.29L24.64 51.09L24.71 50.88L24.77 50.67L24.81 50.46L24.84 50.25L24.84 50.04L24.84 50.03L24.84 48.55L23.61 48.55L23.86 49.69L23.86 49.94L6.3 51.34L6.13 51.34L6.07 51.31L6.02 51.27L5.97 51.22L5.94 51.16L5.93 51.09L5.93 43.53L6.67 43.53L6.67 42.21L6.64 42.13L6.58 42.08L6.05 41.94L6 41.95L5.96 41.98L5.93 42.07L5.93 42.45L5.91 42.53L5.87 42.57L5.82 42.61L5.79 42.61L5.56 42.56L5.37 42.5L5.19 42.41L5 42.31L4.84 42.18L4.69 42.06L4.57 41.91L4.44 41.74L4.37 41.6L4.29 41.4L4.25 41.22L4.22 40.94L4.22 40.22L4.25 40.16L4.29 40.1L4.34 40.06L4.41 40.02L5.71 39.67L5.78 39.66L5.83 39.68L5.87 39.71L5.91 39.75L5.92 39.8L5.92 40.11L5.94 40.17L5.98 40.21L6.06 40.22L6.58 40.07L6.64 40.03L6.66 39.95L6.66 38.58L5.92 38.58L0.33 40.09L0.33 40.1L0.22 40.14L0.11 40.2L0.02 40.27L-0.07 40.36L-0.12 40.45L-0.17 40.57L-0.2 40.69L-0.21 40.81L-0.21 67.5L-0.19 67.58L-0.16 67.64L-0.11 67.69L-0.04 67.73L0.03 67.74L0.61 67.74L0.74 67.73L0.85 67.68L0.99 67.58L1.44 67.12L1.56 66.99L1.61 66.89L1.64 66.8L1.66 66.62L1.66 66.16L1.02 66.16L1.02 63.94L1.03 63.89L1.07 63.85L1.11 63.81L1.22 63.79L3.92 63.79L4.01 63.82L4.06 63.86L4.08 63.91L4.09 63.97L3.63 66.53L3.66 66.65L4.09 67.4L4.1 67.4L4.15 67.48L4.22 67.55L4.32 67.59L4.42 67.64L4.52 67.64L4.69 67.64L4.81 67.63L4.92 67.58L5.02 67.53L5.1 67.44L5.64 66.68L5.69 66.58L5.73 66.47L5.73 66.14L4.68 66.12L4.62 66.1L4.57 66.06L4.54 66.01L4.53 65.94L4.89 63.92L4.93 63.83L4.97 63.8L5.07 63.77L23.99 63.77L24.09 63.8L24.13 63.84L24.17 63.91L24.53 65.96L24.52 66.03L24.49 66.08L24.44 66.12L24.38 66.14L23.32 66.14L23.32 66.47L23.36 66.58L23.45 66.73L23.96 67.43L24.03 67.52L24.13 67.58L24.24 67.62L24.36 67.64L24.54 67.64L24.64 67.63L24.74 67.58L24.84 67.54L24.91 67.48L24.96 67.39L24.97 67.39L25.4 66.64L25.42 66.52L24.97 63.96L24.98 63.9L25 63.85L25.05 63.81L25.15 63.78L27.84 63.78L27.95 63.8L27.99 63.84L28.03 63.88L28.04 63.93L28.04 66.15L27.41 66.15L27.41 66.63L27.43 66.83L27.48 66.95L27.58 67.08L28.03 67.53L28.17 67.66L28.26 67.7L28.35 67.74L28.44 67.74L29.02 67.74L29.1 67.73L29.16 67.69L29.21 67.64L29.25 67.58L29.27 67.46L29.27 49.02L29.25 48.86ZM1.01 41.08L3.42 40.44L3.42 40.74L3.43 40.97L3.46 41.2L3.51 41.43L3.58 41.65L3.66 41.86L3.77 42.07L3.9 42.27L4.04 42.45L4.19 42.63L4.37 42.79L4.55 42.93L4.74 43.06L4.95 43.18L4.95 49.45L4.94 49.56L4.89 49.6L4.85 49.65L4.8 49.66L1.16 49.66L1.11 49.65L1.07 49.6L1.03 49.56L1.02 49.51L1.02 41.08L1.01 41.08ZM5.29 62.66L5.28 62.71L5.24 62.76L5.2 62.8L5.15 62.81L1.16 62.81L1.11 62.8L1.07 62.76L1.03 62.71L1.02 62.66L1.02 59L1.03 58.95L1.07 58.91L1.11 58.87L1.16 58.86L5.15 58.86L5.2 58.87L5.24 58.91L5.28 58.95L5.29 59L5.29 62.66ZM5.29 58.3L5.28 58.35L5.24 58.4L5.2 58.44L5.15 58.46L1.16 58.46L1.11 58.45L1.07 58.41L1.03 58.36L1.02 58.31L1.02 50.2L1.03 50.15L1.07 50.11L1.11 50.07L1.16 50.06L4.8 50.06L4.85 50.07L4.89 50.11L4.94 50.15L4.95 50.26L4.95 51.35L4.98 51.53L5.02 51.7L5.09 51.86L5.18 52.01L5.3 52.15L5.3 58.3L5.29 58.3ZM23.87 57.61L23.63 57.87L23.87 58.1L23.87 62.81L5.83 62.81L5.78 62.8L5.74 62.76L5.7 62.71L5.69 62.66L5.69 52.42L23.3 51.04L23.38 51.04L23.43 51.07L23.47 51.11L23.51 51.16L23.51 51.22L23.51 51.28L23.47 51.33L23.49 51.33L23.44 51.5L23.41 51.68L23.41 51.84L23.45 52.02L22.39 52.02L22.39 52.41L23.27 52.41L23.4 52.43L23.51 52.47L23.61 52.52L23.72 52.61L23.78 52.71L23.83 52.82L23.87 52.94L23.87 53.06L23.87 57.61ZM28.05 62.66L28.04 62.71L28 62.76L27.96 62.8L27.91 62.81L24.27 62.81L24.27 59.35L27.91 59.35L27.96 59.36L28 59.4L28.04 59.44L28.05 59.49L28.05 62.66ZM28.05 58.8L28.04 58.85L28 58.89L27.96 58.94L27.91 58.94L24.27 58.94L24.27 55.15L25.1 55.15L25.1 54.65L24.27 54.65L24.27 53.41L26.57 53.42L26.57 54.15L26.82 54.15L27.55 53.41L27.85 53.41L27.96 53.43L28 53.47L28.04 53.51L28.05 53.56L28.05 58.8Z" fill="#05252F" fill-opacity="1.000000" fill-rule="nonzero"/>
				<path id="Vector" d="M39.31 24.96L39.26 24.86L39.21 24.77L39.14 24.69L39.05 24.64L38.94 24.6L38.83 24.59L38.83 24.58L37.19 24.58L37.03 24.6L36.97 24.64L36.91 24.69L36.88 24.75L36.86 24.91L36.86 25.92L38.03 25.92L38.03 28.04L38.02 28.04L38.01 28.15L37.98 28.25L37.92 28.34L37.86 28.41L37.77 28.47L37.68 28.51L37.57 28.53L37.46 28.52L37.46 28.53L35.22 28.53L35.22 28.52L35.1 28.51L34.97 28.48L34.85 28.43L34.75 28.35L34.67 28.27L34.59 28.17L34.54 28.05L34.52 27.92L34.51 27.79L34.53 27.66L34.56 27.54L34.61 27.42L34.61 27.41L34.73 27.18L34.81 26.93L34.87 26.68L34.9 26.43L34.9 26.17L34.9 24.68L33.67 24.68L33.92 25.8L33.92 26.06L16.47 27.45L16.36 27.45L16.25 27.42L16.16 27.38L16.09 27.31L16.03 27.23L15.99 27.13L15.98 27.02L15.97 27.02L15.97 19.64L16.72 19.64L16.72 18.33L16.7 18.27L16.66 18.22L16.61 18.2L16.15 18.07L16.06 18.07L16.01 18.11L15.99 18.16L15.99 18.56L15.97 18.64L15.93 18.68L15.89 18.7L15.86 18.71L15.61 18.66L15.41 18.6L15.21 18.52L15.04 18.4L14.87 18.27L14.72 18.11L14.59 17.95L14.47 17.77L14.38 17.58L14.33 17.37L14.28 17.12L14.28 16.34L14.29 16.27L14.33 16.2L14.38 16.15L14.54 16.09L15.83 15.74L15.91 15.75L15.94 15.78L15.96 15.83L15.96 16.21L15.97 16.26L15.99 16.3L16.03 16.31L16.11 16.3L16.56 16.18L16.63 16.14L16.67 16.1L16.69 15.97L16.69 14.67L15.94 14.67L10.34 16.18L10.35 16.19L10.22 16.23L10.1 16.3L9.99 16.38L9.92 16.49L9.86 16.61L9.82 16.74L9.79 16.94L9.79 44.1L9.8 44.17L9.83 44.23L9.89 44.29L9.95 44.32L10.02 44.33L11.01 44.33L11.09 44.32L11.15 44.29L11.2 44.23L11.24 44.17L11.25 44.1L11.25 43.6L11 43.6L11 42.18L11.03 42.05L11.06 41.98L11.12 41.92L11.19 41.89L11.27 41.87L14.76 41.87L14.84 41.92L14.89 41.98L14.92 42.06L14.63 43.84L14.14 43.84L14.14 44.34L20.54 44.34L20.54 43.25L21.52 43.25L21.52 42.41L20.54 42.41L20.54 39.25L20.54 39.25L20.55 39.11L20.59 38.99L20.64 38.87L20.71 38.77L20.79 38.69L20.9 38.61L21.02 38.56L21.15 38.53L21.28 38.52L21.28 38.51L24.28 38.51L24.52 38.26L24.76 38.51L27.76 38.51L27.76 38.52L27.89 38.53L28.02 38.56L28.13 38.61L28.23 38.69L28.32 38.77L28.39 38.87L28.44 38.99L28.48 39.11L28.49 39.25L28.49 42.41L27.57 42.41L27.57 43.25L28.55 43.25L28.55 44.34L33.17 44.34L33.17 49.29L32.44 49.29L32.44 50.6L32.49 50.68L32.55 50.72L33.05 50.86L33.1 50.86L33.15 50.83L33.16 50.77L33.16 50.42L33.18 50.3L33.21 50.25L33.26 50.22L33.31 50.2L33.36 50.21L33.36 50.22L33.56 50.26L33.76 50.32L33.94 50.41L34.12 50.51L34.28 50.65L34.43 50.81L34.55 50.97L34.66 51.15L34.75 51.34L34.8 51.54L34.84 51.74L34.85 51.95L34.85 52.99L34.84 53.06L34.8 53.12L34.75 53.18L34.69 53.21L34.61 53.22L33.28 53.22L33.24 53.21L33.2 53.17L33.18 53.09L33.18 52.68L33.16 52.63L33.11 52.6L33.03 52.6L32.56 52.72L32.49 52.79L32.45 52.88L32.45 54.22L38.35 54.22L38.35 54.22L38.51 54.21L38.66 54.17L38.8 54.12L38.94 54.04L39.05 53.94L39.16 53.82L39.24 53.69L39.3 53.54L39.33 53.39L39.34 53.23L39.34 25.06L39.31 24.96ZM11.05 17.13L13.15 16.56L13.21 16.55L13.28 16.56L13.33 16.59L13.37 16.65L13.39 16.71L13.4 16.71L13.39 16.96L13.41 17.21L13.45 17.45L13.51 17.69L13.58 17.92L13.69 18.15L13.82 18.37L13.96 18.57L14.13 18.75L14.3 18.93L14.49 19.1L14.69 19.24L14.83 19.33L14.94 19.41L14.96 19.45L14.98 19.58L14.98 25.54L14.96 25.65L14.93 25.7L14.89 25.73L14.78 25.75L11.05 25.75L11.05 17.13L11.05 17.13ZM11.05 26.15L14.8 26.15L14.91 26.17L14.96 26.23L14.99 26.33L14.99 27.22L15.01 27.48L15.05 27.64L15.12 27.8L15.21 27.95L15.31 28.08L15.44 28.2L15.58 28.29L15.66 28.34L15.79 28.42L15.82 28.51L15.82 36.16L11.05 36.16L11.05 26.15ZM15.42 40.81L15.39 40.88L15.34 40.93L15.27 40.97L15.2 40.97L11.36 40.97L11.28 40.95L11.2 40.91L11.15 40.85L11.1 40.77L11.08 40.69L11.08 40.6L11.08 36.56L15.85 36.56L15.46 40.75L15.42 40.81ZM29.72 43.26L29.61 43.24L29.56 43.19L29.53 43.09L29.53 39.85L31.26 39.85L31.26 39.27L29.53 39.27L29.52 39.07L29.49 38.88L29.44 38.69L29.36 38.52L29.28 38.34L29.16 38.18L29.03 38.04L28.89 37.9L28.73 37.79L28.55 37.7L28.38 37.62L28.19 37.57L28 37.54L27.81 37.53L27.81 37.52L25.79 37.52L25.79 36.9L25.76 36.78L25.7 36.66L25.63 36.54L25.54 36.46L25.44 36.39L25.31 36.34L25.19 36.3L25.05 36.3L25.05 37.37L24.07 37.37L24.07 36.3L23.93 36.3L23.81 36.34L23.69 36.39L23.58 36.46L23.5 36.55L23.42 36.66L23.37 36.78L23.34 36.9L23.33 37.04L23.33 37.52L21.31 37.52L21.31 37.53L21.12 37.54L20.93 37.57L20.74 37.62L20.57 37.7L20.39 37.79L20.23 37.9L20.09 38.04L19.96 38.18L19.84 38.34L19.76 38.52L19.71 38.69L19.66 38.87L19.62 39.06L19.62 39.26L19.61 39.26L19.61 43.06L19.59 43.17L19.56 43.21L19.51 43.25L19.41 43.26L15.6 43.26L16.22 36.54L16.22 28.67L16.24 28.57L16.28 28.53L16.38 28.5L23.32 27.95L23.39 27.96L23.44 27.98L23.47 28.03L23.49 28.16L23.49 28.69L24.08 28.69L24.08 28.06L24.1 27.96L24.14 27.92L24.21 27.89L24.86 27.83L24.95 27.85L25 27.87L25.03 27.92L25.05 28.04L25.05 28.7L25.64 28.7L25.64 27.94L25.67 27.84L25.71 27.8L25.81 27.76L30.97 27.35L31.08 27.37L31.13 27.41L31.16 27.5L31.16 28.67L31.75 28.67L31.75 27.43L31.77 27.33L31.82 27.29L31.88 27.26L33.3 27.14L33.41 27.16L33.46 27.19L33.5 27.23L33.52 27.29L33.52 27.39L33.48 27.54L33.46 27.71L33.45 27.9L33.46 28.08L33.5 28.26L33.55 28.43L33.62 28.6L33.73 28.75L33.85 28.89L33.98 29.03L34.13 29.13L34.13 43.28L29.72 43.28L29.72 43.26ZM38.08 52.94L38.08 53.01L38.04 53.08L37.99 53.12L37.92 53.14L35.98 53.14L35.86 53.11L35.8 53.07L35.76 53.01L35.75 52.94L35.75 52.13L35.72 51.8L35.67 51.55L35.61 51.31L35.52 51.08L35.4 50.85L35.26 50.63L35.11 50.43L34.95 50.24L34.76 50.06L34.56 49.91L34.39 49.79L34.28 49.66L34.22 49.55L34.18 49.42L34.17 49.29L34.18 49.16L34.17 49.16L34.17 47.95L38.1 47.95L38.1 52.94L38.08 52.94ZM38.08 47.55L34.15 47.55L34.16 43.93L34.17 43.86L34.2 43.8L34.24 43.76L34.3 43.72L34.44 43.71L38.08 43.71L38.08 47.55L38.08 47.55ZM38.08 43.3L34.54 43.3L34.54 29.51L38.08 29.51L38.08 43.3Z" fill="#05252F" fill-opacity="1.000000" fill-rule="nonzero"/>
			</g>
		</g>
	</g>
</svg>
