<svg width="50.000000" height="40.000000" viewBox="0 0 50 40" fill="none" xmlns="http://www.w3.org/2000/svg" xmlns:xlink="http://www.w3.org/1999/xlink">
	<desc>
			Created with Pixso.
	</desc>
	<defs>
		<clipPath id="clip2212_799">
			<rect id="manager-person" width="25.000000" height="40.000000" transform="translate(-0.205078 -0.579102)" fill="white" fill-opacity="0"/>
		</clipPath>
		<clipPath id="clip2212_798">
			<rect id="SVG" width="50.000000" height="40.000000" transform="translate(-0.205078 -0.579102)" fill="white" fill-opacity="0"/>
		</clipPath>
	</defs>
	<g clip-path="url(#clip2212_798)">
		<rect id="manager-person" width="25.000000" height="40.000000" transform="translate(-0.205078 -0.579102)" fill="#FFFFFF" fill-opacity="0"/>
		<g clip-path="url(#clip2212_799)">
			<path id="Vector" d="M7.73 24.79C5.91 23.55 4.77 21.91 4.32 19.81C3.87 19.75 3.43 19.73 3.02 19.62C1.31 19.16 0.21 18.05 -0.12 16.31C-0.46 14.51 0.19 13.06 1.69 12.01C1.89 11.87 1.97 11.73 1.98 11.47C2.01 10.32 1.97 9.14 2.14 8C2.58 5.01 4.16 2.69 6.67 1.02C7.95 0.19 9.34 -0.36 10.86 -0.51C14.66 -0.9 17.87 0.28 20.31 3.3C21.85 5.22 22.53 7.45 22.53 9.9C22.53 10.45 22.51 11 22.54 11.54C22.55 11.69 22.65 11.89 22.77 11.97C25.36 13.73 25.36 17.34 22.78 19.08C22.65 19.17 22.55 19.38 22.54 19.54C22.51 20.02 22.51 20.51 22.53 20.99C22.66 23.3 20.49 24.93 18.28 24.06C17.93 23.91 17.73 24.02 17.51 24.24C17.32 24.43 17.29 24.59 17.51 24.79C18.1 25.35 18.67 25.92 19.23 26.5C20.88 28.2 21.05 30.48 19.62 32.36C18.11 34.32 16.58 36.27 15.03 38.19C13.68 39.85 11.49 39.81 10.16 38.13C8.66 36.25 7.17 34.35 5.68 32.45C4.19 30.55 4.33 28.2 6.04 26.47C6.58 25.92 7.14 25.37 7.73 24.79ZM16.07 23.33C14.72 22.9 13.46 22.36 12.07 22.35C11.56 22.35 11.25 21.98 11.27 21.53C11.29 21.09 11.62 20.77 12.11 20.79C12.58 20.81 13.08 20.81 13.54 20.93C14.72 21.25 15.89 21.61 17.05 22C17.35 22.09 17.49 22.04 17.66 21.8C18.27 20.88 18.68 19.88 18.71 18.77C18.75 16.99 18.73 15.2 18.74 13.42C18.74 13.36 18.72 13.29 18.72 13.33C17.92 13.22 17.17 13.12 16.41 13.03C16 12.98 15.59 12.93 15.17 12.92C13.74 12.89 12.4 13.29 11.1 13.86C9.97 14.35 8.82 14.45 7.62 14.22C7.17 14.13 6.72 13.98 6.26 13.88C5.83 13.79 5.74 13.88 5.74 14.29C5.74 15.61 5.72 16.92 5.74 18.24C5.76 20.36 6.63 22.07 8.35 23.3C9.75 24.31 11.35 24.48 13.02 24.36C14.12 24.29 15.11 23.98 16.07 23.33ZM8.57 26.21C8.01 26.75 7.47 27.23 7 27.75C6.02 28.83 5.95 30.2 6.85 31.36C8.37 33.33 9.92 35.3 11.49 37.25C12.11 38.04 13.14 38.03 13.77 37.23C15.32 35.29 16.86 33.34 18.39 31.37C19.14 30.39 19.3 29.28 18.58 28.25C18.01 27.42 17.22 26.73 16.5 25.94C15.85 27.06 15.25 28.09 14.64 29.13C14.29 29.74 13.81 30.19 13.09 30.35C12.04 30.59 11.15 30.2 10.52 29.24C9.87 28.25 9.22 27.23 8.57 26.21ZM3.59 11.3C4.28 11.34 4.28 11.34 4.47 10.7C4.98 9 5.99 7.67 7.43 6.65C9.1 5.45 11 5.15 13 5.26C16.34 5.46 19.22 7.7 20.05 10.74C20.21 11.36 20.21 11.36 20.91 11.29C20.93 11.26 20.95 11.22 20.95 11.19C20.96 10.74 20.96 10.28 20.96 9.83C20.94 7.14 19.95 4.9 17.95 3.09C15.06 0.5 10.41 0.26 7.27 2.54C4.29 4.71 3.3 7.72 3.59 11.3ZM18.6 11.58C18.24 10.03 17.41 8.81 16.12 7.92C14.59 6.86 12.85 6.64 11.07 6.91C8.53 7.28 6.81 8.71 6 11.18C5.89 11.52 5.84 11.89 5.78 12.2C6.32 12.31 6.78 12.42 7.25 12.52C7.66 12.6 8.07 12.69 8.48 12.75C9.41 12.89 10.24 12.52 11.08 12.19C12.87 11.47 14.73 11.18 16.66 11.48C17.28 11.57 17.9 11.85 18.6 11.58ZM4.15 18.16C4.15 16.39 4.15 14.66 4.15 12.93C2.72 12.77 1.41 13.94 1.37 15.46C1.33 17.09 2.69 18.25 4.15 18.16ZM20.36 18.15C21.92 18.2 23.17 16.99 23.14 15.5C23.11 13.98 21.82 12.78 20.36 12.92C20.36 14.65 20.36 16.39 20.36 18.15ZM14.85 25.66C13.26 26.07 11.76 26.03 10.18 25.81C10.8 26.77 11.37 27.68 11.99 28.57C12.29 29.02 12.9 28.96 13.2 28.48C13.74 27.58 14.26 26.66 14.85 25.66ZM19.08 22.63C19.87 22.89 20.76 22.45 20.87 21.64C20.96 21.03 20.89 20.4 20.89 19.78C20.21 19.69 20.2 19.7 20.04 20.3C20 20.45 19.97 20.61 19.91 20.75C19.64 21.39 19.36 22.01 19.08 22.63Z" fill="#00171F" fill-opacity="1.000000" fill-rule="nonzero"/>
			<path id="Vector" d="M15.18 15.59C15.61 15.59 15.98 16 15.97 16.45C15.95 16.86 15.58 17.2 15.17 17.2C14.74 17.2 14.38 16.81 14.4 16.35C14.41 15.92 14.77 15.58 15.18 15.59Z" fill="#00171F" fill-opacity="1.000000" fill-rule="nonzero"/>
			<path id="Vector" d="M10.36 16.42C10.36 16.86 9.99 17.21 9.56 17.19C9.15 17.18 8.79 16.79 8.79 16.36C8.79 15.96 9.15 15.59 9.57 15.59C9.99 15.58 10.36 15.96 10.36 16.42Z" fill="#00171F" fill-opacity="1.000000" fill-rule="nonzero"/>
		</g>
	</g>
</svg>
