<svg width="50.000000" height="40.000000" viewBox="0 0 50 40" fill="none" xmlns="http://www.w3.org/2000/svg" xmlns:xlink="http://www.w3.org/1999/xlink">
	<desc>
			Created with Pixso.
	</desc>
	<defs>
		<clipPath id="clip2212_806">
			<rect id="calculator" width="32.000000" height="40.000000" transform="translate(-0.205078 -0.579102)" fill="white" fill-opacity="0"/>
		</clipPath>
		<clipPath id="clip2212_805">
			<rect id="SVG" width="50.000000" height="40.000000" transform="translate(-0.205078 -0.579102)" fill="white" fill-opacity="0"/>
		</clipPath>
	</defs>
	<g clip-path="url(#clip2212_805)">
		<rect id="calculator" width="32.000000" height="40.000000" transform="translate(-0.205078 -0.579102)" fill="#FFFFFF" fill-opacity="0"/>
		<g clip-path="url(#clip2212_806)">
			<path id="Vector" d="M-0.21 19.37C-0.21 14.31 -0.21 9.23 -0.21 4.17C-0.21 1.91 1.23 0.07 3.38 -0.44C3.77 -0.53 4.18 -0.57 4.58 -0.57C12.06 -0.58 19.52 -0.58 26.99 -0.58C29.75 -0.58 31.78 1.44 31.78 4.2C31.78 14.34 31.78 24.48 31.78 34.62C31.78 37.38 29.74 39.4 26.99 39.4C19.52 39.42 12.04 39.42 4.58 39.4C1.82 39.4 -0.21 37.37 -0.21 34.62C-0.21 29.54 -0.21 24.46 -0.21 19.37ZM1.13 19.4C1.13 24.44 1.13 29.46 1.13 34.49C1.13 36.69 2.52 38.08 4.71 38.08C12.1 38.08 19.48 38.08 26.87 38.08C29.06 38.08 30.45 36.69 30.45 34.49C30.45 24.45 30.45 14.41 30.45 4.37C30.45 2.14 29.07 0.75 26.85 0.75C19.48 0.75 12.1 0.75 4.73 0.75C2.51 0.75 1.13 2.14 1.13 4.37C1.13 9.38 1.13 14.4 1.13 19.4Z" fill="#00171F" fill-opacity="1.000000" fill-rule="nonzero"/>
			<path id="Vector" d="M15.79 2.09C19.5 2.09 23.21 2.09 26.91 2.09C28.3 2.09 29.12 2.9 29.12 4.28C29.12 5.95 29.12 7.61 29.12 9.28C29.12 10.58 28.28 11.41 26.98 11.41C19.51 11.41 12.04 11.41 4.58 11.41C3.3 11.41 2.46 10.57 2.45 9.31C2.45 7.62 2.45 5.93 2.45 4.22C2.46 2.92 3.3 2.09 4.59 2.09C8.33 2.09 12.06 2.09 15.79 2.09ZM15.75 10.09C19.47 10.09 23.2 10.09 26.91 10.09C27.57 10.09 27.79 9.87 27.79 9.21C27.79 7.57 27.79 5.93 27.79 4.29C27.79 3.63 27.57 3.41 26.91 3.41C19.5 3.41 12.08 3.41 4.66 3.41C4.01 3.41 3.79 3.63 3.79 4.29C3.79 5.9 3.79 7.52 3.79 9.12C3.79 9.89 3.97 10.08 4.74 10.08C8.42 10.09 12.08 10.09 15.75 10.09Z" fill="#00171F" fill-opacity="1.000000" fill-rule="nonzero"/>
			<path id="Vector" d="M29.12 29.42C29.12 31.15 29.12 32.86 29.12 34.59C29.12 35.94 28.29 36.76 26.93 36.76C25.71 36.76 24.49 36.76 23.27 36.76C21.97 36.76 21.13 35.92 21.13 34.63C21.13 31.16 21.13 27.68 21.13 24.21C21.13 22.92 21.97 22.09 23.27 22.09C24.51 22.09 25.74 22.09 26.98 22.09C28.3 22.09 29.13 22.92 29.13 24.26C29.13 25.97 29.12 27.7 29.12 29.42ZM27.79 29.45C27.79 27.72 27.79 25.98 27.79 24.25C27.79 23.64 27.56 23.41 26.96 23.41C25.73 23.41 24.51 23.41 23.3 23.41C22.69 23.41 22.46 23.64 22.46 24.25C22.46 27.68 22.46 31.14 22.46 34.57C22.46 35.18 22.69 35.41 23.3 35.41C24.51 35.41 25.71 35.41 26.92 35.41C27.58 35.41 27.8 35.19 27.8 34.53C27.79 32.85 27.79 31.16 27.79 29.45Z" fill="#00171F" fill-opacity="1.000000" fill-rule="nonzero"/>
			<path id="Vector" d="M6.46 20.75C5.8 20.75 5.15 20.76 4.5 20.75C3.33 20.74 2.47 19.89 2.46 18.73C2.45 17.85 2.45 16.98 2.46 16.1C2.47 14.95 3.33 14.1 4.46 14.08C5.8 14.07 7.12 14.07 8.46 14.08C9.57 14.1 10.43 14.95 10.45 16.07C10.46 16.96 10.46 17.85 10.45 18.73C10.44 19.87 9.58 20.72 8.45 20.74C7.78 20.76 7.11 20.75 6.46 20.75ZM6.45 19.42C7.07 19.42 7.69 19.42 8.32 19.42C8.86 19.42 9.12 19.17 9.12 18.64C9.13 17.83 9.13 17.02 9.12 16.22C9.12 15.65 8.87 15.42 8.29 15.42C7.07 15.42 5.84 15.42 4.63 15.42C4.03 15.42 3.8 15.65 3.79 16.24C3.79 17.02 3.79 17.8 3.79 18.58C3.79 19.2 4.02 19.43 4.65 19.43C5.25 19.42 5.84 19.42 6.45 19.42Z" fill="#00171F" fill-opacity="1.000000" fill-rule="nonzero"/>
			<path id="Vector" d="M15.78 14.08C16.45 14.08 17.12 14.07 17.79 14.08C18.92 14.1 19.78 14.95 19.79 16.1C19.8 16.99 19.8 17.88 19.79 18.76C19.77 19.87 18.92 20.73 17.8 20.74C16.46 20.75 15.14 20.75 13.8 20.74C12.67 20.73 11.81 19.87 11.8 18.73C11.79 17.84 11.79 16.95 11.8 16.07C11.81 14.95 12.67 14.1 13.79 14.08C14.45 14.07 15.12 14.08 15.78 14.08ZM15.77 19.42C16.41 19.42 17.05 19.43 17.69 19.42C18.2 19.4 18.44 19.16 18.45 18.65C18.47 17.82 18.47 17.01 18.45 16.19C18.45 15.68 18.2 15.42 17.69 15.42C16.42 15.41 15.16 15.41 13.89 15.42C13.38 15.42 13.13 15.68 13.12 16.19C13.11 17.01 13.11 17.82 13.12 18.65C13.12 19.16 13.38 19.4 13.89 19.42C14.53 19.43 15.15 19.42 15.77 19.42Z" fill="#00171F" fill-opacity="1.000000" fill-rule="nonzero"/>
			<path id="Vector" d="M25.11 20.75C24.45 20.75 23.81 20.76 23.15 20.75C21.98 20.74 21.13 19.88 21.11 18.73C21.1 17.85 21.1 16.98 21.11 16.1C21.13 14.95 21.98 14.1 23.12 14.08C24.45 14.07 25.78 14.07 27.11 14.08C28.23 14.1 29.08 14.95 29.11 16.07C29.12 16.97 29.12 17.87 29.11 18.77C29.08 19.86 28.24 20.72 27.15 20.74C26.48 20.76 25.8 20.75 25.11 20.75ZM25.08 19.42C25.71 19.42 26.36 19.42 26.99 19.42C27.54 19.42 27.78 19.17 27.78 18.63C27.79 17.82 27.79 17.01 27.78 16.21C27.78 15.66 27.54 15.42 26.99 15.42C25.74 15.42 24.49 15.42 23.24 15.42C22.7 15.42 22.45 15.66 22.45 16.21C22.44 17.01 22.44 17.82 22.45 18.63C22.45 19.17 22.7 19.42 23.24 19.42C23.85 19.43 24.46 19.42 25.08 19.42Z" fill="#00171F" fill-opacity="1.000000" fill-rule="nonzero"/>
			<path id="Vector" d="M6.45 22.09C7.11 22.09 7.78 22.08 8.45 22.09C9.58 22.1 10.44 22.96 10.45 24.1C10.46 24.99 10.46 25.88 10.45 26.76C10.43 27.87 9.58 28.73 8.46 28.74C7.12 28.75 5.8 28.75 4.46 28.74C3.32 28.73 2.47 27.87 2.46 26.73C2.45 25.84 2.45 24.95 2.46 24.07C2.47 22.96 3.33 22.1 4.45 22.09C5.12 22.08 5.78 22.09 6.45 22.09ZM6.46 27.42C7.08 27.42 7.7 27.42 8.33 27.42C8.87 27.42 9.12 27.17 9.12 26.63C9.13 25.83 9.13 25.01 9.12 24.21C9.12 23.67 8.87 23.42 8.33 23.42C7.08 23.42 5.82 23.42 4.58 23.42C4.03 23.42 3.79 23.67 3.79 24.21C3.77 25.01 3.77 25.83 3.79 26.63C3.79 27.17 4.03 27.42 4.58 27.42C5.21 27.42 5.83 27.42 6.46 27.42Z" fill="#00171F" fill-opacity="1.000000" fill-rule="nonzero"/>
			<path id="Vector" d="M15.79 22.09C16.46 22.09 17.13 22.08 17.8 22.09C18.92 22.11 19.78 22.96 19.79 24.07C19.8 24.97 19.8 25.87 19.79 26.77C19.77 27.89 18.91 28.74 17.8 28.75C16.46 28.76 15.14 28.76 13.8 28.75C12.67 28.74 11.82 27.87 11.8 26.74C11.79 25.86 11.79 24.99 11.8 24.11C11.81 22.96 12.67 22.11 13.84 22.09C14.48 22.08 15.14 22.09 15.79 22.09ZM15.83 23.42C15.19 23.42 14.55 23.42 13.91 23.42C13.37 23.42 13.12 23.67 13.12 24.21C13.11 25.01 13.11 25.83 13.12 26.63C13.12 27.17 13.37 27.42 13.91 27.42C15.16 27.42 16.42 27.42 17.66 27.42C18.21 27.42 18.45 27.17 18.45 26.63C18.47 25.83 18.47 25.01 18.45 24.21C18.45 23.67 18.21 23.42 17.66 23.42C17.05 23.41 16.44 23.42 15.83 23.42Z" fill="#00171F" fill-opacity="1.000000" fill-rule="nonzero"/>
			<path id="Vector" d="M6.43 36.76C5.78 36.76 5.13 36.77 4.48 36.76C3.33 36.74 2.47 35.89 2.46 34.75C2.45 33.86 2.45 32.97 2.46 32.09C2.47 30.98 3.33 30.11 4.44 30.1C5.79 30.09 7.14 30.09 8.48 30.1C9.57 30.11 10.43 30.97 10.45 32.06C10.46 32.96 10.46 33.86 10.45 34.76C10.44 35.89 9.58 36.73 8.47 36.76C7.79 36.76 7.11 36.76 6.43 36.76ZM6.5 31.41C5.87 31.41 5.22 31.41 4.59 31.41C4.04 31.41 3.8 31.66 3.8 32.2C3.79 33 3.79 33.82 3.8 34.62C3.8 35.16 4.04 35.41 4.59 35.41C5.83 35.41 7.09 35.41 8.34 35.41C8.88 35.41 9.13 35.16 9.13 34.62C9.14 33.82 9.14 33 9.13 32.2C9.13 31.66 8.88 31.41 8.34 31.41C7.73 31.41 7.11 31.41 6.5 31.41Z" fill="#00171F" fill-opacity="1.000000" fill-rule="nonzero"/>
			<path id="Vector" d="M15.83 30.09C16.48 30.09 17.13 30.08 17.79 30.09C18.91 30.11 19.77 30.96 19.78 32.07C19.79 32.97 19.79 33.87 19.78 34.77C19.76 35.89 18.9 36.74 17.79 36.76C16.45 36.77 15.13 36.77 13.79 36.76C12.66 36.74 11.81 35.88 11.79 34.74C11.78 33.86 11.78 32.99 11.79 32.11C11.8 30.96 12.66 30.11 13.82 30.1C14.5 30.08 15.16 30.09 15.83 30.09ZM15.79 31.41C15.17 31.41 14.55 31.41 13.92 31.41C13.38 31.41 13.13 31.66 13.13 32.2C13.12 33 13.13 33.82 13.13 34.62C13.13 35.16 13.38 35.41 13.92 35.41C15.17 35.41 16.43 35.41 17.68 35.41C18.22 35.41 18.47 35.16 18.47 34.62C18.48 33.82 18.48 33 18.47 32.2C18.47 31.66 18.22 31.41 17.68 31.41C17.04 31.41 16.42 31.41 15.79 31.41Z" fill="#00171F" fill-opacity="1.000000" fill-rule="nonzero"/>
			<path id="Vector" d="M27.11 6.77C27.11 7.02 27.12 7.27 27.11 7.52C27.06 8.58 26.18 9.41 25.12 9.41C24.06 9.41 23.17 8.58 23.13 7.52C23.11 7.01 23.11 6.49 23.13 5.98C23.17 4.93 24.06 4.09 25.12 4.09C26.18 4.09 27.07 4.93 27.11 5.98C27.12 6.24 27.11 6.51 27.11 6.77ZM25.79 6.77C25.79 6.54 25.8 6.29 25.79 6.06C25.76 5.67 25.47 5.4 25.11 5.41C24.77 5.43 24.49 5.68 24.48 6.06C24.45 6.52 24.45 6.97 24.48 7.43C24.49 7.8 24.77 8.06 25.11 8.08C25.47 8.09 25.77 7.82 25.79 7.43C25.8 7.22 25.79 7 25.79 6.77Z" fill="#00171F" fill-opacity="1.000000" fill-rule="nonzero"/>
		</g>
	</g>
</svg>
