<svg width="50.000000" height="40.000000" viewBox="0 0 50 40" fill="none" xmlns="http://www.w3.org/2000/svg" xmlns:xlink="http://www.w3.org/1999/xlink">
	<desc>
			Created with Pixso.
	</desc>
	<defs>
		<clipPath id="clip2212_821">
			<rect id="box-pack" width="36.000000" height="40.000000" transform="translate(-0.205078 -0.579102)" fill="white" fill-opacity="0"/>
		</clipPath>
		<clipPath id="clip2212_820">
			<rect id="SVG" width="50.000000" height="40.000000" transform="translate(-0.205078 -0.579102)" fill="white" fill-opacity="0"/>
		</clipPath>
	</defs>
	<g clip-path="url(#clip2212_820)">
		<rect id="box-pack" width="36.000000" height="40.000000" transform="translate(-0.205078 -0.579102)" fill="#FFFFFF" fill-opacity="0"/>
		<g clip-path="url(#clip2212_821)">
			<path id="Vector" d="M35.63 8.8C35.63 8.79 35.63 8.78 35.63 8.77C35.62 8.69 35.61 8.62 35.59 8.55C35.59 8.54 35.58 8.54 35.58 8.53C35.57 8.49 35.56 8.47 35.55 8.44C35.55 8.44 35.55 8.43 35.54 8.43L31.36 -0.06C31.2 -0.39 30.88 -0.58 30.51 -0.58L4.91 -0.58C4.55 -0.58 4.22 -0.39 4.06 -0.06L-0.12 8.43C-0.12 8.43 -0.12 8.44 -0.13 8.44C-0.14 8.47 -0.15 8.49 -0.16 8.53C-0.16 8.54 -0.17 8.54 -0.17 8.55C-0.19 8.62 -0.21 8.68 -0.21 8.77C-0.21 8.78 -0.21 8.79 -0.21 8.8C-0.21 8.82 -0.21 8.83 -0.21 8.85L-0.21 38.48C-0.21 39 0.21 39.42 0.73 39.42L34.69 39.42C35.21 39.42 35.63 39 35.63 38.48L35.63 8.85C35.63 8.83 35.63 8.82 35.63 8.8ZM33.18 7.91L18.66 7.91L18.66 1.3L29.94 1.3L33.18 7.91ZM5.49 1.3L16.78 1.3L16.78 7.91L2.25 7.91L5.49 1.3ZM33.75 37.54L1.67 37.54L1.67 9.79L33.75 9.79L33.75 37.54Z" fill="#00171F" fill-opacity="1.000000" fill-rule="nonzero"/>
			<path id="Vector" d="M15.54 22.86C15.18 22.49 14.58 22.49 14.22 22.86C13.85 23.22 13.85 23.82 14.22 24.19L16.3 26.26C16.47 26.44 16.71 26.54 16.95 26.54C17.2 26.54 17.44 26.43 17.62 26.25L23.01 20.8C23.38 20.43 23.38 19.84 23 19.47C22.64 19.11 22.04 19.11 21.68 19.48L16.94 24.27L15.54 22.86Z" fill="#00171F" fill-opacity="1.000000" fill-rule="nonzero"/>
		</g>
	</g>
</svg>
