<svg width="50.000000" height="40.000000" viewBox="0 0 50 40" fill="none" xmlns="http://www.w3.org/2000/svg" xmlns:xlink="http://www.w3.org/1999/xlink">
	<desc>
			Created with Pixso.
	</desc>
	<defs>
		<clipPath id="clip2212_827">
			<rect id="delivery-time" width="46.000000" height="40.000000" transform="translate(-0.205078 -0.579102)" fill="white" fill-opacity="0"/>
		</clipPath>
		<clipPath id="clip2212_826">
			<rect id="SVG" width="50.000000" height="40.000000" transform="translate(-0.205078 -0.579102)" fill="white" fill-opacity="0"/>
		</clipPath>
	</defs>
	<g clip-path="url(#clip2212_826)">
		<rect id="delivery-time" width="46.000000" height="40.000000" transform="translate(-0.205078 -0.579102)" fill="#FFFFFF" fill-opacity="0"/>
		<g clip-path="url(#clip2212_827)">
			<path id="Vector" d="M34.13 20.93C32 20.93 29.93 20.29 28.13 19.06C26.43 17.9 25.18 16.41 24.38 14.65C23.59 12.88 23.28 11.17 23.42 9.42C23.61 7.24 24.28 5.42 25.47 3.85C26.69 2.24 28.06 1.11 29.67 0.4C31.41 -0.37 33.1 -0.69 34.79 -0.56C36.79 -0.41 38.58 0.19 40.12 1.24C42.32 2.75 43.78 4.76 44.47 7.22C44.6 7.68 44.69 8.14 44.77 8.6C44.81 8.81 44.86 9.02 44.9 9.23L44.9 11.1L44.9 11.15C44.89 11.18 44.88 11.22 44.87 11.27C44.84 11.34 44.83 11.41 44.82 11.47C44.62 13.14 44.04 14.69 43.11 16.09C41.49 18.53 39.02 20.18 36.17 20.73C35.5 20.86 34.81 20.93 34.13 20.93ZM41.35 15.37C41.12 15.26 40.94 15.15 40.76 15.03C40.27 14.73 40.12 14.25 40.37 13.79C40.63 13.35 41.12 13.22 41.63 13.47C41.83 13.56 42.01 13.67 42.22 13.78C42.26 13.81 42.31 13.83 42.34 13.85C42.75 13 42.98 12.09 43.1 11.03C43.05 11.03 43.01 11.03 42.96 11.03C42.73 11.03 42.5 11.03 42.27 11.03C41.67 11.02 41.32 10.69 41.31 10.17C41.31 9.64 41.67 9.31 42.26 9.29C42.48 9.28 42.7 9.28 42.94 9.29C42.98 9.29 43.03 9.29 43.09 9.29C43.02 8.35 42.77 7.44 42.33 6.46C42.29 6.48 42.27 6.49 42.24 6.52C42.04 6.63 41.86 6.74 41.66 6.84C41.19 7.1 40.62 6.97 40.37 6.56C40.13 6.15 40.28 5.6 40.74 5.31C40.91 5.2 41.1 5.09 41.29 4.97C41.32 4.95 41.37 4.93 41.4 4.9C40.84 4.12 40.16 3.45 39.35 2.86C39.33 2.88 39.32 2.9 39.31 2.93C39.22 3.1 39.12 3.26 39.03 3.43C38.74 3.92 38.21 4.11 37.77 3.87C37.31 3.63 37.18 3.11 37.46 2.57C37.54 2.41 37.64 2.25 37.73 2.06L37.79 1.95C36.97 1.56 36.07 1.32 35 1.21C35 1.25 35 1.3 35 1.35C35 1.59 35 1.81 35 2.05C34.98 2.57 34.65 2.9 34.15 2.91C33.66 2.93 33.31 2.6 33.26 2.08C33.25 1.95 33.25 1.83 33.25 1.7C33.25 1.65 33.25 1.59 33.25 1.54C33.25 1.44 33.25 1.33 33.25 1.22C32.26 1.31 31.37 1.54 30.45 1.97C30.47 1.99 30.48 2.01 30.5 2.04C30.59 2.2 30.69 2.36 30.78 2.53C31.06 3.03 30.96 3.59 30.54 3.85C30.13 4.11 29.55 3.93 29.25 3.45C29.14 3.29 29.05 3.12 28.94 2.96C28.93 2.94 28.91 2.9 28.9 2.87C28.1 3.43 27.45 4.1 26.84 4.93L26.91 4.96C27.06 5.05 27.2 5.14 27.35 5.23C27.68 5.43 27.89 5.67 27.95 5.94C28 6.14 27.96 6.35 27.83 6.54C27.54 7 26.99 7.09 26.44 6.77C26.3 6.69 26.15 6.61 26 6.52L25.94 6.48C25.52 7.41 25.28 8.3 25.19 9.28C25.22 9.28 25.27 9.28 25.31 9.28C25.53 9.28 25.73 9.28 25.94 9.28C26.53 9.3 26.87 9.62 26.87 10.16C26.87 10.54 26.71 11 25.94 11.02C25.76 11.03 25.6 11.03 25.42 11.03C25.34 11.03 25.27 11.03 25.19 11.03C25.25 11.91 25.48 12.8 25.91 13.81C25.96 13.78 26 13.76 26.04 13.74C26.24 13.63 26.43 13.52 26.62 13.43C27.1 13.2 27.58 13.33 27.83 13.77C28.09 14.22 27.96 14.68 27.49 14.99C27.32 15.1 27.13 15.2 26.93 15.31C26.9 15.34 26.86 15.35 26.83 15.37C27.39 16.16 28.06 16.84 28.86 17.43C28.89 17.4 28.91 17.36 28.92 17.33C29.04 17.13 29.16 16.94 29.27 16.75C29.59 16.26 30.08 16.12 30.51 16.39C30.98 16.67 31.09 17.16 30.79 17.69C30.69 17.87 30.59 18.04 30.47 18.25C30.44 18.3 30.41 18.35 30.38 18.4L33.25 19.19C33.25 19.13 33.25 19.07 33.25 19.01C33.25 18.77 33.25 18.54 33.25 18.33C33.27 17.77 33.61 17.41 34.13 17.41C34.14 17.41 34.15 17.41 34.16 17.41C34.68 17.42 34.99 17.77 35 18.33C35 18.54 35 18.75 35 18.98C35 19.02 35 19.07 35 19.11C35.96 19.02 36.87 18.79 37.82 18.36C37.8 18.31 37.78 18.27 37.75 18.23C37.64 18.02 37.53 17.82 37.43 17.61C37.18 17.12 37.32 16.61 37.78 16.37C38.22 16.12 38.69 16.27 38.98 16.74C39.1 16.93 39.21 17.12 39.32 17.34C39.35 17.39 39.38 17.44 39.42 17.5L41.49 15.44C41.45 15.43 41.39 15.4 41.35 15.37Z" fill="#00171F" fill-opacity="1.000000" fill-rule="nonzero"/>
			<path id="Vector" d="M-0.21 22.2C-0.21 21.07 0.16 20.14 0.96 19.36C2.26 18.08 3.35 17 4.42 15.9C5.25 15.05 6.21 14.66 7.37 14.68C7.85 14.7 8.32 14.7 8.81 14.7C8.97 14.7 9.15 14.7 9.33 14.7L9.33 14.36C9.33 14.01 9.33 13.64 9.33 13.29C9.33 12.51 9.31 11.69 9.34 10.89C9.37 9.09 10.59 7.69 12.37 7.38C12.52 7.36 12.68 7.35 12.87 7.35C15.71 7.35 18.57 7.35 21.41 7.35C21.76 7.35 22.03 7.44 22.21 7.63C22.36 7.79 22.43 8.03 22.4 8.31C22.37 8.83 22.02 9.09 21.4 9.09C19.57 9.09 17.74 9.09 15.91 9.09L13.16 9.09C12.47 9.09 11.95 9.27 11.59 9.62C11.24 9.97 11.07 10.5 11.07 11.19C11.07 12.37 11.07 13.55 11.08 14.73C11.08 15.96 11.09 17.19 11.09 18.4C11.09 20.39 11.09 22.39 11.09 24.38L11.09 27.27L38.74 27.27L38.74 25.46C38.74 24.22 38.74 22.94 38.74 21.69C38.74 20.91 39.19 20.73 39.58 20.73C39.85 20.72 40.07 20.8 40.22 20.96C40.4 21.12 40.48 21.38 40.48 21.69L40.48 23.15C40.48 26.48 40.49 29.92 40.47 33.3C40.46 34.63 39.59 35.68 38.32 35.93C37.86 36.02 35.75 35.98 35.68 35.98C35.11 37.99 33.27 39.4 31.16 39.42C31.14 39.42 31.13 39.42 31.12 39.42C28.99 39.42 27.14 38.01 26.58 35.99C25.08 35.99 22.72 35.99 20.86 35.99L17.53 35.99C15.7 35.99 13.42 35.99 11.99 35.99C11.43 38 9.59 39.4 7.46 39.42C7.45 39.42 7.44 39.42 7.44 39.42C5.17 39.42 3.19 37.77 2.8 35.54L2.35 35.54C2.07 35.54 1.72 35.54 1.5 35.54L1.46 35.54C1.24 35.53 1.03 35.44 0.84 35.3C0.14 34.73 -0.21 33.96 -0.21 33.02C-0.21 30.02 -0.2 26.1 -0.21 22.2ZM37.78 34.23C38.35 34.21 38.7 33.89 38.71 33.39C38.74 32.36 38.74 31.34 38.73 30.28C38.73 29.9 38.73 29.52 38.73 29.14L10.58 29.14C9.54 29.14 9.29 28.89 9.29 27.83L9.29 16.46L8.74 16.46C8.2 16.46 7.68 16.46 7.16 16.46C6.61 16.46 6.14 16.65 5.76 17.05L5.16 17.64C4.17 18.64 3.16 19.64 2.16 20.64C1.76 21.05 1.56 21.54 1.56 22.12C1.56 25.81 1.56 29.48 1.56 33.03C1.56 33.36 1.64 33.6 1.81 33.81C2.12 33.81 2.47 33.81 2.82 33.81C3.24 31.6 5.17 30 7.44 29.99C9.89 29.98 11.92 31.84 12.16 34.26C15.92 34.26 22.58 34.26 26.44 34.26C26.68 31.84 28.65 30.02 31.11 29.99C31.13 29.99 31.14 29.99 31.17 29.99C33.55 29.99 35.61 31.88 35.85 34.26C36.01 34.26 36.23 34.26 36.48 34.26C36.65 34.26 36.85 34.26 37.03 34.26C37.37 34.23 37.68 34.23 37.78 34.23ZM31.13 37.66C32.78 37.66 34.12 36.33 34.12 34.69C34.12 33.05 32.78 31.72 31.14 31.71L31.13 31.71C30.34 31.71 29.6 32.01 29.04 32.57C28.48 33.13 28.16 33.89 28.16 34.71C28.17 36.36 29.48 37.66 31.13 37.66ZM7.45 37.66C9.11 37.66 10.41 36.36 10.42 34.7C10.42 33.89 10.11 33.13 9.55 32.57C8.99 32.02 8.26 31.72 7.48 31.72C7.46 31.72 7.45 31.72 7.44 31.72C5.8 31.74 4.48 33.08 4.48 34.71C4.48 36.36 5.79 37.66 7.45 37.66Z" fill="#00171F" fill-opacity="1.000000" fill-rule="nonzero"/>
			<path id="Vector" d="M36.34 14.31C36.21 14.38 36.07 14.41 35.93 14.41C35.6 14.41 35.27 14.22 35.08 13.88L35.06 13.85C34.87 13.51 34.65 13.16 34.49 12.79C34.35 12.48 34.2 12.37 33.86 12.33C32.97 12.24 32.34 11.69 32.06 10.79C31.78 9.85 32.02 9.01 32.74 8.55C33.27 8.2 33.34 7.82 33.29 7.18C33.27 7.06 33.27 6.93 33.29 6.81C33.29 6.75 33.29 6.71 33.29 6.65C33.29 6.51 33.29 6.37 33.29 6.23C33.29 5.92 33.29 5.61 33.29 5.29C33.3 4.96 33.38 4.72 33.55 4.55C33.72 4.4 33.93 4.33 34.2 4.34C34.57 4.35 35.03 4.53 35.04 5.3L35.04 5.45C35.04 6.25 35.05 7.08 35.04 7.89C35.04 8.09 35.09 8.17 35.27 8.27C35.81 8.58 36.2 9.07 36.35 9.64C36.48 10.11 36.42 10.59 36.19 10.99C35.85 11.57 36.02 11.92 36.32 12.4C36.43 12.59 36.54 12.78 36.63 12.96L36.67 13.02C36.91 13.55 36.8 14.06 36.34 14.31ZM34.6 10.17C34.6 9.92 34.41 9.72 34.17 9.71L34.16 9.71C34.06 9.71 33.94 9.76 33.86 9.84C33.77 9.92 33.72 10.05 33.71 10.17C33.71 10.29 33.75 10.4 33.84 10.5C33.92 10.58 34.02 10.62 34.12 10.62C34.25 10.62 34.37 10.58 34.46 10.48C34.55 10.4 34.6 10.29 34.6 10.17Z" fill="#00171F" fill-opacity="1.000000" fill-rule="nonzero"/>
		</g>
	</g>
</svg>
