<svg width="50.000000" height="40.000000" viewBox="0 0 50 40" fill="none" xmlns="http://www.w3.org/2000/svg" xmlns:xlink="http://www.w3.org/1999/xlink">
	<desc>
			Created with Pixso.
	</desc>
	<defs>
		<clipPath id="clip2212_834">
			<rect id="doc-garant" width="42.000000" height="40.000000" transform="translate(-0.205078 -0.579102)" fill="white" fill-opacity="0"/>
		</clipPath>
		<clipPath id="clip2212_833">
			<rect id="SVG" width="50.000000" height="40.000000" transform="translate(-0.205078 -0.579102)" fill="white" fill-opacity="0"/>
		</clipPath>
	</defs>
	<g clip-path="url(#clip2212_833)">
		<rect id="doc-garant" width="42.000000" height="40.000000" transform="translate(-0.205078 -0.579102)" fill="#FFFFFF" fill-opacity="0"/>
		<g clip-path="url(#clip2212_834)">
			<path id="Vector" d="M41.16 4.46C40.94 4.84 40.61 4.95 40.18 4.95C38.83 4.93 37.48 4.94 36.14 4.94C35.99 4.94 35.84 4.94 35.65 4.94C35.65 5.14 35.65 5.31 35.65 5.48C35.65 14.18 35.65 22.89 35.65 31.6C35.65 33.25 34.84 34.55 33.41 35.04C32.84 35.24 32.21 35.26 31.55 35.37C31.55 35.45 31.53 35.59 31.53 35.73C31.53 36.67 31.53 37.61 31.53 38.55C31.53 38.88 31.47 39.18 31.14 39.34C30.83 39.49 30.54 39.39 30.28 39.18C29.55 38.63 28.82 38.08 28.07 37.52C27.35 38.07 26.63 38.59 25.93 39.13C25.64 39.35 25.36 39.51 25.01 39.34C24.64 39.17 24.62 38.83 24.62 38.47C24.62 37.43 24.62 36.37 24.62 35.27C24.41 35.27 24.24 35.27 24.07 35.27C17.18 35.27 10.3 35.27 3.42 35.27C1.68 35.27 0.31 34.34 -0.06 32.77C-0.24 31.98 -0.2 31.15 -0.2 30.33C-0.2 29.95 0.14 29.75 0.6 29.75C2 29.75 3.4 29.75 4.8 29.75C4.95 29.75 5.1 29.75 5.29 29.75C5.29 29.55 5.29 29.38 5.29 29.21C5.29 20.51 5.29 11.81 5.29 3.1C5.29 1.45 6.06 0.19 7.48 -0.34C7.92 -0.51 8.42 -0.58 8.9 -0.59C18.45 -0.58 28 -0.58 37.55 -0.58C39.42 -0.58 40.66 0.43 41.1 2.26C41.11 2.29 41.15 2.33 41.16 2.36C41.16 3.06 41.16 3.76 41.16 4.46ZM24.6 29.75C24.65 29.33 24.62 29 24.38 28.65C24.18 28.35 24.15 27.95 24.04 27.59C23.98 27.41 23.93 27.21 23.82 27.08C23.08 26.23 23.07 25.04 23.8 24.2C23.92 24.04 24.02 23.81 24.04 23.61C24.13 22.48 24.99 21.63 26.13 21.59C26.28 21.58 26.47 21.51 26.58 21.42C27.48 20.6 28.67 20.59 29.57 21.42C29.67 21.51 29.84 21.59 29.98 21.59C31.2 21.64 32.06 22.49 32.12 23.69C32.13 23.85 32.21 24.04 32.32 24.17C32.81 24.73 33.04 25.37 32.83 26.07C32.69 26.51 32.31 26.88 32.13 27.32C31.94 27.75 31.87 28.23 31.75 28.69C31.69 28.93 31.56 29.16 31.56 29.39C31.54 30.62 31.55 31.85 31.55 33.07C31.55 33.87 31.64 33.95 32.44 33.89C32.51 33.88 32.6 33.87 32.68 33.84C33.68 33.6 34.29 32.79 34.29 31.66C34.29 27.88 34.29 24.11 34.29 20.34C34.29 14.6 34.29 8.86 34.29 3.12C34.29 2.35 34.43 1.63 34.86 0.97C34.88 0.93 34.88 0.88 34.91 0.79C34.76 0.79 34.64 0.79 34.52 0.79C26.01 0.79 17.49 0.79 8.98 0.79C7.51 0.79 6.69 1.62 6.68 3.11C6.68 11.83 6.68 20.56 6.68 29.3C6.68 29.44 6.68 29.58 6.68 29.75C12.66 29.75 18.61 29.75 24.6 29.75ZM24.58 33.9C24.58 32.95 24.58 32.06 24.58 31.18C16.75 31.18 8.96 31.18 1.17 31.18C0.93 32.93 2.04 33.94 3.62 33.93C10.42 33.88 17.23 33.91 24.03 33.91C24.2 33.9 24.37 33.9 24.58 33.9ZM26.21 22.98C25.63 23 25.33 23.45 25.47 23.96C25.63 24.5 25.52 24.67 25.06 24.99C24.86 25.12 24.64 25.4 24.65 25.61C24.66 25.84 24.86 26.13 25.06 26.27C25.52 26.6 25.62 26.76 25.46 27.3C25.29 27.92 25.73 28.38 26.35 28.23C26.98 28.08 27.08 28.12 27.42 28.69C27.73 29.2 28.37 29.2 28.68 28.7C29.05 28.1 29.09 28.09 29.77 28.23C30.35 28.36 30.79 27.92 30.66 27.34C30.49 26.69 30.52 26.62 31.12 26.25C31.6 25.94 31.62 25.31 31.14 25.01C30.52 24.6 30.52 24.6 30.66 23.84C30.77 23.32 30.32 22.88 29.8 23C29.08 23.16 29.06 23.14 28.67 22.54C28.41 22.13 27.82 22 27.58 22.39C27.22 22.98 26.85 23.36 26.21 22.98ZM26.03 37.33C26.58 36.93 27.07 36.56 27.56 36.19C27.95 35.91 28.19 35.91 28.59 36.19C28.96 36.46 29.33 36.75 29.69 37.01C29.82 37.11 29.96 37.2 30.12 37.32C30.12 34.72 30.12 32.21 30.12 29.58C29.89 29.69 29.69 29.72 29.57 29.83C28.65 30.65 27.48 30.66 26.58 29.84C26.45 29.73 26.26 29.69 26.03 29.57C26.03 32.23 26.03 34.75 26.03 37.33ZM39.76 3.54C39.87 2.54 39.7 1.68 38.81 1.13C38.08 0.67 37.3 0.67 36.58 1.15C35.71 1.71 35.56 2.57 35.69 3.55C37.04 3.54 38.39 3.54 39.76 3.54Z" fill="#00171F" fill-opacity="1.000000" fill-rule="nonzero"/>
			<path id="Vector" d="M14.97 13.88C14.97 13.43 14.97 13.01 14.97 12.56C20.25 12.56 25.51 12.56 30.79 12.56C30.79 13 30.79 13.42 30.79 13.88C25.53 13.88 20.28 13.88 14.97 13.88Z" fill="#00171F" fill-opacity="1.000000" fill-rule="nonzero"/>
			<path id="Vector" d="M13.59 9.73C13.59 9.28 13.59 8.86 13.59 8.4C18.18 8.4 22.75 8.4 27.34 8.4C27.34 8.85 27.34 9.28 27.34 9.73C22.75 9.73 18.18 9.73 13.59 9.73Z" fill="#00171F" fill-opacity="1.000000" fill-rule="nonzero"/>
			<path id="Vector" d="M10.13 20.78C10.13 20.32 10.13 19.9 10.13 19.45C14.72 19.45 19.29 19.45 23.89 19.45C23.89 19.89 23.89 20.32 23.89 20.78C19.31 20.78 14.74 20.78 10.13 20.78Z" fill="#00171F" fill-opacity="1.000000" fill-rule="nonzero"/>
			<path id="Vector" d="M19.11 17.31C19.11 16.86 19.11 16.43 19.11 15.98C23.01 15.98 26.9 15.98 30.79 15.98C30.79 16.43 30.79 16.85 30.79 17.31C26.91 17.31 23.03 17.31 19.11 17.31Z" fill="#00171F" fill-opacity="1.000000" fill-rule="nonzero"/>
			<path id="Vector" d="M10.13 24.22C10.13 23.77 10.13 23.34 10.13 22.89C14.03 22.89 17.92 22.89 21.82 22.89C21.82 23.34 21.82 23.77 21.82 24.22C17.94 24.22 14.06 24.22 10.13 24.22Z" fill="#00171F" fill-opacity="1.000000" fill-rule="nonzero"/>
			<path id="Vector" d="M10.14 17.31C10.14 16.85 10.14 16.43 10.14 15.99C12.67 15.99 15.16 15.99 17.69 15.99C17.69 16.43 17.69 16.85 17.69 17.31C15.18 17.31 12.67 17.31 10.14 17.31Z" fill="#00171F" fill-opacity="1.000000" fill-rule="nonzero"/>
			<path id="Vector" d="M21.13 4.96C21.13 5.41 21.13 5.84 21.13 6.29C19.3 6.29 17.5 6.29 15.66 6.29C15.66 5.85 15.66 5.42 15.66 4.96C17.48 4.96 19.28 4.96 21.13 4.96Z" fill="#00171F" fill-opacity="1.000000" fill-rule="nonzero"/>
			<path id="Vector" d="M10.14 13.88C10.14 13.42 10.14 12.99 10.14 12.56C11.28 12.56 12.41 12.56 13.56 12.56C13.56 13.01 13.56 13.43 13.56 13.88C12.41 13.88 11.29 13.88 10.14 13.88Z" fill="#00171F" fill-opacity="1.000000" fill-rule="nonzero"/>
			<path id="Vector" d="M22.56 4.95C23.48 4.95 24.36 4.95 25.26 4.95C25.26 5.39 25.26 5.84 25.26 6.29C24.36 6.29 23.47 6.29 22.56 6.29C22.56 5.84 22.56 5.42 22.56 4.95Z" fill="#00171F" fill-opacity="1.000000" fill-rule="nonzero"/>
		</g>
	</g>
</svg>
