<svg width="50.000000" height="40.000000" viewBox="0 0 50 40" fill="none" xmlns="http://www.w3.org/2000/svg" xmlns:xlink="http://www.w3.org/1999/xlink">
	<desc>
			Created with Pixso.
	</desc>
	<defs>
		<clipPath id="clip2212_848">
			<rect id="smile" width="40.000000" height="40.000000" transform="translate(-0.205078 -0.579102)" fill="white" fill-opacity="0"/>
		</clipPath>
		<clipPath id="clip2212_847">
			<rect id="SVG" width="50.000000" height="40.000000" transform="translate(-0.205078 -0.579102)" fill="white" fill-opacity="0"/>
		</clipPath>
	</defs>
	<g clip-path="url(#clip2212_847)">
		<rect id="smile" width="40.000000" height="40.000000" transform="translate(-0.205078 -0.579102)" fill="#FFFFFF" fill-opacity="0"/>
		<g clip-path="url(#clip2212_848)">
			<path id="Vector" d="M18.62 39.42C17.86 39.31 17.1 39.24 16.35 39.1C11.73 38.29 7.88 36.09 4.77 32.6C1.94 29.4 0.31 25.66 -0.1 21.42C-0.6 16.2 0.73 11.43 3.94 7.25C6.91 3.39 10.81 0.88 15.58 -0.11C21.56 -1.36 27.05 -0.14 31.91 3.55C35.81 6.52 38.29 10.45 39.33 15.26C39.52 16.1 39.59 16.97 39.71 17.84C39.72 17.98 39.76 18.12 39.78 18.25L39.78 20.59C39.75 20.88 39.71 21.15 39.68 21.44C39.21 25.74 37.56 29.53 34.66 32.76C31.58 36.18 27.75 38.31 23.22 39.12C22.47 39.25 21.71 39.32 20.95 39.43C20.18 39.42 19.4 39.42 18.62 39.42ZM38.06 19.45C38.1 9.42 29.89 1.2 19.82 1.16C9.78 1.12 1.56 9.32 1.52 19.39C1.48 29.43 9.68 37.65 19.76 37.69C29.78 37.73 38.02 29.52 38.06 19.45Z" fill="#00171F" fill-opacity="1.000000" fill-rule="nonzero"/>
			<path id="Vector" d="M19.79 28.94C16.5 28.92 13.69 27.72 11.42 25.32C11.02 24.91 11.01 24.39 11.36 24.04C11.72 23.68 12.23 23.68 12.64 24.1C13.51 25.02 14.48 25.79 15.64 26.31C19.18 27.86 22.53 27.52 25.66 25.25C26.16 24.88 26.58 24.4 27.05 23.99C27.35 23.74 27.69 23.71 28.03 23.9C28.37 24.09 28.53 24.4 28.43 24.78C28.39 24.97 28.27 25.17 28.14 25.31C26.3 27.29 24.04 28.46 21.35 28.87C21.18 28.89 21 28.94 20.81 28.94C20.48 28.95 20.13 28.94 19.79 28.94ZM12.82 13.3C15.16 13.34 17.08 15.2 17.16 17.53C17.18 18.1 16.86 18.5 16.36 18.55C15.91 18.59 15.5 18.26 15.45 17.73C15.37 16.88 15.09 16.14 14.39 15.61C13.58 15.03 12.7 14.92 11.8 15.3C10.89 15.69 10.35 16.41 10.25 17.42L10.21 17.73C10.11 18.26 9.74 18.59 9.29 18.55C8.79 18.5 8.48 18.09 8.49 17.53C8.56 15.68 9.82 14.03 11.61 13.53C12 13.41 12.41 13.37 12.82 13.3ZM26.75 13.31C29.08 13.34 31.02 15.22 31.09 17.53C31.1 18.09 30.78 18.5 30.27 18.54C29.82 18.58 29.43 18.25 29.37 17.71C29.29 16.89 29.04 16.16 28.37 15.64C27.55 15.01 26.65 14.89 25.73 15.29C24.8 15.68 24.27 16.43 24.16 17.45C24.13 17.65 24.11 17.87 24.03 18.05C23.87 18.4 23.47 18.58 23.08 18.5C22.65 18.39 22.41 18.06 22.41 17.59C22.38 15.6 24.01 13.71 25.99 13.39C26.23 13.37 26.49 13.35 26.75 13.31Z" fill="#00171F" fill-opacity="1.000000" fill-rule="nonzero"/>
		</g>
	</g>
</svg>
